<svg width="48" height="48" viewBox="0 0 48 48" fill="none" xmlns="http://www.w3.org/2000/svg">
  <path d="M10.2421 35.6075C14.3053 33.3108 18.9996 32 24 32C29.0004 32 33.6947 33.3108 37.7579 35.6075M30 20C30 23.3137 27.3137 26 24 26C20.6863 26 18 23.3137 18 20C18 16.6863 20.6863 14 24 14C27.3137 14 30 16.6863 30 20ZM42 24C42 33.9411 33.9411 42 24 42C14.0589 42 6 33.9411 6 24C6 14.0589 14.0589 6 24 6C33.9411 6 42 14.0589 42 24Z" stroke="white" stroke-width="2" stroke-linecap="round" stroke-linejoin="round" />
</svg>