<svg width="48" height="48" viewBox="0 0 48 48" fill="none" xmlns="http://www.w3.org/2000/svg">
  <path d="M35.3137 37.3137C29.0653 43.5621 18.9347 43.5621 12.6863 37.3137C9.5621 34.1895 8.00001 30.0947 8 26C7.99999 21.9052 9.56209 17.8105 12.6863 14.6863C12.6863 14.6863 14.0001 17.9999 18.0001 19.9999C18.0001 15.9999 19.0001 9.99991 23.9718 6C28 10 32.1823 11.5549 35.3137 14.6863C38.4379 17.8105 40 21.9052 40 26C40 30.0947 38.4379 34.1895 35.3137 37.3137Z" stroke="white" stroke-width="2" stroke-linecap="round" stroke-linejoin="round" />
  <path d="M19.7574 32.2425C22.1005 34.5857 25.8995 34.5857 28.2426 32.2425C29.4142 31.071 30 29.5355 30 28C30 26.4644 29.4142 24.9289 28.2426 23.7573C27.0785 22.5931 25.5549 22.0073 24.0291 22L21.9999 27.9999L18 28C18 29.5355 18.5858 31.071 19.7574 32.2425Z" stroke="white" stroke-width="2" stroke-linecap="round" stroke-linejoin="round" />
</svg>