<svg width="48" height="48" viewBox="0 0 48 48" fill="none" xmlns="http://www.w3.org/2000/svg">
  <path d="M6 6H10L10.8 10M14 26H34L42 10H10.8M14 26L10.8 10M14 26L9.41421 30.5858C8.15428 31.8457 9.04662 34 10.8284 34H34M34 34C31.7909 34 30 35.7909 30 38C30 40.2091 31.7909 42 34 42C36.2091 42 38 40.2091 38 38C38 35.7909 36.2091 34 34 34ZM18 38C18 40.2091 16.2091 42 14 42C11.7909 42 10 40.2091 10 38C10 35.7909 11.7909 34 14 34C16.2091 34 18 35.7909 18 38Z" stroke="white" stroke-width="2" stroke-linecap="round" stroke-linejoin="round" />
</svg>