<svg width="48" height="48" viewBox="0 0 48 48" fill="none" xmlns="http://www.w3.org/2000/svg">
  <path d="M36 18C39.3137 18 42 15.3137 42 12C42 8.68629 39.3137 6 36 6C32.6863 6 30 8.68629 30 12C30 15.3137 32.6863 18 36 18ZM36 18C36 22.7739 34.1036 27.3523 30.7279 30.7279C27.3523 34.1036 22.7739 36 18 36M18 36C18 39.3137 15.3137 42 12 42C8.68629 42 6 39.3137 6 36C6 32.6863 8.68629 30 12 30C15.3137 30 18 32.6863 18 36Z" stroke="white" stroke-width="2" stroke-linecap="round" stroke-linejoin="round" />
  <path d="M12 30L12 18M12 18C8.68629 18 6 15.3137 6 12C6 8.68629 8.68629 6 12 6C15.3137 6 18 8.68629 18 12C18 15.3137 15.3137 18 12 18Z" stroke="white" stroke-width="2" stroke-linecap="round" stroke-linejoin="round" />
</svg>