<svg id="Layer_1" data-name="Layer 1" xmlns="http://www.w3.org/2000/svg" xmlns:xlink="http://www.w3.org/1999/xlink" viewBox="0 0 2991.09 1417"><defs><style>.cls-1{fill:#111;}.cls-2{fill:none;stroke:#fff;stroke-linecap:round;stroke-linejoin:round;stroke-width:6.75px;}.cls-3{fill:#fff;}.cls-4{fill:#dedede;}.cls-5{fill:#c4c4c4;}.cls-6{fill:url(#linear-gradient);}.cls-7{fill:url(#linear-gradient-2);}</style><linearGradient id="linear-gradient" y1="708.5" x2="791.19" y2="708.5" gradientUnits="userSpaceOnUse"><stop offset="0"/><stop offset="1" stop-color="#020202" stop-opacity="0"/></linearGradient><linearGradient id="linear-gradient-2" x1="-1933.65" x2="-1142.46" gradientTransform="matrix(1, 0, 0, -1, 3609.12, 1417)" xlink:href="#linear-gradient"/></defs><path class="cls-1" d="M2463.31,1417H-523.48V659.84c173.61-2.33,368.07,55.65,463.32,88.29A314.12,314.12,0,0,1,38.9,803.85c77.52,64.48,246.21,195.88,310.49,175.32,105.84-33.85,252.54-199.39,416-240s310.59,115.37,445-83.5C1356,440.17,1705.94,170.9,1888.6,86.91a238,238,0,0,1,84.19-21.15c97.36-6.22,362.49-22.37,490.52-22.37Z" transform="translate(523.87)"/><path class="cls-2" d="M-517.39,660.11c173.61-2.33,361.59,55.71,456.84,88.35a314.12,314.12,0,0,1,99.06,55.72C116,868.66,284.72,1000.06,349,979.5c105.84-33.85,252.55-199.38,416-240s310.59,115.37,445-83.5c145.64-215.49,495.56-484.77,678.22-568.76A237.68,237.68,0,0,1,1972.4,66.1c97.36-6.22,357-21.43,485-21.43" transform="translate(523.87)"/><path class="cls-3" d="M296.5,865.28V881h-3.22L287,871.93h-.1V881h-3.8V865.28h3.27l6.19,9.06h.13v-9.06Zm7.24,15.94a6.33,6.33,0,0,1-3.19-.76,5.26,5.26,0,0,1-2.05-2.13,6.91,6.91,0,0,1-.71-3.19,6.84,6.84,0,0,1,.71-3.18,5.14,5.14,0,0,1,2.05-2.13,7,7,0,0,1,6.38,0A5.08,5.08,0,0,1,309,872a6.72,6.72,0,0,1,.72,3.18,6.79,6.79,0,0,1-.72,3.19,5.19,5.19,0,0,1-2.05,2.13A6.3,6.3,0,0,1,303.74,881.22Zm0-2.83a1.68,1.68,0,0,0,1.14-.41,2.6,2.6,0,0,0,.71-1.15,5.79,5.79,0,0,0,0-3.43,2.6,2.6,0,0,0-.71-1.15,1.63,1.63,0,0,0-1.14-.41,1.76,1.76,0,0,0-1.19.41,2.61,2.61,0,0,0-.72,1.15,6,6,0,0,0,0,3.43,2.61,2.61,0,0,0,.72,1.15A1.81,1.81,0,0,0,303.77,878.39Zm14.75-5.2v2.9h-7.28v-2.9ZM334.79,871H331a3.25,3.25,0,0,0-.31-1.07,2.53,2.53,0,0,0-.63-.81,2.64,2.64,0,0,0-.93-.52,3.65,3.65,0,0,0-1.18-.18,3.38,3.38,0,0,0-2,.56,3.46,3.46,0,0,0-1.26,1.62,6.52,6.52,0,0,0-.44,2.56,7,7,0,0,0,.44,2.63,3.5,3.5,0,0,0,1.27,1.58,3.44,3.44,0,0,0,1.94.53,3.7,3.7,0,0,0,1.14-.16,2.76,2.76,0,0,0,.92-.47,2.65,2.65,0,0,0,.65-.76,2.81,2.81,0,0,0,.36-1l3.84,0a5.81,5.81,0,0,1-.61,2,6.4,6.4,0,0,1-1.37,1.85,6.24,6.24,0,0,1-2.14,1.32,8.34,8.34,0,0,1-6.69-.44,6.76,6.76,0,0,1-2.65-2.75,10.3,10.3,0,0,1,0-8.79A6.8,6.8,0,0,1,324,866a7.73,7.73,0,0,1,3.78-.93,8.32,8.32,0,0,1,2.65.4,6.45,6.45,0,0,1,2.13,1.15,5.93,5.93,0,0,1,1.5,1.85A6.75,6.75,0,0,1,334.79,871Zm7,10.24a6.37,6.37,0,0,1-3.2-.76,5.23,5.23,0,0,1-2-2.13,6.79,6.79,0,0,1-.72-3.19,6.72,6.72,0,0,1,.72-3.18,5.11,5.11,0,0,1,2-2.13,6.27,6.27,0,0,1,3.2-.77,6.14,6.14,0,0,1,3.18.77,5,5,0,0,1,2.05,2.13,6.72,6.72,0,0,1,.72,3.18,6.79,6.79,0,0,1-.72,3.19,5.13,5.13,0,0,1-2.05,2.13A6.24,6.24,0,0,1,341.82,881.22Zm0-2.83A1.68,1.68,0,0,0,343,878a2.52,2.52,0,0,0,.72-1.15,6,6,0,0,0,0-3.43,2.52,2.52,0,0,0-.72-1.15,1.63,1.63,0,0,0-1.14-.41,1.73,1.73,0,0,0-1.18.41,2.62,2.62,0,0,0-.73,1.15,6,6,0,0,0,0,3.43,2.62,2.62,0,0,0,.73,1.15A1.78,1.78,0,0,0,341.84,878.39Zm11.51,2.78a4.34,4.34,0,0,1-2.37-.68,4.63,4.63,0,0,1-1.7-2,9.17,9.17,0,0,1,0-6.78,4.61,4.61,0,0,1,1.73-2,4.4,4.4,0,0,1,2.31-.64,3.52,3.52,0,0,1,1.59.32,3.34,3.34,0,0,1,1.09.81,4.17,4.17,0,0,1,.65,1h.08v-6h3.75V881h-3.71v-1.91h-.12a3.64,3.64,0,0,1-.68,1,3.25,3.25,0,0,1-1.09.77A3.86,3.86,0,0,1,353.35,881.17Zm1.31-2.93a1.83,1.83,0,0,0,1.17-.38,2.46,2.46,0,0,0,.74-1.1,5.43,5.43,0,0,0,0-3.32,2.4,2.4,0,0,0-.74-1.08,1.88,1.88,0,0,0-1.17-.37,1.85,1.85,0,0,0-1.18.38,2.35,2.35,0,0,0-.74,1.09,5,5,0,0,0-.25,1.64,4.86,4.86,0,0,0,.26,1.66,2.45,2.45,0,0,0,.73,1.1A1.8,1.8,0,0,0,354.66,878.24Zm13.08,3a6.58,6.58,0,0,1-3.2-.73,5,5,0,0,1-2.05-2.09,6.87,6.87,0,0,1-.72-3.25,6.73,6.73,0,0,1,.72-3.19,5.17,5.17,0,0,1,2-2.13,5.91,5.91,0,0,1,3.09-.77,6.49,6.49,0,0,1,2.3.39,5,5,0,0,1,1.81,1.16,5.33,5.33,0,0,1,1.18,1.89,7.35,7.35,0,0,1,.42,2.58V876H363.08v-2.18h6.76a2.14,2.14,0,0,0-.29-1.07,2,2,0,0,0-.75-.73,2.32,2.32,0,0,0-1.1-.26,2.23,2.23,0,0,0-1.13.28,2.06,2.06,0,0,0-.79.76,2.09,2.09,0,0,0-.31,1.08v2.22a2.73,2.73,0,0,0,.29,1.27,2.06,2.06,0,0,0,.8.83,2.45,2.45,0,0,0,1.24.3,2.86,2.86,0,0,0,.91-.13,2.12,2.12,0,0,0,.7-.41,1.78,1.78,0,0,0,.44-.66l3.44.1a4.33,4.33,0,0,1-.94,2,4.73,4.73,0,0,1-1.9,1.32A7.13,7.13,0,0,1,367.74,881.22Zm10.34-12.85v-3.09h13.29v3.09H386.6V881h-3.74V868.37Zm18.29,12.85a6.37,6.37,0,0,1-3.2-.76,5.32,5.32,0,0,1-2.05-2.13,6.91,6.91,0,0,1-.71-3.19,6.84,6.84,0,0,1,.71-3.18,5.2,5.2,0,0,1,2.05-2.13,6.27,6.27,0,0,1,3.2-.77,6.14,6.14,0,0,1,3.18.77A5,5,0,0,1,401.6,872a6.72,6.72,0,0,1,.72,3.18,6.79,6.79,0,0,1-.72,3.19,5.13,5.13,0,0,1-2.05,2.13A6.24,6.24,0,0,1,396.37,881.22Zm0-2.83a1.68,1.68,0,0,0,1.14-.41,2.61,2.61,0,0,0,.72-1.15,6,6,0,0,0,0-3.43,2.61,2.61,0,0,0-.72-1.15,1.63,1.63,0,0,0-1.14-.41,1.72,1.72,0,0,0-1.18.41,2.62,2.62,0,0,0-.73,1.15,6,6,0,0,0,0,3.43,2.62,2.62,0,0,0,.73,1.15A1.76,1.76,0,0,0,396.39,878.39Zm12.71,2.83a6.3,6.3,0,0,1-3.19-.76,5.19,5.19,0,0,1-2.05-2.13,6.79,6.79,0,0,1-.72-3.19,6.72,6.72,0,0,1,.72-3.18,5.08,5.08,0,0,1,2.05-2.13,7,7,0,0,1,6.38,0,5,5,0,0,1,2,2.13,6.61,6.61,0,0,1,.73,3.18,6.67,6.67,0,0,1-.73,3.19,5.11,5.11,0,0,1-2,2.13A6.3,6.3,0,0,1,409.1,881.22Zm0-2.83a1.72,1.72,0,0,0,1.15-.41,2.6,2.6,0,0,0,.71-1.15,6,6,0,0,0,0-3.43,2.6,2.6,0,0,0-.71-1.15,1.67,1.67,0,0,0-1.15-.41,1.73,1.73,0,0,0-1.18.41,2.62,2.62,0,0,0-.73,1.15,6.25,6.25,0,0,0,0,3.43,2.62,2.62,0,0,0,.73,1.15A1.78,1.78,0,0,0,409.12,878.39Zm11-13.11V881h-3.75V865.28Zm12,7.53-3.45.09a1.24,1.24,0,0,0-.29-.65,1.68,1.68,0,0,0-.62-.45,2,2,0,0,0-.88-.17,2.28,2.28,0,0,0-1.11.26.76.76,0,0,0-.44.71.7.7,0,0,0,.27.59,2.34,2.34,0,0,0,1,.41l2.27.43a5.37,5.37,0,0,1,2.62,1.12,2.69,2.69,0,0,1,.88,2.07,3.37,3.37,0,0,1-.72,2.11,4.57,4.57,0,0,1-1.94,1.4,7.46,7.46,0,0,1-2.81.49,6.76,6.76,0,0,1-4-1,3.88,3.88,0,0,1-1.66-2.8l3.71-.09a1.4,1.4,0,0,0,.64,1,2.3,2.3,0,0,0,1.31.34,2.25,2.25,0,0,0,1.17-.27.8.8,0,0,0,.46-.71.74.74,0,0,0-.35-.64,2.84,2.84,0,0,0-1.08-.38l-2.06-.39a5,5,0,0,1-2.64-1.19,3,3,0,0,1-.86-2.23,3.26,3.26,0,0,1,.63-2A4,4,0,0,1,424,869.5a8,8,0,0,1,2.77-.44,6.31,6.31,0,0,1,3.78,1A3.62,3.62,0,0,1,432.12,872.81Z" transform="translate(523.87)"/><path class="cls-4" d="M303.23,1096v-15.72h5.31a6,6,0,0,1,3,.67,4.14,4.14,0,0,1,1.75,1.79,5.48,5.48,0,0,1,.57,2.51,5.57,5.57,0,0,1-.57,2.53,4.19,4.19,0,0,1-1.73,1.81,6,6,0,0,1-3,.67h-3.81v-1.69h3.75a4.1,4.1,0,0,0,2-.44,2.58,2.58,0,0,0,1.11-1.18,3.89,3.89,0,0,0,.36-1.7,3.8,3.8,0,0,0-.36-1.68,2.49,2.49,0,0,0-1.12-1.17,4.16,4.16,0,0,0-2-.43h-3.35v14Zm13,0v-11.79H318V1086h.12a2.83,2.83,0,0,1,1.17-1.42,3.43,3.43,0,0,1,1.9-.54h.5l.45,0v1.84l-.42-.07a3.75,3.75,0,0,0-.68,0,3.21,3.21,0,0,0-1.54.36,2.62,2.62,0,0,0-1.44,2.4V1096Zm12,.25a5,5,0,0,1-4.68-2.89,7.27,7.27,0,0,1-.66-3.19,7.38,7.38,0,0,1,.66-3.22,5.32,5.32,0,0,1,7.47-2.13A5,5,0,0,1,333,1087a7.24,7.24,0,0,1,.68,3.22,7.13,7.13,0,0,1-.68,3.19,5,5,0,0,1-4.66,2.89Zm0-1.63a3.11,3.11,0,0,0,2-.62,3.62,3.62,0,0,0,1.16-1.64,6.26,6.26,0,0,0,.38-2.19,6.37,6.37,0,0,0-.38-2.21,3.65,3.65,0,0,0-1.16-1.65,3.47,3.47,0,0,0-4,0,3.73,3.73,0,0,0-1.16,1.65,6.37,6.37,0,0,0-.37,2.21,6.26,6.26,0,0,0,.37,2.19,3.7,3.7,0,0,0,1.16,1.64A3.14,3.14,0,0,0,328.31,1094.62Zm12.92-10.41v1.54h-6.35v-1.54ZM336.78,1096v-13.42a2.83,2.83,0,0,1,.48-1.68,2.91,2.91,0,0,1,1.23-1,4,4,0,0,1,1.61-.34,4.69,4.69,0,0,1,1.09.11,4.34,4.34,0,0,1,.63.2l-.53,1.57-.38-.12a2.61,2.61,0,0,0-.63-.07,1.63,1.63,0,0,0-1.3.46,2,2,0,0,0-.39,1.32v13Zm6.56,0v-11.79h1.81V1096Zm.92-13.75a1.28,1.28,0,0,1-.91-.36,1.18,1.18,0,0,1-.38-.87,1.17,1.17,0,0,1,.38-.87,1.33,1.33,0,0,1,1.82,0,1.17,1.17,0,0,1,.38.87,1.18,1.18,0,0,1-.38.87A1.28,1.28,0,0,1,344.26,1082.25Zm5.59-2V1096H348v-15.72Zm7.82,16a5.59,5.59,0,0,1-2.94-.76,5.1,5.1,0,0,1-1.89-2.11,7.26,7.26,0,0,1-.66-3.18,7.38,7.38,0,0,1,.66-3.2,5.24,5.24,0,0,1,1.86-2.16,5,5,0,0,1,2.79-.78,5.69,5.69,0,0,1,1.82.3,4.68,4.68,0,0,1,1.64,1,4.81,4.81,0,0,1,1.17,1.81,7.79,7.79,0,0,1,.44,2.78v.77h-9.09v-1.57h7.24a4,4,0,0,0-.39-1.78,3.1,3.1,0,0,0-1.12-1.23,3.46,3.46,0,0,0-3.58.08,3.58,3.58,0,0,0-1.21,1.38,4.1,4.1,0,0,0-.42,1.83v1a5,5,0,0,0,.46,2.27,3.33,3.33,0,0,0,1.3,1.4,3.75,3.75,0,0,0,1.92.48,4,4,0,0,0,1.29-.2,2.67,2.67,0,0,0,1.66-1.64l1.75.49a3.78,3.78,0,0,1-.93,1.56,4.41,4.41,0,0,1-1.61,1.05A6.11,6.11,0,0,1,357.67,1096.25Zm15.56-9.4-1.63.46a3,3,0,0,0-.45-.79,2.16,2.16,0,0,0-.8-.64,2.89,2.89,0,0,0-1.3-.26,3.11,3.11,0,0,0-1.8.5,1.47,1.47,0,0,0-.71,1.25,1.29,1.29,0,0,0,.49,1.07,4.09,4.09,0,0,0,1.53.65l1.75.43a4.85,4.85,0,0,1,2.36,1.18,2.72,2.72,0,0,1,.78,2,3,3,0,0,1-.59,1.82,3.89,3.89,0,0,1-1.61,1.26,6,6,0,0,1-2.41.46,5.34,5.34,0,0,1-3-.79,3.48,3.48,0,0,1-1.49-2.28l1.72-.43a2.33,2.33,0,0,0,.93,1.42,3.09,3.09,0,0,0,1.8.48,3.37,3.37,0,0,0,2-.54,1.58,1.58,0,0,0,.75-1.3,1.35,1.35,0,0,0-.43-1,2.71,2.71,0,0,0-1.32-.63l-2-.46a4.67,4.67,0,0,1-2.38-1.19,3.1,3.1,0,0,1-.19-3.8,3.91,3.91,0,0,1,1.54-1.21,5.43,5.43,0,0,1,2.22-.43,4.41,4.41,0,0,1,2.75.76A4.18,4.18,0,0,1,373.23,1086.85Zm11.63,9.43a4.69,4.69,0,0,1-2-.43,3.41,3.41,0,0,1-1.45-1.23,3.48,3.48,0,0,1-.54-2,3.09,3.09,0,0,1,.4-1.64,2.86,2.86,0,0,1,1.07-1,5.35,5.35,0,0,1,1.47-.53c.55-.13,1.09-.22,1.64-.3.71-.09,1.29-.16,1.74-.2a2.56,2.56,0,0,0,1-.26.64.64,0,0,0,.32-.61v-.06a2.43,2.43,0,0,0-.62-1.77,2.5,2.5,0,0,0-1.87-.63,3.24,3.24,0,0,0-2,.57,3.39,3.39,0,0,0-1,1.21l-1.72-.61a4.14,4.14,0,0,1,1.23-1.67,4.57,4.57,0,0,1,1.69-.85,7.15,7.15,0,0,1,1.81-.24,6.49,6.49,0,0,1,1.3.14,4,4,0,0,1,1.44.54,3.2,3.2,0,0,1,1.16,1.25,4.64,4.64,0,0,1,.46,2.24V1096h-1.81v-1.6h-.09a3.21,3.21,0,0,1-.62.82,3.59,3.59,0,0,1-1.14.75A4.51,4.51,0,0,1,384.86,1096.28Zm.27-1.63a3.59,3.59,0,0,0,1.81-.42,2.87,2.87,0,0,0,1.12-1.09,2.78,2.78,0,0,0,.39-1.41v-1.66a1.07,1.07,0,0,1-.51.26c-.26.07-.55.13-.89.19l-1,.14-.76.09a6.54,6.54,0,0,0-1.32.3,2.17,2.17,0,0,0-1,.61,1.56,1.56,0,0,0-.37,1.09,1.62,1.62,0,0,0,.7,1.42A3.12,3.12,0,0,0,385.13,1094.65Zm9.81-5.74V1096h-1.81v-11.79h1.75v1.84H395a3.25,3.25,0,0,1,1.26-1.44,3.87,3.87,0,0,1,2.18-.55,4.27,4.27,0,0,1,2.09.49A3.33,3.33,0,0,1,402,1086a5.55,5.55,0,0,1,.5,2.49V1096h-1.82v-7.37a3,3,0,0,0-.72-2.16,2.57,2.57,0,0,0-2-.79,3.2,3.2,0,0,0-1.55.38,2.68,2.68,0,0,0-1.06,1.1A3.62,3.62,0,0,0,394.94,1088.91Zm14.86,7.34a4.62,4.62,0,0,1-2.61-.75,5,5,0,0,1-1.76-2.12,8.5,8.5,0,0,1,0-6.47,4.92,4.92,0,0,1,1.77-2.11,4.73,4.73,0,0,1,2.63-.74,3.69,3.69,0,0,1,1.81.38,3,3,0,0,1,1,.86c.24.32.43.58.56.78h.16v-5.8h1.81V1096h-1.75v-1.81h-.22c-.13.21-.32.48-.56.81a3.51,3.51,0,0,1-1.06.87A3.74,3.74,0,0,1,409.8,1096.25Zm.24-1.63a3,3,0,0,0,1.84-.57,3.53,3.53,0,0,0,1.15-1.59,6.54,6.54,0,0,0,.39-2.35,6.28,6.28,0,0,0-.39-2.31,3.33,3.33,0,0,0-1.13-1.56,3.37,3.37,0,0,0-3.78,0,3.46,3.46,0,0,0-1.14,1.58,6.86,6.86,0,0,0,0,4.53,3.69,3.69,0,0,0,1.15,1.63A3,3,0,0,0,410,1094.62Zm-115.55,26.66h2.28l5.34,13h.18l5.34-13h2.27V1137h-1.78v-11.94H308L303.06,1137h-1.72l-4.91-11.94h-.16V1137h-1.78Zm22,16a4.68,4.68,0,0,1-2-.43,3.41,3.41,0,0,1-1.45-1.23,3.48,3.48,0,0,1-.54-2,3,3,0,0,1,.4-1.64,2.86,2.86,0,0,1,1.07-1,5.24,5.24,0,0,1,1.47-.53c.54-.13,1.09-.22,1.64-.3.71-.09,1.29-.16,1.74-.2a2.56,2.56,0,0,0,1-.26.64.64,0,0,0,.32-.61v-.06a2.39,2.39,0,0,0-.63-1.77,2.49,2.49,0,0,0-1.86-.63,3.27,3.27,0,0,0-2,.57,3.35,3.35,0,0,0-1,1.21l-1.72-.61a4.14,4.14,0,0,1,1.23-1.67,4.53,4.53,0,0,1,1.68-.85,7.23,7.23,0,0,1,1.82-.24,6.56,6.56,0,0,1,1.3.14,4,4,0,0,1,1.44.54,3.28,3.28,0,0,1,1.16,1.25,4.76,4.76,0,0,1,.46,2.24V1137h-1.81v-1.6H320a3.15,3.15,0,0,1-.61.82,3.59,3.59,0,0,1-1.14.75A4.53,4.53,0,0,1,316.51,1137.28Zm.28-1.63a3.59,3.59,0,0,0,1.81-.42,2.87,2.87,0,0,0,1.12-1.09,2.78,2.78,0,0,0,.39-1.41v-1.66a1.07,1.07,0,0,1-.51.26c-.26.07-.55.13-.89.19l-1,.14-.76.09a6.7,6.7,0,0,0-1.32.3,2.19,2.19,0,0,0-1,.61,1.52,1.52,0,0,0-.37,1.09,1.62,1.62,0,0,0,.7,1.42A3.12,3.12,0,0,0,316.79,1135.65Zm8,1.35v-11.79h1.75V1127h.12a2.88,2.88,0,0,1,1.17-1.42,3.45,3.45,0,0,1,1.9-.54h.5l.45,0v1.84l-.42-.07a3.69,3.69,0,0,0-.68,0,3.17,3.17,0,0,0-1.53.36,2.73,2.73,0,0,0-1.07,1,2.69,2.69,0,0,0-.38,1.42V1137Zm9.3-4.3,0-2.24h.37l5.15-5.25h2.25l-5.5,5.56h-.15Zm-1.69,4.3v-15.72h1.81V1137Zm7.49,0-4.6-5.83,1.29-1.26,5.61,7.09Zm8.29.25a5.59,5.59,0,0,1-2.94-.76,5,5,0,0,1-1.89-2.11,7.26,7.26,0,0,1-.66-3.18,7.38,7.38,0,0,1,.66-3.2,5.22,5.22,0,0,1,1.85-2.16,5,5,0,0,1,2.8-.78,5.74,5.74,0,0,1,1.82.3,4.55,4.55,0,0,1,1.63,1,5,5,0,0,1,1.18,1.81,7.81,7.81,0,0,1,.43,2.78v.77H344v-1.57h7.24a3.82,3.82,0,0,0-.4-1.78,3,3,0,0,0-1.12-1.23,3.15,3.15,0,0,0-1.7-.46,3.27,3.27,0,0,0-1.88.54,3.56,3.56,0,0,0-1.2,1.38,4.1,4.1,0,0,0-.42,1.83v1a5,5,0,0,0,.46,2.27,3.27,3.27,0,0,0,1.3,1.4,3.75,3.75,0,0,0,1.92.48,4,4,0,0,0,1.29-.2,2.67,2.67,0,0,0,1.66-1.64l1.75.49a3.78,3.78,0,0,1-.93,1.56,4.41,4.41,0,0,1-1.61,1.05A6.11,6.11,0,0,1,348.18,1137.25Zm12.33-12v1.54H354.4v-1.54Zm-4.33-2.82H358v11.23a2.32,2.32,0,0,0,.22,1.15,1.18,1.18,0,0,0,.58.51,2.42,2.42,0,0,0,.76.12,3.28,3.28,0,0,0,.49,0l.31-.06.37,1.63-.52.14a3.89,3.89,0,0,1-.83.07,3.67,3.67,0,0,1-1.51-.33,3,3,0,0,1-1.21-1,2.88,2.88,0,0,1-.48-1.71Zm6.63,19v-16.21h1.75v1.87h.21c.13-.2.32-.46.55-.78a3.32,3.32,0,0,1,1-.86,3.78,3.78,0,0,1,1.83-.38,4.7,4.7,0,0,1,2.62.74,5,5,0,0,1,1.78,2.11,8.62,8.62,0,0,1,0,6.47,5.09,5.09,0,0,1-1.77,2.12,4.59,4.59,0,0,1-2.6.75,3.79,3.79,0,0,1-1.82-.38,3.34,3.34,0,0,1-1.05-.87q-.37-.49-.57-.81h-.15v6.23Zm1.78-10.31a6.54,6.54,0,0,0,.39,2.35,3.51,3.51,0,0,0,1.14,1.59,3.28,3.28,0,0,0,3.74,0,3.62,3.62,0,0,0,1.15-1.63,6.86,6.86,0,0,0,0-4.53,3.39,3.39,0,0,0-1.14-1.58,3.35,3.35,0,0,0-3.77,0,3.42,3.42,0,0,0-1.14,1.56A6.29,6.29,0,0,0,364.59,1131.11Zm12.77-9.83V1137h-1.82v-15.72Zm6.35,16a4.64,4.64,0,0,1-2-.43,3.36,3.36,0,0,1-1.45-1.23,3.48,3.48,0,0,1-.54-2,3,3,0,0,1,.4-1.64,2.83,2.83,0,0,1,1.06-1,5.42,5.42,0,0,1,1.48-.53c.54-.13,1.08-.22,1.63-.3.72-.09,1.3-.16,1.75-.2a2.67,2.67,0,0,0,1-.26.63.63,0,0,0,.31-.61v-.06a2.39,2.39,0,0,0-.62-1.77,2.49,2.49,0,0,0-1.86-.63,3.26,3.26,0,0,0-2,.57,3.49,3.49,0,0,0-1,1.21l-1.71-.61a4,4,0,0,1,1.22-1.67,4.57,4.57,0,0,1,1.69-.85,7.21,7.21,0,0,1,1.81-.24,6.58,6.58,0,0,1,1.31.14,4,4,0,0,1,1.43.54,3.13,3.13,0,0,1,1.16,1.25,4.64,4.64,0,0,1,.46,2.24V1137H387.3v-1.6h-.09a3.15,3.15,0,0,1-.61.82,3.53,3.53,0,0,1-1.15.75A4.44,4.44,0,0,1,383.71,1137.28Zm.28-1.63a3.62,3.62,0,0,0,1.81-.42,2.94,2.94,0,0,0,1.12-1.09,2.87,2.87,0,0,0,.38-1.41v-1.66a1,1,0,0,1-.5.26c-.26.07-.56.13-.9.19l-1,.14-.76.09a6.7,6.7,0,0,0-1.32.3,2.19,2.19,0,0,0-1,.61,1.52,1.52,0,0,0-.37,1.09,1.6,1.6,0,0,0,.7,1.42A3.12,3.12,0,0,0,384,1135.65Zm12.79,1.6a5,5,0,0,1-4.7-2.94,7.34,7.34,0,0,1-.65-3.14,7.08,7.08,0,0,1,.67-3.17,5.22,5.22,0,0,1,1.85-2.16,5,5,0,0,1,2.8-.78,5.25,5.25,0,0,1,2.24.46,4.15,4.15,0,0,1,1.63,1.29,3.91,3.91,0,0,1,.79,1.93H399.6a2.81,2.81,0,0,0-.92-1.43,2.74,2.74,0,0,0-1.9-.63,3.17,3.17,0,0,0-1.86.56,3.55,3.55,0,0,0-1.24,1.54,5.77,5.77,0,0,0-.43,2.33,5.94,5.94,0,0,0,.43,2.37,3.7,3.7,0,0,0,1.22,1.58,3.23,3.23,0,0,0,1.88.56,3.14,3.14,0,0,0,1.28-.25,2.63,2.63,0,0,0,1-.7,2.67,2.67,0,0,0,.57-1.11h1.81a4.1,4.1,0,0,1-.76,1.88,4.31,4.31,0,0,1-1.59,1.32A5.1,5.1,0,0,1,396.78,1137.25Zm11.79,0a5.57,5.57,0,0,1-2.94-.76,5,5,0,0,1-1.89-2.11,7.26,7.26,0,0,1-.66-3.18,7.38,7.38,0,0,1,.66-3.2,5.22,5.22,0,0,1,1.85-2.16,5,5,0,0,1,2.8-.78,5.74,5.74,0,0,1,1.82.3,4.64,4.64,0,0,1,1.63,1,5,5,0,0,1,1.18,1.81,7.81,7.81,0,0,1,.43,2.78v.77h-9.09v-1.57h7.25a3.82,3.82,0,0,0-.4-1.78,3,3,0,0,0-1.12-1.23,3.15,3.15,0,0,0-1.7-.46,3.27,3.27,0,0,0-1.88.54,3.56,3.56,0,0,0-1.2,1.38,4.1,4.1,0,0,0-.42,1.83v1a5,5,0,0,0,.46,2.27,3.31,3.31,0,0,0,1.29,1.4,3.81,3.81,0,0,0,1.93.48,4,4,0,0,0,1.29-.2,2.76,2.76,0,0,0,1-.62,2.79,2.79,0,0,0,.65-1l1.75.49a4,4,0,0,1-.93,1.56,4.5,4.5,0,0,1-1.61,1.05A6.11,6.11,0,0,1,408.57,1137.25Zm15.56-9.4-1.63.46a3,3,0,0,0-.45-.79,2.24,2.24,0,0,0-.8-.64,2.89,2.89,0,0,0-1.3-.26,3.11,3.11,0,0,0-1.8.5,1.48,1.48,0,0,0-.72,1.25,1.32,1.32,0,0,0,.49,1.07,4.07,4.07,0,0,0,1.54.65l1.75.43a4.89,4.89,0,0,1,2.36,1.18,2.75,2.75,0,0,1,.77,2,3,3,0,0,1-.58,1.82,3.89,3.89,0,0,1-1.61,1.26,6,6,0,0,1-2.41.46,5.32,5.32,0,0,1-3-.79,3.46,3.46,0,0,1-1.5-2.28l1.72-.43a2.42,2.42,0,0,0,.93,1.42,3.1,3.1,0,0,0,1.81.48,3.37,3.37,0,0,0,2-.54,1.58,1.58,0,0,0,.75-1.3,1.35,1.35,0,0,0-.43-1,2.81,2.81,0,0,0-1.32-.63l-2-.46a4.63,4.63,0,0,1-2.37-1.19,2.84,2.84,0,0,1-.76-2,2.94,2.94,0,0,1,.56-1.77,3.94,3.94,0,0,1,1.55-1.21,5.4,5.4,0,0,1,2.22-.43,4.43,4.43,0,0,1,2.75.76A4.18,4.18,0,0,1,424.13,1127.85Z" transform="translate(523.87)"/><rect class="cls-3" x="831.87" y="932" width="93.79" height="93.79" rx="27.02"/><rect class="cls-5" x="861.17" y="961.31" width="33.71" height="33.71" rx="13.51"/><path class="cls-3" d="M981.46,653a1.76,1.76,0,0,0-.69-1.31,2.68,2.68,0,0,0-1.71-.47,3.38,3.38,0,0,0-1.23.19,1.58,1.58,0,0,0-.73.53,1.27,1.27,0,0,0-.26.76,1.16,1.16,0,0,0,.14.62,1.47,1.47,0,0,0,.46.47,3.64,3.64,0,0,0,.74.36,8.87,8.87,0,0,0,1,.27l1.35.3a9.48,9.48,0,0,1,2,.68,5.83,5.83,0,0,1,1.51,1,3.89,3.89,0,0,1,.93,1.35,4.56,4.56,0,0,1,.32,1.7,4.49,4.49,0,0,1-.75,2.56,4.7,4.7,0,0,1-2.14,1.63,8.88,8.88,0,0,1-3.36.57,9.28,9.28,0,0,1-3.44-.59,4.88,4.88,0,0,1-2.28-1.8,5.42,5.42,0,0,1-.83-3h3.64a2.38,2.38,0,0,0,.4,1.26,2.19,2.19,0,0,0,1,.77,4,4,0,0,0,1.48.26,3.58,3.58,0,0,0,1.3-.21,1.93,1.93,0,0,0,.84-.57,1.44,1.44,0,0,0,.3-.85,1.2,1.2,0,0,0-.28-.76,2.14,2.14,0,0,0-.83-.55,9.18,9.18,0,0,0-1.41-.44l-1.64-.38a7.16,7.16,0,0,1-3.22-1.51,3.63,3.63,0,0,1-1.17-2.84,4.23,4.23,0,0,1,.79-2.56,5.16,5.16,0,0,1,2.18-1.71,7.89,7.89,0,0,1,3.19-.61,7.41,7.41,0,0,1,3.17.62,4.92,4.92,0,0,1,2.1,1.72,4.7,4.7,0,0,1,.75,2.58Zm10.62,11.23a6.3,6.3,0,0,1-3.19-.76,5.26,5.26,0,0,1-2-2.13,6.79,6.79,0,0,1-.71-3.19,6.72,6.72,0,0,1,.71-3.18,5.14,5.14,0,0,1,2-2.13,7,7,0,0,1,6.38,0,5.08,5.08,0,0,1,2.05,2.13,6.72,6.72,0,0,1,.72,3.18,6.79,6.79,0,0,1-.72,3.19,5.19,5.19,0,0,1-2.05,2.13A6.3,6.3,0,0,1,992.08,664.22Zm0-2.83a1.68,1.68,0,0,0,1.14-.41,2.6,2.6,0,0,0,.71-1.15,5.79,5.79,0,0,0,0-3.43,2.6,2.6,0,0,0-.71-1.15,1.63,1.63,0,0,0-1.14-.41,1.76,1.76,0,0,0-1.19.41,2.61,2.61,0,0,0-.72,1.15,6,6,0,0,0,0,3.43,2.61,2.61,0,0,0,.72,1.15A1.81,1.81,0,0,0,992.11,661.39Zm12.71,2.83a6.32,6.32,0,0,1-3.2-.76,5.28,5.28,0,0,1-2-2.14,7.45,7.45,0,0,1,0-6.35,5.28,5.28,0,0,1,2-2.14,6.23,6.23,0,0,1,3.19-.77,6.37,6.37,0,0,1,2.85.59,4.54,4.54,0,0,1,1.9,1.67,4.88,4.88,0,0,1,.73,2.53h-3.51a2.3,2.3,0,0,0-.61-1.42,1.73,1.73,0,0,0-1.31-.52,1.83,1.83,0,0,0-1.14.37,2.37,2.37,0,0,0-.77,1.07,5,5,0,0,0-.27,1.75,5.07,5.07,0,0,0,.27,1.77,2.35,2.35,0,0,0,.77,1.08,1.89,1.89,0,0,0,1.14.36,1.78,1.78,0,0,0,1.59-.87,2.45,2.45,0,0,0,.33-1.06h3.51a5.18,5.18,0,0,1-.73,2.55,4.54,4.54,0,0,1-1.88,1.69A6.35,6.35,0,0,1,1004.82,664.22Zm6.74-.22V652.21h3.75V664Zm1.88-13.16a2,2,0,0,1-1.36-.52,1.69,1.69,0,0,1-.56-1.28,1.64,1.64,0,0,1,.56-1.26,2,2,0,0,1,2.72,0,1.65,1.65,0,0,1,.57,1.26,1.69,1.69,0,0,1-.57,1.28A2,2,0,0,1,1013.44,650.84Zm6.94,13.36a5,5,0,0,1-2-.38,3.11,3.11,0,0,1-1.38-1.15,3.52,3.52,0,0,1-.5-1.94,3.64,3.64,0,0,1,.35-1.66,3.06,3.06,0,0,1,.95-1.1,4.37,4.37,0,0,1,1.4-.63,8.75,8.75,0,0,1,1.69-.3c.67-.06,1.21-.13,1.61-.19a2.53,2.53,0,0,0,.9-.3.67.67,0,0,0,.28-.56v0a1.12,1.12,0,0,0-.41-.92,1.73,1.73,0,0,0-1.1-.32,2,2,0,0,0-1.19.32,1.46,1.46,0,0,0-.58.9l-3.46-.13a4.18,4.18,0,0,1,.79-1.92,4.32,4.32,0,0,1,1.77-1.33,6.7,6.7,0,0,1,2.71-.49,7.64,7.64,0,0,1,2.08.27,5.22,5.22,0,0,1,1.65.76,3.54,3.54,0,0,1,1.09,1.23,3.49,3.49,0,0,1,.39,1.67v8h-3.53v-1.64h-.09a3.47,3.47,0,0,1-.8,1,3.28,3.28,0,0,1-1.15.62A4.74,4.74,0,0,1,1020.38,664.2Zm1.16-2.46a2.42,2.42,0,0,0,1.09-.24,2.06,2.06,0,0,0,.78-.68,1.81,1.81,0,0,0,.29-1v-1.12a2.45,2.45,0,0,1-.39.15,4.93,4.93,0,0,1-.49.13l-.55.11-.55.08a3.42,3.42,0,0,0-.9.27,1.32,1.32,0,0,0-.57.46,1.09,1.09,0,0,0-.19.66,1,1,0,0,0,.41.89A1.8,1.8,0,0,0,1021.54,661.74Zm11.28-13.46V664h-3.75V648.28Zm16.06,5.14a2.82,2.82,0,0,0-.39-.86,2.32,2.32,0,0,0-.62-.63,2.71,2.71,0,0,0-.84-.4,3.87,3.87,0,0,0-1-.13,3.33,3.33,0,0,0-3.26,2.16,6.48,6.48,0,0,0-.45,2.56,6.86,6.86,0,0,0,.43,2.58,3.55,3.55,0,0,0,1.27,1.62,3.45,3.45,0,0,0,2,.56,4.24,4.24,0,0,0,1.77-.33,2.51,2.51,0,0,0,1.1-1,2.83,2.83,0,0,0,.38-1.48l.7.08h-3.82V655.4h6.78v2.08a6.92,6.92,0,0,1-.9,3.62,6,6,0,0,1-2.45,2.31,7.69,7.69,0,0,1-3.59.81,7.79,7.79,0,0,1-4-1,6.79,6.79,0,0,1-2.66-2.78,9.19,9.19,0,0,1-.95-4.3,9.38,9.38,0,0,1,.58-3.43,7.38,7.38,0,0,1,1.6-2.55,7,7,0,0,1,2.4-1.58,7.91,7.91,0,0,1,2.94-.53,8,8,0,0,1,2.54.39,6.89,6.89,0,0,1,2.08,1.1,5.72,5.72,0,0,1,1.48,1.7,5.46,5.46,0,0,1,.71,2.16Zm5.6,10.58V652.21h3.65v2.15h.12a3.09,3.09,0,0,1,1-1.73,2.63,2.63,0,0,1,1.7-.58,3.23,3.23,0,0,1,.53,0,2.66,2.66,0,0,1,.52.1v3.26a4.11,4.11,0,0,0-.71-.15,7.42,7.42,0,0,0-.77,0,2.43,2.43,0,0,0-1.2.3,2.2,2.2,0,0,0-.84.82,2.44,2.44,0,0,0-.3,1.23V664Zm11.33.2a5,5,0,0,1-2-.38,3.11,3.11,0,0,1-1.38-1.15,3.52,3.52,0,0,1-.5-1.94,3.64,3.64,0,0,1,.35-1.66,3.06,3.06,0,0,1,1-1.1,4.37,4.37,0,0,1,1.4-.63,8.75,8.75,0,0,1,1.69-.3c.67-.06,1.21-.13,1.62-.19a2.54,2.54,0,0,0,.89-.3.65.65,0,0,0,.28-.56v0a1.12,1.12,0,0,0-.41-.92,1.72,1.72,0,0,0-1.09-.32,2.05,2.05,0,0,0-1.2.32,1.46,1.46,0,0,0-.58.9l-3.46-.13a4.18,4.18,0,0,1,.79-1.92,4.32,4.32,0,0,1,1.77-1.33,6.7,6.7,0,0,1,2.71-.49,7.64,7.64,0,0,1,2.08.27,5.22,5.22,0,0,1,1.65.76,3.54,3.54,0,0,1,1.09,1.23,3.49,3.49,0,0,1,.4,1.67v8h-3.54v-1.64h-.09a3.47,3.47,0,0,1-.8,1,3.28,3.28,0,0,1-1.15.62A4.74,4.74,0,0,1,1065.81,664.2Zm1.16-2.46a2.42,2.42,0,0,0,1.09-.24,2,2,0,0,0,.78-.68,1.74,1.74,0,0,0,.29-1v-1.12a2.13,2.13,0,0,1-.39.15,4.93,4.93,0,0,1-.49.13l-.55.11-.55.08a3.42,3.42,0,0,0-.9.27,1.32,1.32,0,0,0-.57.46,1.09,1.09,0,0,0-.19.66,1.07,1.07,0,0,0,.41.89A1.8,1.8,0,0,0,1067,661.74Zm7.53,6.68V652.21h3.72v2h.11a4.48,4.48,0,0,1,.65-1,3.34,3.34,0,0,1,1.09-.81,3.6,3.6,0,0,1,1.6-.32,4.39,4.39,0,0,1,2.3.64,4.61,4.61,0,0,1,1.73,2,9.17,9.17,0,0,1,0,6.78,4.56,4.56,0,0,1-1.7,2,4.34,4.34,0,0,1-2.37.68,3.86,3.86,0,0,1-1.55-.29,3.35,3.35,0,0,1-1.09-.77,3.87,3.87,0,0,1-.68-1h-.07v6.33Zm3.68-10.32a4.87,4.87,0,0,0,.25,1.66,2.48,2.48,0,0,0,.75,1.1,1.81,1.81,0,0,0,1.17.38,1.79,1.79,0,0,0,1.17-.38,2.3,2.3,0,0,0,.73-1.1,4.86,4.86,0,0,0,.26-1.66,4.74,4.74,0,0,0-.26-1.64,2.27,2.27,0,0,0-.73-1.09,1.81,1.81,0,0,0-1.17-.38,1.84,1.84,0,0,0-1.17.37,2.41,2.41,0,0,0-.75,1.08A4.87,4.87,0,0,0,1078.18,658.1Zm13.25-.82V664h-3.75V648.28h3.63v6.1h.13a3.45,3.45,0,0,1,1.3-1.71,3.93,3.93,0,0,1,2.24-.61,4.08,4.08,0,0,1,2.16.55,3.67,3.67,0,0,1,1.43,1.54,5.11,5.11,0,0,1,.51,2.34V664h-3.76v-6.78a2.17,2.17,0,0,0-.49-1.53,1.78,1.78,0,0,0-1.4-.55,2,2,0,0,0-1,.26,1.74,1.74,0,0,0-.69.73A2.5,2.5,0,0,0,1091.43,657.28Z" transform="translate(523.87)"/><path class="cls-4" d="M949.31,869.21a2.41,2.41,0,0,0-1.12-1.81,4.31,4.31,0,0,0-2.41-.64,4.67,4.67,0,0,0-1.83.33,3,3,0,0,0-1.21.93,2.19,2.19,0,0,0-.43,1.34,1.94,1.94,0,0,0,.3,1.09,2.63,2.63,0,0,0,.78.74,4.84,4.84,0,0,0,1,.48,8.54,8.54,0,0,0,1,.3l1.59.43c.41.11.87.26,1.37.45a6.52,6.52,0,0,1,1.45.77,3.94,3.94,0,0,1,1.15,1.25,3.58,3.58,0,0,1,.45,1.86,4.15,4.15,0,0,1-.66,2.3,4.51,4.51,0,0,1-1.94,1.64,7.13,7.13,0,0,1-3.08.61,7.28,7.28,0,0,1-2.92-.55,4.61,4.61,0,0,1-1.93-1.52A4.27,4.27,0,0,1,940,877h2a2.44,2.44,0,0,0,.6,1.47,3.3,3.3,0,0,0,1.33.86,5.31,5.31,0,0,0,1.75.28,5.07,5.07,0,0,0,2-.36,3.41,3.41,0,0,0,1.38-1,2.41,2.41,0,0,0,.5-1.51,1.84,1.84,0,0,0-.43-1.27,3.2,3.2,0,0,0-1.16-.8,12.06,12.06,0,0,0-1.54-.54l-1.93-.55a7.25,7.25,0,0,1-2.92-1.51,3.31,3.31,0,0,1-1.07-2.57,3.82,3.82,0,0,1,.71-2.31,4.74,4.74,0,0,1,1.93-1.53,6.56,6.56,0,0,1,2.73-.55,6.44,6.44,0,0,1,2.7.54,4.63,4.63,0,0,1,1.87,1.48,3.65,3.65,0,0,1,.74,2.12Zm9.3,12a5,5,0,0,1-4.68-2.89,7.24,7.24,0,0,1-.67-3.19,7.38,7.38,0,0,1,.67-3.22,5.32,5.32,0,0,1,7.47-2.13,5,5,0,0,1,1.87,2.13,7.24,7.24,0,0,1,.68,3.22,7.1,7.1,0,0,1-.68,3.19,5,5,0,0,1-4.66,2.89Zm0-1.63a3.13,3.13,0,0,0,2-.62,3.7,3.7,0,0,0,1.16-1.64,6.22,6.22,0,0,0,.38-2.19,6.41,6.41,0,0,0-.38-2.21,3.73,3.73,0,0,0-1.16-1.65,3.47,3.47,0,0,0-4,0,3.73,3.73,0,0,0-1.16,1.65,6.41,6.41,0,0,0-.37,2.21,6.22,6.22,0,0,0,.37,2.19,3.7,3.7,0,0,0,1.16,1.64A3.14,3.14,0,0,0,958.61,879.62Zm9.48-14.34V881h-1.81V865.28Zm6.36,16a4.69,4.69,0,0,1-2-.43,3.41,3.41,0,0,1-1.45-1.23,3.48,3.48,0,0,1-.54-2,3.09,3.09,0,0,1,.4-1.64,2.93,2.93,0,0,1,1.07-1,5.47,5.47,0,0,1,1.47-.53c.55-.13,1.09-.22,1.64-.3.72-.09,1.3-.16,1.74-.2a2.56,2.56,0,0,0,1-.26.64.64,0,0,0,.32-.61v-.06a2.43,2.43,0,0,0-.62-1.77,2.5,2.5,0,0,0-1.87-.63,3.24,3.24,0,0,0-2,.57,3.48,3.48,0,0,0-1,1.21l-1.72-.61a4.14,4.14,0,0,1,1.23-1.67,4.57,4.57,0,0,1,1.69-.85,7.15,7.15,0,0,1,1.81-.24,6.65,6.65,0,0,1,1.31.14,4,4,0,0,1,1.43.54,3.2,3.2,0,0,1,1.16,1.25,4.64,4.64,0,0,1,.46,2.24V881H978v-1.6H978a3.21,3.21,0,0,1-.62.82,3.33,3.33,0,0,1-1.14.75A4.51,4.51,0,0,1,974.45,881.28Zm.27-1.63a3.59,3.59,0,0,0,1.81-.42,2.84,2.84,0,0,0,1.51-2.5v-1.65a1.18,1.18,0,0,1-.51.25c-.25.07-.55.13-.89.19l-1,.14-.76.09a6.7,6.7,0,0,0-1.32.3,2.31,2.31,0,0,0-1,.61,1.54,1.54,0,0,0-.36,1.09,1.61,1.61,0,0,0,.69,1.42A3.14,3.14,0,0,0,974.72,879.65Zm9.82-5.74V881h-1.82V869.21h1.75v1.84h.16a3.25,3.25,0,0,1,1.26-1.44,3.89,3.89,0,0,1,2.18-.55,4.27,4.27,0,0,1,2.09.49,3.27,3.27,0,0,1,1.4,1.47,5.55,5.55,0,0,1,.5,2.49V881h-1.81v-7.37a3,3,0,0,0-.72-2.16,2.6,2.6,0,0,0-2-.79,3.2,3.2,0,0,0-1.55.38,2.68,2.68,0,0,0-1.06,1.1A3.62,3.62,0,0,0,984.54,873.91Zm13.86,7.37a4.68,4.68,0,0,1-2-.43,3.41,3.41,0,0,1-1.45-1.23,3.48,3.48,0,0,1-.54-2,3.09,3.09,0,0,1,.4-1.64,2.86,2.86,0,0,1,1.07-1,5.24,5.24,0,0,1,1.47-.53c.54-.13,1.09-.22,1.64-.3.71-.09,1.29-.16,1.74-.2a2.56,2.56,0,0,0,1-.26.64.64,0,0,0,.32-.61v-.06a2.39,2.39,0,0,0-.63-1.77,2.48,2.48,0,0,0-1.86-.63,3.24,3.24,0,0,0-2,.57,3.37,3.37,0,0,0-1,1.21l-1.72-.61a4.14,4.14,0,0,1,1.23-1.67,4.57,4.57,0,0,1,1.69-.85,7.09,7.09,0,0,1,1.81-.24,6.49,6.49,0,0,1,1.3.14,4,4,0,0,1,1.44.54,3.28,3.28,0,0,1,1.16,1.25,4.76,4.76,0,0,1,.46,2.24V881H1002v-1.6h-.1a2.94,2.94,0,0,1-.61.82,3.43,3.43,0,0,1-1.14.75A4.53,4.53,0,0,1,998.4,881.28Zm.28-1.63a3.59,3.59,0,0,0,1.81-.42,2.87,2.87,0,0,0,1.12-1.09,2.78,2.78,0,0,0,.39-1.41v-1.65a1.18,1.18,0,0,1-.51.25c-.26.07-.55.13-.89.19l-1,.14-.76.09a6.7,6.7,0,0,0-1.32.3,2.28,2.28,0,0,0-1,.61,1.54,1.54,0,0,0-.37,1.09,1.62,1.62,0,0,0,.7,1.42A3.12,3.12,0,0,0,998.68,879.65Zm9.6-14.37v1.38a4.55,4.55,0,0,1-.23,1.35,5.74,5.74,0,0,1-.66,1.37,5,5,0,0,1-1,1.15l-1-.8a10.91,10.91,0,0,0,.84-1.43,3.68,3.68,0,0,0,.36-1.61v-1.41Zm8.64,6.57-1.63.46a3,3,0,0,0-.45-.79,2.07,2.07,0,0,0-.8-.64,2.84,2.84,0,0,0-1.29-.26,3.14,3.14,0,0,0-1.81.5,1.49,1.49,0,0,0-.71,1.25,1.29,1.29,0,0,0,.49,1.07,4.07,4.07,0,0,0,1.54.65l1.75.43a4.85,4.85,0,0,1,2.35,1.18,2.73,2.73,0,0,1,.78,2,3,3,0,0,1-.59,1.81,3.79,3.79,0,0,1-1.61,1.25,5.82,5.82,0,0,1-2.41.47,5.28,5.28,0,0,1-3-.79,3.45,3.45,0,0,1-1.5-2.29l1.72-.42a2.33,2.33,0,0,0,.93,1.42,3.09,3.09,0,0,0,1.8.48,3.33,3.33,0,0,0,2-.54,1.58,1.58,0,0,0,.75-1.3,1.35,1.35,0,0,0-.43-1,2.71,2.71,0,0,0-1.32-.63l-2-.46a4.71,4.71,0,0,1-2.38-1.19,3.1,3.1,0,0,1-.19-3.8,3.91,3.91,0,0,1,1.54-1.21,5.48,5.48,0,0,1,2.23-.43,4.33,4.33,0,0,1,2.74.77A4.11,4.11,0,0,1,1016.92,871.85Zm20.87-6.57V881H1036l-8.57-12.34h-.15V881h-1.91V865.28h1.85l8.59,12.37h.16V865.28Zm3.37,15.72V865.28h9.43V867h-7.52v5.31h6.81V874h-6.81v7Zm11.4-14v-1.69h11.79V867h-4.95v14h-1.9V867Zm28.54,2.24a2.44,2.44,0,0,0-1.12-1.81,4.31,4.31,0,0,0-2.41-.64,4.67,4.67,0,0,0-1.83.33,3,3,0,0,0-1.21.93,2.19,2.19,0,0,0-.43,1.34,1.94,1.94,0,0,0,.3,1.09,2.63,2.63,0,0,0,.78.74,4.84,4.84,0,0,0,1,.48,7.43,7.43,0,0,0,1,.3l1.59.43c.41.11.87.26,1.37.45a6.75,6.75,0,0,1,1.45.77,4.06,4.06,0,0,1,1.15,1.25,3.58,3.58,0,0,1,.45,1.86,4.08,4.08,0,0,1-.67,2.3,4.48,4.48,0,0,1-1.93,1.64,7.13,7.13,0,0,1-3.08.61,7.24,7.24,0,0,1-2.92-.55,4.7,4.7,0,0,1-1.94-1.52,4.45,4.45,0,0,1-.79-2.26h2a2.44,2.44,0,0,0,.6,1.47,3.3,3.3,0,0,0,1.33.86,5.31,5.31,0,0,0,1.75.28,5.07,5.07,0,0,0,2-.36,3.31,3.31,0,0,0,1.37-1,2.36,2.36,0,0,0,.51-1.51,1.85,1.85,0,0,0-.44-1.27,3.07,3.07,0,0,0-1.15-.8,12.06,12.06,0,0,0-1.54-.54l-1.94-.55a7.21,7.21,0,0,1-2.91-1.51,3.32,3.32,0,0,1-1.08-2.57,3.82,3.82,0,0,1,.72-2.31,4.67,4.67,0,0,1,1.93-1.53,6.53,6.53,0,0,1,2.73-.55,6.44,6.44,0,0,1,2.7.54,4.63,4.63,0,0,1,1.87,1.48,3.65,3.65,0,0,1,.74,2.12Zm9.29,12a5,5,0,0,1-4.67-2.89,7.1,7.1,0,0,1-.67-3.19,7.24,7.24,0,0,1,.67-3.22,5.06,5.06,0,0,1,1.87-2.13,5.54,5.54,0,0,1,5.6,0,5,5,0,0,1,1.87,2.13,7.24,7.24,0,0,1,.68,3.22,7.1,7.1,0,0,1-.68,3.19,5.11,5.11,0,0,1-1.87,2.13A5.17,5.17,0,0,1,1090.39,881.25Zm0-1.63a3.14,3.14,0,0,0,2-.62,3.7,3.7,0,0,0,1.16-1.64,6.22,6.22,0,0,0,.37-2.19,6.41,6.41,0,0,0-.37-2.21,3.73,3.73,0,0,0-1.16-1.65,3.47,3.47,0,0,0-4,0,3.73,3.73,0,0,0-1.16,1.65,6.41,6.41,0,0,0-.38,2.21,6.22,6.22,0,0,0,.38,2.19,3.7,3.7,0,0,0,1.16,1.64A3.13,3.13,0,0,0,1090.39,879.62Zm12.47,1.63a5,5,0,0,1-4.7-2.94,7.34,7.34,0,0,1-.64-3.14,7.21,7.21,0,0,1,.66-3.17,5.22,5.22,0,0,1,1.85-2.16,5,5,0,0,1,2.8-.78,5.25,5.25,0,0,1,2.24.46,4.33,4.33,0,0,1,1.63,1.29,4,4,0,0,1,.79,1.93h-1.81a2.81,2.81,0,0,0-.92-1.43,2.74,2.74,0,0,0-1.9-.63,3.17,3.17,0,0,0-1.86.56,3.55,3.55,0,0,0-1.24,1.54,5.75,5.75,0,0,0-.43,2.32,6,6,0,0,0,.43,2.38,3.64,3.64,0,0,0,1.23,1.58,3.18,3.18,0,0,0,1.87.56,3.11,3.11,0,0,0,1.28-.25,2.63,2.63,0,0,0,1-.7,2.67,2.67,0,0,0,.57-1.11h1.81a4.1,4.1,0,0,1-.76,1.88,4.27,4.27,0,0,1-1.58,1.32A5.18,5.18,0,0,1,1102.86,881.25Zm6.85-.25V869.21h1.81V881Zm.92-13.75a1.28,1.28,0,0,1-.91-.36,1.19,1.19,0,0,1,0-1.74,1.33,1.33,0,0,1,1.82,0,1.19,1.19,0,0,1,0,1.74A1.28,1.28,0,0,1,1110.63,867.25Zm7.25,14a4.69,4.69,0,0,1-2-.43,3.41,3.41,0,0,1-1.45-1.23,3.48,3.48,0,0,1-.54-2,3.09,3.09,0,0,1,.4-1.64,2.86,2.86,0,0,1,1.07-1,5.35,5.35,0,0,1,1.47-.53c.55-.13,1.09-.22,1.64-.3.71-.09,1.3-.16,1.74-.2a2.56,2.56,0,0,0,1-.26.64.64,0,0,0,.32-.61v-.06a2.43,2.43,0,0,0-.62-1.77,2.52,2.52,0,0,0-1.87-.63,3.24,3.24,0,0,0-2,.57,3.48,3.48,0,0,0-1,1.21l-1.72-.61a4.14,4.14,0,0,1,1.23-1.67,4.57,4.57,0,0,1,1.69-.85,7.15,7.15,0,0,1,1.81-.24,6.49,6.49,0,0,1,1.3.14,4,4,0,0,1,1.44.54,3.2,3.2,0,0,1,1.16,1.25,4.64,4.64,0,0,1,.46,2.24V881h-1.81v-1.6h-.09a3.21,3.21,0,0,1-.62.82,3.43,3.43,0,0,1-1.14.75A4.51,4.51,0,0,1,1117.88,881.28Zm.27-1.63a3.59,3.59,0,0,0,1.81-.42,2.87,2.87,0,0,0,1.12-1.09,2.78,2.78,0,0,0,.39-1.41v-1.65a1.18,1.18,0,0,1-.51.25c-.25.07-.55.13-.89.19l-1,.14-.76.09a6.7,6.7,0,0,0-1.32.3,2.25,2.25,0,0,0-1,.61,1.54,1.54,0,0,0-.37,1.09,1.62,1.62,0,0,0,.7,1.42A3.12,3.12,0,0,0,1118.15,879.65Zm9.81-14.37V881h-1.81V865.28Zm-167.85,41V922h-1.85l-8.56-12.34h-.16V922h-1.9V906.28h1.84l8.6,12.37h.15V906.28Zm8.07,16a5.54,5.54,0,0,1-2.94-.76,5.05,5.05,0,0,1-1.9-2.11,8,8,0,0,1,0-6.37,5.28,5.28,0,0,1,1.86-2.17,5,5,0,0,1,2.79-.78,5.65,5.65,0,0,1,1.82.3,4.59,4.59,0,0,1,1.64,1,4.81,4.81,0,0,1,1.17,1.81,7.79,7.79,0,0,1,.44,2.78v.77H964v-1.57h7.25a3.85,3.85,0,0,0-.4-1.78,3,3,0,0,0-1.12-1.23,3.16,3.16,0,0,0-1.71-.46,3.24,3.24,0,0,0-1.87.54,3.56,3.56,0,0,0-1.2,1.38,4.1,4.1,0,0,0-.43,1.83v1a5,5,0,0,0,.47,2.27,3.31,3.31,0,0,0,1.29,1.4,3.81,3.81,0,0,0,1.93.48,4,4,0,0,0,1.29-.2,2.64,2.64,0,0,0,1-.62,2.69,2.69,0,0,0,.66-1l1.75.49a4,4,0,0,1-.93,1.56,4.5,4.5,0,0,1-1.61,1A6.11,6.11,0,0,1,968.18,922.25Zm12.33-12v1.54H974.4v-1.54Zm-4.33-2.82H978v11.23a2.28,2.28,0,0,0,.23,1.15,1.1,1.1,0,0,0,.58.51,2.37,2.37,0,0,0,.76.12,3.28,3.28,0,0,0,.49,0l.31-.06.37,1.63-.52.14a3.89,3.89,0,0,1-.83.07,3.64,3.64,0,0,1-1.51-.33,3,3,0,0,1-1.21-1,2.88,2.88,0,0,1-.48-1.71ZM985.47,922l-3.59-11.79h1.91l2.54,9h.13l2.51-9h1.94l2.49,9h.12l2.55-9H998L994.38,922H992.6L990,912.94h-.19L987.26,922Zm18.85.25a5,5,0,0,1-4.67-2.89,7.1,7.1,0,0,1-.67-3.19,7.24,7.24,0,0,1,.67-3.22,5.06,5.06,0,0,1,1.87-2.13,5.11,5.11,0,0,1,2.8-.76A5,5,0,0,1,1009,913a7.24,7.24,0,0,1,.67,3.22,7.1,7.1,0,0,1-.67,3.19,5,5,0,0,1-4.67,2.89Zm0-1.63a3.16,3.16,0,0,0,2-.62,3.78,3.78,0,0,0,1.16-1.64,6.22,6.22,0,0,0,.37-2.19,6.41,6.41,0,0,0-.37-2.21,3.81,3.81,0,0,0-1.16-1.65,3.11,3.11,0,0,0-2-.63,3.06,3.06,0,0,0-2,.63,3.65,3.65,0,0,0-1.16,1.65,6.41,6.41,0,0,0-.38,2.21,6.22,6.22,0,0,0,.38,2.19,3.62,3.62,0,0,0,1.16,1.64A3.11,3.11,0,0,0,1004.32,920.62ZM1012,922V910.21h1.75V912h.12a2.81,2.81,0,0,1,1.16-1.42,3.49,3.49,0,0,1,1.91-.54h.5l.45,0v1.84l-.42-.07a3.8,3.8,0,0,0-.69-.05,3.2,3.2,0,0,0-1.53.36,2.64,2.64,0,0,0-1.06,1,2.6,2.6,0,0,0-.38,1.42V922Zm9.29-4.3,0-2.24h.37l5.16-5.25H1029l-5.5,5.56h-.15Zm-1.68,4.3V906.28h1.81V922Zm7.49,0-4.61-5.83,1.29-1.26,5.62,7.09Zm17.83-9.15-1.63.46a3,3,0,0,0-.45-.79,2.14,2.14,0,0,0-.8-.64,2.89,2.89,0,0,0-1.3-.26,3.11,3.11,0,0,0-1.8.5,1.48,1.48,0,0,0-.72,1.25,1.3,1.3,0,0,0,.5,1.07,4,4,0,0,0,1.53.65l1.75.43a4.89,4.89,0,0,1,2.36,1.18,2.76,2.76,0,0,1,.77,2,3,3,0,0,1-.58,1.81,3.85,3.85,0,0,1-1.61,1.25,5.85,5.85,0,0,1-2.41.47,5.32,5.32,0,0,1-3-.79,3.45,3.45,0,0,1-1.5-2.29l1.72-.42a2.42,2.42,0,0,0,.93,1.42,3.1,3.1,0,0,0,1.81.48,3.37,3.37,0,0,0,2-.54,1.58,1.58,0,0,0,.75-1.3,1.35,1.35,0,0,0-.43-1,2.81,2.81,0,0,0-1.32-.63l-2-.46a4.71,4.71,0,0,1-2.38-1.19,2.88,2.88,0,0,1-.75-2,2.94,2.94,0,0,1,.56-1.77,3.94,3.94,0,0,1,1.55-1.21,5.4,5.4,0,0,1,2.22-.43,4.36,4.36,0,0,1,2.75.77A4.11,4.11,0,0,1,1044.93,912.85Zm9.94,4.33v-7h1.81V922h-1.81v-2h-.13a3.77,3.77,0,0,1-1.29,1.53,3.68,3.68,0,0,1-2.21.62,4,4,0,0,1-2-.48,3.39,3.39,0,0,1-1.35-1.47,5.57,5.57,0,0,1-.49-2.5v-7.49h1.81v7.37a2.91,2.91,0,0,0,.72,2.06,2.44,2.44,0,0,0,1.86.76,3.1,3.1,0,0,0,2.55-1.4A3.2,3.2,0,0,0,1054.87,917.18Zm4.69,9.24V910.21h1.75v1.87h.22c.13-.2.31-.46.55-.78a3.21,3.21,0,0,1,1-.86,3.66,3.66,0,0,1,1.83-.38,4.64,4.64,0,0,1,2.62.74,4.92,4.92,0,0,1,1.77,2.11,8.5,8.5,0,0,1,0,6.47,5,5,0,0,1-1.76,2.12,4.59,4.59,0,0,1-2.6.75,3.76,3.76,0,0,1-1.82-.38,3.21,3.21,0,0,1-1.05-.87q-.37-.5-.57-.81h-.16v6.23Zm1.78-10.32a6.56,6.56,0,0,0,.39,2.36,3.61,3.61,0,0,0,1.15,1.59,3,3,0,0,0,1.84.57,3,3,0,0,0,1.9-.6,3.69,3.69,0,0,0,1.15-1.63,6.86,6.86,0,0,0,0-4.53,3.48,3.48,0,0,0-1.15-1.58,3,3,0,0,0-1.91-.6,3,3,0,0,0-1.86.56,3.36,3.36,0,0,0-1.13,1.55A6.32,6.32,0,0,0,1061.34,916.1Zm11,10.32V910.21h1.75v1.87h.22c.13-.2.31-.46.55-.78a3.21,3.21,0,0,1,1-.86,3.65,3.65,0,0,1,1.82-.38,4.65,4.65,0,0,1,2.63.74,4.92,4.92,0,0,1,1.77,2.11,8.5,8.5,0,0,1,0,6.47,5,5,0,0,1-1.76,2.12,4.62,4.62,0,0,1-2.61.75,3.74,3.74,0,0,1-1.81-.38,3.37,3.37,0,0,1-1.06-.87c-.24-.33-.43-.6-.56-.81h-.16v6.23Zm1.78-10.32a6.56,6.56,0,0,0,.39,2.36,3.53,3.53,0,0,0,1.15,1.59,3.27,3.27,0,0,0,3.73,0,3.63,3.63,0,0,0,1.16-1.63,6.36,6.36,0,0,0,.39-2.29,6.16,6.16,0,0,0-.39-2.24,3.39,3.39,0,0,0-1.14-1.58,3,3,0,0,0-1.91-.6,3,3,0,0,0-1.86.56,3.36,3.36,0,0,0-1.13,1.55A6.32,6.32,0,0,0,1074.08,916.1Zm15.75,6.15a5,5,0,0,1-4.68-2.89,7.24,7.24,0,0,1-.66-3.19,7.38,7.38,0,0,1,.66-3.22,5.32,5.32,0,0,1,7.47-2.13,5,5,0,0,1,1.88,2.13,7.24,7.24,0,0,1,.67,3.22,7.1,7.1,0,0,1-.67,3.19,5,5,0,0,1-4.67,2.89Zm0-1.63a3.11,3.11,0,0,0,2-.62,3.62,3.62,0,0,0,1.16-1.64,6.22,6.22,0,0,0,.38-2.19A6.41,6.41,0,0,0,1093,914a3.65,3.65,0,0,0-1.16-1.65,3.06,3.06,0,0,0-2-.63,3.11,3.11,0,0,0-2,.63,3.81,3.81,0,0,0-1.16,1.65,6.41,6.41,0,0,0-.37,2.21,6.22,6.22,0,0,0,.37,2.19,3.78,3.78,0,0,0,1.16,1.64A3.16,3.16,0,0,0,1089.83,920.62Zm7.67,1.38V910.21h1.75V912h.13a2.81,2.81,0,0,1,1.16-1.42,3.49,3.49,0,0,1,1.91-.54h.5l.45,0v1.84l-.42-.07a3.87,3.87,0,0,0-.69-.05,3.2,3.2,0,0,0-1.53.36,2.64,2.64,0,0,0-1.06,1,2.6,2.6,0,0,0-.38,1.42V922ZM1111,910.21v1.54h-6.11v-1.54Zm-4.33-2.82h1.81v11.23a2.41,2.41,0,0,0,.22,1.15,1.15,1.15,0,0,0,.59.51,2.37,2.37,0,0,0,.76.12,3.28,3.28,0,0,0,.49,0l.31-.06.36,1.63c-.12,0-.29.09-.51.14a3.93,3.93,0,0,1-.84.07,3.63,3.63,0,0,1-1.5-.33,2.93,2.93,0,0,1-1.21-1,2.88,2.88,0,0,1-.48-1.71Zm14.76,5.46-1.63.46a3,3,0,0,0-.45-.79,2.07,2.07,0,0,0-.8-.64,2.84,2.84,0,0,0-1.29-.26,3.12,3.12,0,0,0-1.81.5,1.49,1.49,0,0,0-.71,1.25,1.29,1.29,0,0,0,.49,1.07,4.09,4.09,0,0,0,1.53.65l1.75.43a4.85,4.85,0,0,1,2.36,1.18,2.73,2.73,0,0,1,.78,2,3,3,0,0,1-.59,1.81,3.79,3.79,0,0,1-1.61,1.25,5.82,5.82,0,0,1-2.41.47,5.28,5.28,0,0,1-3-.79,3.45,3.45,0,0,1-1.5-2.29l1.72-.42a2.33,2.33,0,0,0,.93,1.42,3.09,3.09,0,0,0,1.8.48,3.37,3.37,0,0,0,2-.54,1.58,1.58,0,0,0,.75-1.3,1.35,1.35,0,0,0-.43-1,2.71,2.71,0,0,0-1.32-.63l-2-.46a4.71,4.71,0,0,1-2.38-1.19,3.1,3.1,0,0,1-.19-3.8,3.91,3.91,0,0,1,1.54-1.21,5.44,5.44,0,0,1,2.23-.43,4.33,4.33,0,0,1,2.74.77A4.11,4.11,0,0,1,1121.41,912.85Zm-170.7,37.36v1.54h-6.36v-1.54ZM946.26,962V948.58a2.8,2.8,0,0,1,.47-1.68,3,3,0,0,1,1.24-1,4,4,0,0,1,1.6-.34,4.57,4.57,0,0,1,1.09.11,4.34,4.34,0,0,1,.63.2l-.52,1.57-.38-.12a2.61,2.61,0,0,0-.63-.07,1.63,1.63,0,0,0-1.3.46,2,2,0,0,0-.39,1.32v13Zm10.86.25a5.17,5.17,0,0,1-2.8-.76,5.27,5.27,0,0,1-1.88-2.13,7.24,7.24,0,0,1-.66-3.19,7.38,7.38,0,0,1,.66-3.22,5.15,5.15,0,0,1,1.88-2.13,5.52,5.52,0,0,1,5.59,0,4.93,4.93,0,0,1,1.87,2.13,7.24,7.24,0,0,1,.68,3.22,7.1,7.1,0,0,1-.68,3.19,5,5,0,0,1-1.87,2.13A5.16,5.16,0,0,1,957.12,962.25Zm0-1.63a3.11,3.11,0,0,0,2-.62,3.62,3.62,0,0,0,1.16-1.64,6.22,6.22,0,0,0,.38-2.19,6.41,6.41,0,0,0-.38-2.21,3.65,3.65,0,0,0-1.16-1.65,3.06,3.06,0,0,0-2-.63,3.11,3.11,0,0,0-2,.63A3.81,3.81,0,0,0,954,954a6.41,6.41,0,0,0-.37,2.21,6.22,6.22,0,0,0,.37,2.19,3.78,3.78,0,0,0,1.16,1.64A3.16,3.16,0,0,0,957.12,960.62Zm9.48-14.34V962h-1.81V946.28Zm4.7,0V962h-1.81V946.28Zm7.68,16a5,5,0,0,1-4.68-2.89,7.24,7.24,0,0,1-.67-3.19,7.38,7.38,0,0,1,.67-3.22,5.32,5.32,0,0,1,7.47-2.13,5,5,0,0,1,1.87,2.13,7.24,7.24,0,0,1,.68,3.22,7.1,7.1,0,0,1-.68,3.19,5,5,0,0,1-4.66,2.89Zm0-1.63a3.13,3.13,0,0,0,2-.62,3.7,3.7,0,0,0,1.16-1.64,6.22,6.22,0,0,0,.38-2.19,6.41,6.41,0,0,0-.38-2.21,3.73,3.73,0,0,0-1.16-1.65,3.47,3.47,0,0,0-4,0,3.73,3.73,0,0,0-1.16,1.65,6.41,6.41,0,0,0-.37,2.21,6.22,6.22,0,0,0,.37,2.19A3.7,3.7,0,0,0,977,960,3.14,3.14,0,0,0,979,960.62Zm9.94,1.38-3.59-11.79h1.9l2.55,9h.12l2.52-9h1.93l2.49,9H997l2.54-9h1.91L997.82,962H996l-2.57-9.06h-.19L990.7,962Zm14.46,0V950.21h1.81V962Zm.92-13.75a1.28,1.28,0,0,1-.91-.36,1.19,1.19,0,0,1,0-1.74,1.28,1.28,0,0,1,.91-.36,1.29,1.29,0,0,1,.91.36,1.19,1.19,0,0,1,0,1.74A1.29,1.29,0,0,1,1004.3,948.25Zm5.59,6.66V962h-1.81V950.21h1.75v1.84h.15a3.31,3.31,0,0,1,1.26-1.44,3.89,3.89,0,0,1,2.18-.55,4.25,4.25,0,0,1,2.09.49,3.27,3.27,0,0,1,1.4,1.47,5.55,5.55,0,0,1,.5,2.49V962h-1.81v-7.37a3,3,0,0,0-.72-2.16,2.6,2.6,0,0,0-2-.79,3.15,3.15,0,0,0-1.55.38,2.64,2.64,0,0,0-1.07,1.1A3.62,3.62,0,0,0,1009.89,954.91Zm15.16,11.76a6.85,6.85,0,0,1-2.26-.34,4.56,4.56,0,0,1-1.57-.88,4.4,4.4,0,0,1-1-1.15l1.44-1c.16.21.37.46.62.74a3.2,3.2,0,0,0,1,.73,4,4,0,0,0,1.73.31,3.83,3.83,0,0,0,2.35-.69,2.51,2.51,0,0,0,.93-2.16v-2.4h-.15c-.14.21-.33.48-.57.8a3.29,3.29,0,0,1-1,.84,3.87,3.87,0,0,1-1.82.36,5,5,0,0,1-2.57-.68,4.75,4.75,0,0,1-1.78-2,6.77,6.77,0,0,1-.66-3.13,7.35,7.35,0,0,1,.64-3.15,5,5,0,0,1,1.77-2.09,4.68,4.68,0,0,1,2.63-.74,3.66,3.66,0,0,1,1.83.38,3.25,3.25,0,0,1,1,.86l.57.78h.18v-1.87h1.75v12.13a4.12,4.12,0,0,1-.69,2.47,3.86,3.86,0,0,1-1.84,1.4A6.78,6.78,0,0,1,1025.05,966.67Zm-.07-6.48a3.32,3.32,0,0,0,1.85-.5,3.07,3.07,0,0,0,1.14-1.44,5.79,5.79,0,0,0,.39-2.24,6.24,6.24,0,0,0-.38-2.25,3.35,3.35,0,0,0-1.14-1.52,3,3,0,0,0-1.86-.56,3.11,3.11,0,0,0-1.92.59,3.65,3.65,0,0,0-1.14,1.56,6.12,6.12,0,0,0-.37,2.18,5.61,5.61,0,0,0,.38,2.17,3.07,3.07,0,0,0,3.05,2Zm17.16,2.09a4.64,4.64,0,0,1-2-.43,3.36,3.36,0,0,1-1.45-1.23,3.48,3.48,0,0,1-.54-2,3,3,0,0,1,.4-1.64,2.83,2.83,0,0,1,1.06-1,5.42,5.42,0,0,1,1.48-.53c.54-.13,1.09-.22,1.63-.3.72-.09,1.3-.16,1.75-.2a2.61,2.61,0,0,0,1-.26.63.63,0,0,0,.31-.61v-.06a2.39,2.39,0,0,0-.62-1.77,2.49,2.49,0,0,0-1.86-.63,3.26,3.26,0,0,0-2,.57,3.44,3.44,0,0,0-1,1.21l-1.72-.61a4,4,0,0,1,1.22-1.67,4.57,4.57,0,0,1,1.69-.85,7.21,7.21,0,0,1,1.81-.24,6.58,6.58,0,0,1,1.31.14,3.91,3.91,0,0,1,1.43.54,3.13,3.13,0,0,1,1.16,1.25,4.64,4.64,0,0,1,.46,2.24V962h-1.81v-1.6h-.09a3.15,3.15,0,0,1-.61.82,3.37,3.37,0,0,1-1.15.75A4.44,4.44,0,0,1,1042.14,962.28Zm.28-1.63a3.62,3.62,0,0,0,1.81-.42,2.94,2.94,0,0,0,1.12-1.09,2.87,2.87,0,0,0,.38-1.41v-1.65a1.07,1.07,0,0,1-.5.25c-.26.07-.56.13-.89.19l-1,.14-.76.09a6.7,6.7,0,0,0-1.32.3,2.28,2.28,0,0,0-1,.61,1.5,1.5,0,0,0-.37,1.09,1.6,1.6,0,0,0,.7,1.42A3.12,3.12,0,0,0,1042.42,960.65Zm9.81-5.74V962h-1.81V950.21h1.75v1.84h.15a3.38,3.38,0,0,1,1.26-1.44,3.89,3.89,0,0,1,2.18-.55,4.29,4.29,0,0,1,2.1.49,3.31,3.31,0,0,1,1.39,1.47,5.55,5.55,0,0,1,.5,2.49V962h-1.81v-7.37a3,3,0,0,0-.72-2.16,2.57,2.57,0,0,0-2-.79,3.15,3.15,0,0,0-1.55.38,2.7,2.7,0,0,0-1.07,1.1A3.62,3.62,0,0,0,1052.23,954.91Zm14.85,7.34a4.59,4.59,0,0,1-2.6-.75,5.09,5.09,0,0,1-1.77-2.12,8.62,8.62,0,0,1,0-6.47,5,5,0,0,1,1.78-2.11,4.62,4.62,0,0,1,2.62-.74,3.6,3.6,0,0,1,1.82.38,3.21,3.21,0,0,1,1,.86c.24.32.43.58.56.78h.15v-5.8h1.81V962h-1.75v-1.81h-.21q-.19.31-.57.81a3.21,3.21,0,0,1-1,.87A3.79,3.79,0,0,1,1067.08,962.25Zm.25-1.63a3,3,0,0,0,1.84-.57,3.51,3.51,0,0,0,1.14-1.59,6.56,6.56,0,0,0,.39-2.36,6.32,6.32,0,0,0-.38-2.31,3.37,3.37,0,0,0-1.14-1.55,3.35,3.35,0,0,0-3.77,0,3.48,3.48,0,0,0-1.15,1.58,6.38,6.38,0,0,0-.37,2.24,6.59,6.59,0,0,0,.38,2.29,3.77,3.77,0,0,0,1.15,1.63A3,3,0,0,0,1067.33,960.62Zm19.19-10.41v1.54h-6.36v-1.54ZM1082.07,962V948.58a2.8,2.8,0,0,1,.47-1.68,3,3,0,0,1,1.24-1,4,4,0,0,1,1.6-.34,4.57,4.57,0,0,1,1.09.11,4.34,4.34,0,0,1,.63.2l-.52,1.57-.39-.12a2.46,2.46,0,0,0-.62-.07,1.62,1.62,0,0,0-1.3.46,2,2,0,0,0-.39,1.32v13Zm11,.25a5.59,5.59,0,0,1-2.94-.76,5,5,0,0,1-1.89-2.11,8,8,0,0,1,0-6.37,5.19,5.19,0,0,1,1.85-2.17,5,5,0,0,1,2.8-.78,5.74,5.74,0,0,1,1.82.3,4.64,4.64,0,0,1,1.63,1,4.81,4.81,0,0,1,1.17,1.81A7.58,7.58,0,0,1,1098,956v.77h-9.09v-1.57h7.25a3.85,3.85,0,0,0-.4-1.78,3,3,0,0,0-1.12-1.23,3.15,3.15,0,0,0-1.7-.46,3.27,3.27,0,0,0-1.88.54,3.56,3.56,0,0,0-1.2,1.38,4.1,4.1,0,0,0-.42,1.83v1a5,5,0,0,0,.46,2.27,3.31,3.31,0,0,0,1.29,1.4,3.81,3.81,0,0,0,1.93.48,4,4,0,0,0,1.29-.2,2.76,2.76,0,0,0,1-.62,2.79,2.79,0,0,0,.65-1l1.75.49a4,4,0,0,1-.93,1.56,4.5,4.5,0,0,1-1.61,1A6.11,6.11,0,0,1,1093.08,962.25Zm12.15,0a5.54,5.54,0,0,1-2.94-.76,5.05,5.05,0,0,1-1.9-2.11,8,8,0,0,1,0-6.37,5.28,5.28,0,0,1,1.86-2.17,5,5,0,0,1,2.79-.78,5.69,5.69,0,0,1,1.82.3,4.59,4.59,0,0,1,1.64,1,4.81,4.81,0,0,1,1.17,1.81,7.79,7.79,0,0,1,.44,2.78v.77H1101v-1.57h7.25a4,4,0,0,0-.4-1.78,3,3,0,0,0-1.12-1.23,3.16,3.16,0,0,0-1.71-.46,3.24,3.24,0,0,0-1.87.54,3.56,3.56,0,0,0-1.2,1.38,4.1,4.1,0,0,0-.43,1.83v1a5.19,5.19,0,0,0,.46,2.27,3.39,3.39,0,0,0,1.3,1.4,3.79,3.79,0,0,0,1.93.48,4.06,4.06,0,0,0,1.29-.2,2.64,2.64,0,0,0,1-.62,2.81,2.81,0,0,0,.66-1l1.75.49a4,4,0,0,1-.93,1.56,4.59,4.59,0,0,1-1.61,1A6.11,6.11,0,0,1,1105.23,962.25Zm11.65,0a4.61,4.61,0,0,1-2.6-.75,5,5,0,0,1-1.76-2.12,8.5,8.5,0,0,1,0-6.47,4.92,4.92,0,0,1,1.77-2.11,4.65,4.65,0,0,1,2.63-.74,3.58,3.58,0,0,1,1.81.38,3.1,3.1,0,0,1,1,.86c.24.32.43.58.56.78h.16v-5.8h1.81V962h-1.75v-1.81h-.22c-.13.21-.32.48-.56.81a3.37,3.37,0,0,1-1.06.87A3.76,3.76,0,0,1,1116.88,962.25Zm.25-1.63a3,3,0,0,0,1.84-.57,3.53,3.53,0,0,0,1.15-1.59,6.56,6.56,0,0,0,.39-2.36,6.32,6.32,0,0,0-.39-2.31,3.36,3.36,0,0,0-1.13-1.55,3.37,3.37,0,0,0-3.78,0,3.46,3.46,0,0,0-1.14,1.58,6.86,6.86,0,0,0,0,4.53,3.69,3.69,0,0,0,1.15,1.63A3,3,0,0,0,1117.13,960.62Z" transform="translate(523.87)"/><rect class="cls-3" x="1513.87" y="718" width="93.79" height="93.79" rx="27.02"/><rect class="cls-5" x="1543.18" y="747.31" width="33.71" height="33.71" rx="13.51"/><path class="cls-3" d="M1532,176.28V192h-3.8V176.28Zm5.49,9V192h-3.75V180.21h3.57v2.17h.13a3.27,3.27,0,0,1,1.33-1.7,4,4,0,0,1,2.25-.62,4,4,0,0,1,2.16.56,3.76,3.76,0,0,1,1.43,1.55,4.87,4.87,0,0,1,.5,2.32V192h-3.75v-6.78a2.13,2.13,0,0,0-.5-1.53,1.76,1.76,0,0,0-1.39-.56,2,2,0,0,0-1,.27,1.68,1.68,0,0,0-.69.73A2.64,2.64,0,0,0,1537.47,185.28Zm13.61,6.89a4.37,4.37,0,0,1-2.38-.68,4.63,4.63,0,0,1-1.7-2,9.17,9.17,0,0,1,0-6.78,4.61,4.61,0,0,1,1.73-2,4.42,4.42,0,0,1,2.31-.64,3.52,3.52,0,0,1,1.59.32,3.34,3.34,0,0,1,1.09.81,4.17,4.17,0,0,1,.65,1h.08v-5.95h3.75V192h-3.71v-1.91h-.12a3.82,3.82,0,0,1-.67,1,3.4,3.4,0,0,1-1.1.77A3.85,3.85,0,0,1,1551.08,192.17Zm1.3-2.93a1.81,1.81,0,0,0,1.17-.38,2.46,2.46,0,0,0,.74-1.1,5.43,5.43,0,0,0,0-3.32,2.31,2.31,0,0,0-.74-1.07,2,2,0,0,0-2.35,0,2.43,2.43,0,0,0-.74,1.09,5,5,0,0,0-.24,1.64,4.87,4.87,0,0,0,.25,1.66,2.45,2.45,0,0,0,.73,1.1A1.8,1.8,0,0,0,1552.38,189.24Zm13.08,3a6.58,6.58,0,0,1-3.2-.73,5,5,0,0,1-2-2.09,6.9,6.9,0,0,1-.72-3.25,6.73,6.73,0,0,1,.72-3.19,5.26,5.26,0,0,1,2-2.14,6,6,0,0,1,3.09-.76,6.49,6.49,0,0,1,2.3.39,5,5,0,0,1,1.81,1.16,5.33,5.33,0,0,1,1.18,1.89,7.33,7.33,0,0,1,.42,2.57V187h-10.24v-2.18h6.75a2.24,2.24,0,0,0-.28-1.07,2,2,0,0,0-.76-.72,2.4,2.4,0,0,0-2.23,0,2.14,2.14,0,0,0-.79.76,2.19,2.19,0,0,0-.31,1.08v2.22a2.73,2.73,0,0,0,.29,1.27,2,2,0,0,0,.8.83,2.46,2.46,0,0,0,1.25.3,2.84,2.84,0,0,0,.9-.13,2,2,0,0,0,.7-.41,1.78,1.78,0,0,0,.44-.66l3.44.1a4.24,4.24,0,0,1-.94,2,4.73,4.73,0,0,1-1.9,1.32A7.09,7.09,0,0,1,1565.46,192.22Zm9.88-12,2,3.88,2-3.88h3.78l-3.29,5.89,3.41,5.9h-3.75l-2.16-3.91-2.11,3.91h-3.81l3.42-5.9-3.25-5.89Zm13.9,12a6.58,6.58,0,0,1-3.2-.73,5,5,0,0,1-2-2.09,6.9,6.9,0,0,1-.72-3.25A6.73,6.73,0,0,1,1584,183a5.2,5.2,0,0,1,2-2.14,6,6,0,0,1,3.09-.76,6.49,6.49,0,0,1,2.3.39,5,5,0,0,1,1.81,1.16,5.33,5.33,0,0,1,1.18,1.89,7.33,7.33,0,0,1,.42,2.57V187h-10.25v-2.18h6.76a2.14,2.14,0,0,0-.29-1.07,1.82,1.82,0,0,0-.76-.72,2.15,2.15,0,0,0-1.09-.27,2.23,2.23,0,0,0-1.13.28,2.14,2.14,0,0,0-.79.76,2.09,2.09,0,0,0-.31,1.08v2.22a2.86,2.86,0,0,0,.28,1.27,2,2,0,0,0,.81.83,2.45,2.45,0,0,0,1.24.3,2.86,2.86,0,0,0,.91-.13,2.12,2.12,0,0,0,.7-.41,1.78,1.78,0,0,0,.44-.66l3.44.1a4.33,4.33,0,0,1-.94,2,4.73,4.73,0,0,1-1.9,1.32A7.13,7.13,0,0,1,1589.24,192.22Zm6.86-.22V180.21h3.64v2.15h.13a3.09,3.09,0,0,1,1.05-1.73,2.63,2.63,0,0,1,1.7-.58,3.23,3.23,0,0,1,.53,0,2.66,2.66,0,0,1,.52.1v3.26a4.11,4.11,0,0,0-.71-.15,7.6,7.6,0,0,0-.77-.05,2.43,2.43,0,0,0-1.2.3,2.2,2.2,0,0,0-.84.82,2.44,2.44,0,0,0-.3,1.23V192Z" transform="translate(523.87)"/><path class="cls-4" d="M1474.28,443V427.28h5.32a6.41,6.41,0,0,1,3,.63,4,4,0,0,1,1.75,1.71,5.27,5.27,0,0,1,.57,2.48,5.2,5.2,0,0,1-.57,2.47,4,4,0,0,1-1.74,1.68,6.49,6.49,0,0,1-3,.61h-4.3v-1.72h4.24a4.64,4.64,0,0,0,2-.37,2.28,2.28,0,0,0,1.12-1,3.47,3.47,0,0,0,.36-1.63,3.58,3.58,0,0,0-.36-1.65,2.4,2.4,0,0,0-1.13-1.09,4.56,4.56,0,0,0-2-.39h-3.34v14Zm7.4-7.06,3.87,7.06h-2.21l-3.81-7.06Zm10.57,7.31a5.54,5.54,0,0,1-2.94-.76,5.05,5.05,0,0,1-1.9-2.11,8,8,0,0,1,0-6.37,5.28,5.28,0,0,1,1.86-2.17,5,5,0,0,1,2.79-.78,5.69,5.69,0,0,1,1.82.3,4.59,4.59,0,0,1,1.64,1,4.81,4.81,0,0,1,1.17,1.81,7.79,7.79,0,0,1,.44,2.78v.77H1488v-1.57h7.25a4,4,0,0,0-.4-1.78,3,3,0,0,0-1.12-1.23,3.08,3.08,0,0,0-1.71-.46,3.24,3.24,0,0,0-1.87.54,3.63,3.63,0,0,0-1.2,1.38,4,4,0,0,0-.43,1.83v1a5.19,5.19,0,0,0,.46,2.27,3.39,3.39,0,0,0,1.3,1.4,3.79,3.79,0,0,0,1.93.48,4.06,4.06,0,0,0,1.29-.2,2.64,2.64,0,0,0,1-.62,2.81,2.81,0,0,0,.66-1l1.75.49a4,4,0,0,1-.93,1.56,4.59,4.59,0,0,1-1.61,1.05A6.11,6.11,0,0,1,1492.25,443.25Zm10.67,0a4.68,4.68,0,0,1-2-.43,3.41,3.41,0,0,1-1.45-1.23,3.48,3.48,0,0,1-.54-2,3,3,0,0,1,.4-1.64,2.86,2.86,0,0,1,1.07-1,5.24,5.24,0,0,1,1.47-.53c.54-.13,1.09-.22,1.63-.3.72-.09,1.3-.16,1.75-.2a2.61,2.61,0,0,0,1-.26.63.63,0,0,0,.31-.61v-.06a2.39,2.39,0,0,0-.62-1.77,2.49,2.49,0,0,0-1.86-.63,3.26,3.26,0,0,0-2,.57,3.44,3.44,0,0,0-1,1.21l-1.72-.61a4,4,0,0,1,1.23-1.67,4.53,4.53,0,0,1,1.68-.85,7.23,7.23,0,0,1,1.82-.24,6.56,6.56,0,0,1,1.3.14,4,4,0,0,1,1.44.54,3.28,3.28,0,0,1,1.16,1.25,4.76,4.76,0,0,1,.46,2.24V443h-1.82v-1.6h-.09a3.35,3.35,0,0,1-.61.83,3.51,3.51,0,0,1-1.15.74A4.44,4.44,0,0,1,1502.92,443.28Zm.28-1.63a3.62,3.62,0,0,0,1.81-.42,2.87,2.87,0,0,0,1.12-1.09,2.77,2.77,0,0,0,.38-1.41v-1.65a1.07,1.07,0,0,1-.5.25c-.26.07-.56.13-.89.19l-1,.14-.76.09a6.7,6.7,0,0,0-1.32.3,2.28,2.28,0,0,0-1,.61,1.52,1.52,0,0,0-.37,1.09,1.6,1.6,0,0,0,.7,1.42A3.12,3.12,0,0,0,1503.2,441.65Zm12.45,1.6a4.59,4.59,0,0,1-2.6-.75,5.09,5.09,0,0,1-1.77-2.12,8.62,8.62,0,0,1,0-6.47,5,5,0,0,1,1.78-2.11,4.62,4.62,0,0,1,2.62-.74,3.6,3.6,0,0,1,1.82.38,3.21,3.21,0,0,1,1,.86c.24.32.43.58.56.78h.15v-5.8h1.81V443h-1.75v-1.81h-.21q-.19.31-.57.81a3.21,3.21,0,0,1-1,.87A3.79,3.79,0,0,1,1515.65,443.25Zm.25-1.63a3,3,0,0,0,1.84-.57,3.51,3.51,0,0,0,1.14-1.59,6.54,6.54,0,0,0,.39-2.35,6.25,6.25,0,0,0-.38-2.31,3.35,3.35,0,0,0-1.14-1.56,3,3,0,0,0-1.85-.56,3.07,3.07,0,0,0-1.92.59,3.57,3.57,0,0,0-1.15,1.59,6.4,6.4,0,0,0-.37,2.25,6.57,6.57,0,0,0,.38,2.28A3.77,3.77,0,0,0,1514,441,3,3,0,0,0,1515.9,441.62Zm22.78-10.41a2.41,2.41,0,0,0-1.12-1.81,4.31,4.31,0,0,0-2.41-.64,4.67,4.67,0,0,0-1.83.33,3,3,0,0,0-1.21.93,2.21,2.21,0,0,0-.43,1.34,2,2,0,0,0,.3,1.09,2.63,2.63,0,0,0,.78.74,4.84,4.84,0,0,0,1,.48,8.54,8.54,0,0,0,1,.3l1.6.43a14.31,14.31,0,0,1,1.36.45,6.52,6.52,0,0,1,1.45.77,3.94,3.94,0,0,1,1.15,1.25,3.49,3.49,0,0,1,.46,1.86,4.22,4.22,0,0,1-.67,2.31,4.56,4.56,0,0,1-1.94,1.63,8.05,8.05,0,0,1-6,.06,4.61,4.61,0,0,1-1.93-1.52,4.27,4.27,0,0,1-.79-2.26h2a2.44,2.44,0,0,0,.6,1.47,3.27,3.27,0,0,0,1.34.86,5.49,5.49,0,0,0,1.75.28,5,5,0,0,0,2-.36,3.41,3.41,0,0,0,1.38-1,2.37,2.37,0,0,0,.5-1.51,1.84,1.84,0,0,0-.43-1.27,3.16,3.16,0,0,0-1.15-.8,12.22,12.22,0,0,0-1.55-.54l-1.93-.55a7.25,7.25,0,0,1-2.92-1.51,3.34,3.34,0,0,1-1.07-2.57,3.88,3.88,0,0,1,.71-2.31,4.71,4.71,0,0,1,1.94-1.53,7,7,0,0,1,5.42,0,4.69,4.69,0,0,1,1.87,1.47,3.64,3.64,0,0,1,.74,2.13Zm9.3,12a5,5,0,0,1-4.68-2.89,7.24,7.24,0,0,1-.66-3.19,7.38,7.38,0,0,1,.66-3.22,5.14,5.14,0,0,1,1.88-2.13,5.16,5.16,0,0,1,7.46,2.13,7.24,7.24,0,0,1,.68,3.22,7.1,7.1,0,0,1-.68,3.19,5,5,0,0,1-4.66,2.89Zm0-1.63a3.11,3.11,0,0,0,2-.62,3.62,3.62,0,0,0,1.16-1.64,6.26,6.26,0,0,0,.38-2.19,6.37,6.37,0,0,0-.38-2.21,3.65,3.65,0,0,0-1.16-1.65,3.47,3.47,0,0,0-4,0,3.73,3.73,0,0,0-1.16,1.65,6.37,6.37,0,0,0-.37,2.21,6.26,6.26,0,0,0,.37,2.19A3.7,3.7,0,0,0,1546,441,3.14,3.14,0,0,0,1548,441.62Zm9.48-5.71V443h-1.81V431.21h1.75v1.84h.16a3.29,3.29,0,0,1,1.25-1.44,3.92,3.92,0,0,1,2.18-.55,4.29,4.29,0,0,1,2.1.49,3.33,3.33,0,0,1,1.4,1.47,5.55,5.55,0,0,1,.5,2.49V443h-1.82v-7.37a3,3,0,0,0-.72-2.16,2.57,2.57,0,0,0-2-.79,3.18,3.18,0,0,0-1.55.38,2.68,2.68,0,0,0-1.06,1.1A3.51,3.51,0,0,0,1557.46,435.91Zm12.21-8.63V443h-1.81V427.28Zm6.36,16a4.61,4.61,0,0,1-2-.43,3.44,3.44,0,0,1-1.46-1.23,3.55,3.55,0,0,1-.53-2,3,3,0,0,1,.4-1.64,2.83,2.83,0,0,1,1.06-1,5.42,5.42,0,0,1,1.48-.53c.54-.13,1.08-.22,1.63-.3.72-.09,1.3-.16,1.74-.2a2.67,2.67,0,0,0,1-.26.63.63,0,0,0,.31-.61v-.06a2.43,2.43,0,0,0-.62-1.77,2.5,2.5,0,0,0-1.87-.63,3.24,3.24,0,0,0-2,.57,3.48,3.48,0,0,0-1,1.21l-1.71-.61a4,4,0,0,1,1.22-1.67,4.57,4.57,0,0,1,1.69-.85,7.21,7.21,0,0,1,1.81-.24,6.58,6.58,0,0,1,1.31.14,4,4,0,0,1,1.43.54A3.13,3.13,0,0,1,1581,433a4.64,4.64,0,0,1,.46,2.24V443h-1.81v-1.6h-.09a3.35,3.35,0,0,1-.61.83,3.51,3.51,0,0,1-1.15.74A4.44,4.44,0,0,1,1576,443.28Zm.28-1.63a3.62,3.62,0,0,0,1.81-.42,2.94,2.94,0,0,0,1.12-1.09,2.87,2.87,0,0,0,.38-1.41v-1.65a1.12,1.12,0,0,1-.51.25c-.25.07-.55.13-.89.19l-1,.14-.76.09a6.7,6.7,0,0,0-1.32.3,2.28,2.28,0,0,0-1,.61,1.52,1.52,0,0,0-.37,1.09,1.6,1.6,0,0,0,.7,1.42A3.1,3.1,0,0,0,1576.31,441.65Zm9.81-5.74V443h-1.81V431.21h1.75v1.84h.15a3.38,3.38,0,0,1,1.26-1.44,3.89,3.89,0,0,1,2.18-.55,4.22,4.22,0,0,1,2.09.49,3.27,3.27,0,0,1,1.4,1.47,5.55,5.55,0,0,1,.5,2.49V443h-1.81v-7.37a3,3,0,0,0-.72-2.16,2.57,2.57,0,0,0-2-.79,3.15,3.15,0,0,0-1.55.38,2.7,2.7,0,0,0-1.07,1.1A3.62,3.62,0,0,0,1586.12,435.91Zm13.87,7.37a4.69,4.69,0,0,1-2-.43,3.41,3.41,0,0,1-1.45-1.23,3.48,3.48,0,0,1-.54-2,3.09,3.09,0,0,1,.4-1.64,2.93,2.93,0,0,1,1.07-1,5.47,5.47,0,0,1,1.47-.53c.55-.13,1.09-.22,1.64-.3.72-.09,1.3-.16,1.74-.2a2.56,2.56,0,0,0,1-.26.64.64,0,0,0,.32-.61v-.06a2.43,2.43,0,0,0-.62-1.77,2.5,2.5,0,0,0-1.87-.63,3.24,3.24,0,0,0-2,.57,3.48,3.48,0,0,0-1,1.21l-1.72-.61a4.14,4.14,0,0,1,1.23-1.67,4.57,4.57,0,0,1,1.69-.85,7.15,7.15,0,0,1,1.81-.24,6.65,6.65,0,0,1,1.31.14,4,4,0,0,1,1.43.54,3.2,3.2,0,0,1,1.16,1.25,4.64,4.64,0,0,1,.46,2.24V443h-1.81v-1.6h-.09a3.42,3.42,0,0,1-.62.83,3.46,3.46,0,0,1-1.14.74A4.51,4.51,0,0,1,1600,443.28Zm.27-1.63a3.59,3.59,0,0,0,1.81-.42,3,3,0,0,0,1.13-1.09,2.87,2.87,0,0,0,.38-1.41v-1.65a1.18,1.18,0,0,1-.51.25c-.25.07-.55.13-.89.19l-1,.14-.76.09a6.7,6.7,0,0,0-1.32.3,2.31,2.31,0,0,0-1,.61,1.56,1.56,0,0,0-.36,1.09,1.61,1.61,0,0,0,.69,1.42A3.14,3.14,0,0,0,1600.26,441.65Zm9.6-14.37v1.38a4.55,4.55,0,0,1-.23,1.35,5.74,5.74,0,0,1-.66,1.37,5,5,0,0,1-1,1.15l-1-.8a9.06,9.06,0,0,0,.84-1.43,3.68,3.68,0,0,0,.36-1.61v-1.41Zm8.64,6.57-1.62.46a3.38,3.38,0,0,0-.46-.79,2.21,2.21,0,0,0-.79-.64,2.89,2.89,0,0,0-1.3-.26,3.11,3.11,0,0,0-1.8.5,1.48,1.48,0,0,0-.72,1.25,1.32,1.32,0,0,0,.49,1.07,4.07,4.07,0,0,0,1.54.65l1.75.43a4.81,4.81,0,0,1,2.35,1.18,2.72,2.72,0,0,1,.78,2,3.08,3.08,0,0,1-.58,1.82,4,4,0,0,1-1.62,1.26,6,6,0,0,1-2.41.46,5.31,5.31,0,0,1-3-.79,3.45,3.45,0,0,1-1.5-2.29l1.72-.42a2.33,2.33,0,0,0,.93,1.42,3.09,3.09,0,0,0,1.8.48,3.33,3.33,0,0,0,2-.54,1.57,1.57,0,0,0,.76-1.3,1.39,1.39,0,0,0-.43-1,2.81,2.81,0,0,0-1.32-.63l-2-.46a4.71,4.71,0,0,1-2.38-1.19,2.89,2.89,0,0,1-.75-2,2.93,2.93,0,0,1,.56-1.76,3.91,3.91,0,0,1,1.54-1.21,5.48,5.48,0,0,1,2.23-.43,4.36,4.36,0,0,1,2.75.77A4.09,4.09,0,0,1,1618.5,433.85Zm13,9.4a5,5,0,0,1-4.67-2.89,7.1,7.1,0,0,1-.67-3.19,7.24,7.24,0,0,1,.67-3.22,5,5,0,0,1,4.67-2.89,5,5,0,0,1,4.67,2.89,7.24,7.24,0,0,1,.67,3.22,7.1,7.1,0,0,1-.67,3.19,5,5,0,0,1-4.67,2.89Zm0-1.63a3.16,3.16,0,0,0,2-.62,3.68,3.68,0,0,0,1.15-1.64,6.26,6.26,0,0,0,.38-2.19,6.37,6.37,0,0,0-.38-2.21,3.71,3.71,0,0,0-1.15-1.65,3.49,3.49,0,0,0-4,0,3.81,3.81,0,0,0-1.16,1.65,6.37,6.37,0,0,0-.37,2.21,6.26,6.26,0,0,0,.37,2.19,3.78,3.78,0,0,0,1.16,1.64A3.16,3.16,0,0,0,1631.45,441.62Zm9.49-5.71V443h-1.82V431.21h1.75v1.84h.16a3.25,3.25,0,0,1,1.26-1.44,3.89,3.89,0,0,1,2.18-.55,4.27,4.27,0,0,1,2.09.49A3.27,3.27,0,0,1,1648,433a5.55,5.55,0,0,1,.5,2.49V443h-1.81v-7.37a3,3,0,0,0-.73-2.16,2.57,2.57,0,0,0-2-.79,3.2,3.2,0,0,0-1.55.38,2.68,2.68,0,0,0-1.06,1.1A3.62,3.62,0,0,0,1640.94,435.91Zm17.15-.49v1.69h-6.88v-1.69Zm-197.28,48.83a5,5,0,0,1-4.7-2.94,7.34,7.34,0,0,1-.64-3.14,7.21,7.21,0,0,1,.66-3.17,5.22,5.22,0,0,1,1.85-2.16,5,5,0,0,1,2.8-.78,5.25,5.25,0,0,1,2.24.46,4.33,4.33,0,0,1,1.63,1.29,4,4,0,0,1,.79,1.93h-1.81a2.81,2.81,0,0,0-.92-1.43,2.74,2.74,0,0,0-1.9-.63,3.17,3.17,0,0,0-1.86.56,3.55,3.55,0,0,0-1.24,1.54,5.74,5.74,0,0,0-.43,2.33,5.94,5.94,0,0,0,.43,2.37,3.7,3.7,0,0,0,1.22,1.58,3.23,3.23,0,0,0,1.88.56,3.11,3.11,0,0,0,1.28-.25,2.63,2.63,0,0,0,1-.7,2.67,2.67,0,0,0,.57-1.11h1.81a4.1,4.1,0,0,1-.76,1.88,4.31,4.31,0,0,1-1.59,1.32A5.1,5.1,0,0,1,1460.81,484.25Zm8.66-7.34V484h-1.81V468.28h1.81v5.77h.15a3.33,3.33,0,0,1,1.25-1.45,4,4,0,0,1,2.22-.54,4.41,4.41,0,0,1,2.11.48,3.24,3.24,0,0,1,1.41,1.47,5.4,5.4,0,0,1,.5,2.5V484h-1.81v-7.37a3,3,0,0,0-.73-2.17,2.58,2.58,0,0,0-2-.78,3.4,3.4,0,0,0-1.6.38,2.77,2.77,0,0,0-1.1,1.1A3.51,3.51,0,0,0,1469.47,476.91Zm14,7.37a4.69,4.69,0,0,1-2-.43,3.41,3.41,0,0,1-1.45-1.23,3.48,3.48,0,0,1-.54-2,3.09,3.09,0,0,1,.4-1.64,2.86,2.86,0,0,1,1.07-1,5.35,5.35,0,0,1,1.47-.53c.55-.13,1.09-.22,1.64-.3.71-.09,1.3-.16,1.74-.2a2.56,2.56,0,0,0,1-.26.64.64,0,0,0,.32-.61v-.06a2.43,2.43,0,0,0-.62-1.77,2.52,2.52,0,0,0-1.87-.63,3.24,3.24,0,0,0-2,.57,3.48,3.48,0,0,0-1,1.21l-1.72-.61a4.14,4.14,0,0,1,1.23-1.67,4.57,4.57,0,0,1,1.69-.85,7.15,7.15,0,0,1,1.81-.24,6.49,6.49,0,0,1,1.3.14,4,4,0,0,1,1.44.54,3.2,3.2,0,0,1,1.16,1.25,4.64,4.64,0,0,1,.46,2.24V484h-1.81v-1.6H1487a3.42,3.42,0,0,1-.62.83,3.57,3.57,0,0,1-1.14.74A4.51,4.51,0,0,1,1483.47,484.28Zm.27-1.63a3.59,3.59,0,0,0,1.81-.42,2.87,2.87,0,0,0,1.12-1.09,2.78,2.78,0,0,0,.39-1.41v-1.65a1.18,1.18,0,0,1-.51.25c-.25.07-.55.13-.89.19l-1,.14-.76.09a6.7,6.7,0,0,0-1.32.3,2.25,2.25,0,0,0-1,.61,1.56,1.56,0,0,0-.36,1.09,1.61,1.61,0,0,0,.69,1.42A3.12,3.12,0,0,0,1483.74,482.65Zm8,1.35V472.21h1.81V484Zm.92-13.75a1.29,1.29,0,0,1-.91-.36,1.18,1.18,0,0,1-.38-.87,1.17,1.17,0,0,1,.38-.87,1.29,1.29,0,0,1,.91-.36,1.26,1.26,0,0,1,.91.36,1.13,1.13,0,0,1,.38.87,1.15,1.15,0,0,1-.38.87A1.26,1.26,0,0,1,1492.66,470.25Zm5.59,6.66V484h-1.81V472.21h1.75v1.84h.15a3.38,3.38,0,0,1,1.26-1.44,3.89,3.89,0,0,1,2.18-.55,4.29,4.29,0,0,1,2.1.49,3.25,3.25,0,0,1,1.39,1.47,5.41,5.41,0,0,1,.5,2.49V484H1504v-7.37a3,3,0,0,0-.72-2.16,2.57,2.57,0,0,0-2-.79,3.15,3.15,0,0,0-1.55.38,2.7,2.7,0,0,0-1.07,1.1A3.62,3.62,0,0,0,1498.25,476.91Zm28.76-8.63V484h-1.84l-8.57-12.34h-.15V484h-1.91V468.28h1.84l8.6,12.37h.15V468.28Zm3.37,15.72V468.28h9.43V470h-7.52v5.31h6.81V477h-6.81v7Zm11.4-14v-1.69h11.79V470h-5v14h-1.9V470Zm19.69,14V472.21h1.75V474h.13a2.81,2.81,0,0,1,1.16-1.42,3.49,3.49,0,0,1,1.91-.54h.49l.46,0v1.84l-.42-.07a3.87,3.87,0,0,0-.69-.05,3.2,3.2,0,0,0-1.53.36,2.64,2.64,0,0,0-1.06,1,2.61,2.61,0,0,0-.39,1.42V484Zm12.2.25a5.54,5.54,0,0,1-2.94-.76,5.05,5.05,0,0,1-1.9-2.11,8,8,0,0,1,0-6.37,5.28,5.28,0,0,1,1.86-2.17,5,5,0,0,1,2.79-.78,5.69,5.69,0,0,1,1.82.3,4.59,4.59,0,0,1,1.64,1,4.81,4.81,0,0,1,1.17,1.81,7.79,7.79,0,0,1,.44,2.78v.77h-9.09v-1.57h7.25a4,4,0,0,0-.4-1.78,3,3,0,0,0-1.12-1.23,3.08,3.08,0,0,0-1.71-.46,3.24,3.24,0,0,0-1.87.54,3.74,3.74,0,0,0-1.21,1.38,4.1,4.1,0,0,0-.42,1.83v1a5.19,5.19,0,0,0,.46,2.27,3.39,3.39,0,0,0,1.3,1.4,3.76,3.76,0,0,0,1.93.48,4.06,4.06,0,0,0,1.29-.2,2.64,2.64,0,0,0,1-.62,2.67,2.67,0,0,0,.65-1l1.75.49a3.87,3.87,0,0,1-.92,1.56,4.54,4.54,0,0,1-1.62,1.05A6.1,6.1,0,0,1,1573.67,484.25Zm9-16V484h-1.81V468.28Zm6.36,16a4.69,4.69,0,0,1-2-.43,3.41,3.41,0,0,1-1.45-1.23,3.47,3.47,0,0,1-.53-2,3.09,3.09,0,0,1,.39-1.64,2.93,2.93,0,0,1,1.07-1,5.42,5.42,0,0,1,1.48-.53c.54-.13,1.08-.22,1.63-.3.72-.09,1.3-.16,1.74-.2a2.56,2.56,0,0,0,1-.26.64.64,0,0,0,.32-.61v-.06a2.43,2.43,0,0,0-.62-1.77,2.5,2.5,0,0,0-1.87-.63,3.24,3.24,0,0,0-2,.57,3.48,3.48,0,0,0-1,1.21l-1.72-.61a4.14,4.14,0,0,1,1.23-1.67,4.57,4.57,0,0,1,1.69-.85,7.15,7.15,0,0,1,1.81-.24,6.65,6.65,0,0,1,1.31.14,4,4,0,0,1,1.43.54A3.2,3.2,0,0,1,1594,474a4.64,4.64,0,0,1,.46,2.24V484h-1.81v-1.6h-.09a3.42,3.42,0,0,1-.62.83,3.36,3.36,0,0,1-1.14.74A4.51,4.51,0,0,1,1589,484.28Zm.27-1.63a3.59,3.59,0,0,0,1.81-.42,3,3,0,0,0,1.13-1.09,2.87,2.87,0,0,0,.38-1.41v-1.65a1.18,1.18,0,0,1-.51.25c-.25.07-.55.13-.89.19l-1,.14-.76.09a6.7,6.7,0,0,0-1.32.3,2.22,2.22,0,0,0-1,.61,1.52,1.52,0,0,0-.37,1.09,1.6,1.6,0,0,0,.7,1.42A3.09,3.09,0,0,0,1589.31,482.65Zm13.13-10.44v1.54h-6.11v-1.54Zm-4.33-2.82h1.81v11.23a2.28,2.28,0,0,0,.23,1.15,1.14,1.14,0,0,0,.58.51,2.37,2.37,0,0,0,.76.12,3.28,3.28,0,0,0,.49,0l.31-.06.37,1.63-.52.14a3.89,3.89,0,0,1-.83.07,3.64,3.64,0,0,1-1.51-.33,3,3,0,0,1-1.21-1,2.88,2.88,0,0,1-.48-1.71Zm11.44,14.86a5.54,5.54,0,0,1-2.94-.76,5.05,5.05,0,0,1-1.9-2.11,8,8,0,0,1,0-6.37,5.28,5.28,0,0,1,1.86-2.17,5,5,0,0,1,2.8-.78,5.74,5.74,0,0,1,1.82.3,4.64,4.64,0,0,1,1.63,1,4.81,4.81,0,0,1,1.17,1.81,7.58,7.58,0,0,1,.44,2.78v.77h-9.09v-1.57h7.25a3.82,3.82,0,0,0-.4-1.78,3,3,0,0,0-1.12-1.23,3.07,3.07,0,0,0-1.7-.46,3.25,3.25,0,0,0-1.88.54,3.63,3.63,0,0,0-1.2,1.38,4.1,4.1,0,0,0-.42,1.83v1a5,5,0,0,0,.46,2.27,3.31,3.31,0,0,0,1.29,1.4,3.81,3.81,0,0,0,1.93.48,4,4,0,0,0,1.29-.2,2.76,2.76,0,0,0,1-.62,2.79,2.79,0,0,0,.65-1l1.75.49a4,4,0,0,1-.93,1.56,4.5,4.5,0,0,1-1.61,1.05A6.11,6.11,0,0,1,1609.55,484.25Zm11.66,0a4.62,4.62,0,0,1-2.61-.75,5,5,0,0,1-1.76-2.12,8.5,8.5,0,0,1,0-6.47,5,5,0,0,1,1.77-2.11,4.65,4.65,0,0,1,2.63-.74,3.65,3.65,0,0,1,1.82.38,3.06,3.06,0,0,1,1,.86c.25.32.43.58.57.78h.15v-5.8h1.81V484h-1.75v-1.81h-.21q-.21.31-.57.81a3.44,3.44,0,0,1-1,.87A3.82,3.82,0,0,1,1621.21,484.25Zm.24-1.63a3,3,0,0,0,1.84-.57,3.46,3.46,0,0,0,1.15-1.59,6.54,6.54,0,0,0,.39-2.35,6.46,6.46,0,0,0-.38-2.31,3.42,3.42,0,0,0-1.14-1.56,3,3,0,0,0-1.86-.56,3.09,3.09,0,0,0-1.92.59,3.63,3.63,0,0,0-1.14,1.59,6.86,6.86,0,0,0,0,4.53,3.69,3.69,0,0,0,1.15,1.63A3,3,0,0,0,1621.45,482.62Zm18.4,1.63a4.62,4.62,0,0,1-2.61-.75,5,5,0,0,1-1.76-2.12,8.5,8.5,0,0,1,0-6.47,4.92,4.92,0,0,1,1.77-2.11,4.65,4.65,0,0,1,2.63-.74,3.58,3.58,0,0,1,1.81.38,3,3,0,0,1,1,.86c.24.32.43.58.56.78h.16v-5.8h1.81V484h-1.75v-1.81h-.22c-.13.21-.32.48-.56.81a3.37,3.37,0,0,1-1.06.87A3.74,3.74,0,0,1,1639.85,484.25Zm.24-1.63a3,3,0,0,0,1.84-.57,3.53,3.53,0,0,0,1.15-1.59,6.54,6.54,0,0,0,.39-2.35,6.24,6.24,0,0,0-.39-2.31,3.33,3.33,0,0,0-1.13-1.56,3.39,3.39,0,0,0-3.78,0,3.55,3.55,0,0,0-1.14,1.59,6.86,6.86,0,0,0,0,4.53,3.69,3.69,0,0,0,1.15,1.63A3,3,0,0,0,1640.09,482.62Zm11.76,1.66a4.68,4.68,0,0,1-2-.43,3.41,3.41,0,0,1-1.45-1.23,3.48,3.48,0,0,1-.54-2,3.09,3.09,0,0,1,.4-1.64,2.86,2.86,0,0,1,1.07-1,5.24,5.24,0,0,1,1.47-.53c.54-.13,1.09-.22,1.64-.3.71-.09,1.29-.16,1.74-.2a2.56,2.56,0,0,0,1-.26.64.64,0,0,0,.32-.61v-.06a2.39,2.39,0,0,0-.63-1.77,2.48,2.48,0,0,0-1.86-.63,3.22,3.22,0,0,0-2,.57,3.37,3.37,0,0,0-1,1.21l-1.72-.61a4.14,4.14,0,0,1,1.23-1.67,4.57,4.57,0,0,1,1.69-.85,7.09,7.09,0,0,1,1.81-.24,6.49,6.49,0,0,1,1.3.14,4,4,0,0,1,1.44.54,3.28,3.28,0,0,1,1.16,1.25,4.76,4.76,0,0,1,.46,2.24V484h-1.81v-1.6h-.1a3.11,3.11,0,0,1-.61.83,3.57,3.57,0,0,1-1.14.74A4.53,4.53,0,0,1,1651.85,484.28Zm.28-1.63a3.59,3.59,0,0,0,1.81-.42,2.87,2.87,0,0,0,1.12-1.09,2.78,2.78,0,0,0,.39-1.41v-1.65a1.18,1.18,0,0,1-.51.25c-.26.07-.55.13-.89.19l-1,.14-.75.09a6.64,6.64,0,0,0-1.33.3,2.28,2.28,0,0,0-1,.61,1.56,1.56,0,0,0-.37,1.09,1.62,1.62,0,0,0,.7,1.42A3.12,3.12,0,0,0,1652.13,482.65Zm13.13-10.44v1.54h-6.11v-1.54Zm-4.33-2.82h1.81v11.23a2.41,2.41,0,0,0,.22,1.15,1.2,1.2,0,0,0,.59.51,2.37,2.37,0,0,0,.76.12,3.28,3.28,0,0,0,.49,0l.31-.06.36,1.63c-.12,0-.29.09-.51.14a3.93,3.93,0,0,1-.84.07,3.63,3.63,0,0,1-1.5-.33,2.93,2.93,0,0,1-1.21-1,2.88,2.88,0,0,1-.48-1.71ZM1671,484.28a4.64,4.64,0,0,1-2-.43,3.36,3.36,0,0,1-1.45-1.23,3.48,3.48,0,0,1-.54-2,3,3,0,0,1,.4-1.64,2.83,2.83,0,0,1,1.06-1,5.42,5.42,0,0,1,1.48-.53c.54-.13,1.09-.22,1.63-.3.72-.09,1.3-.16,1.75-.2a2.61,2.61,0,0,0,1-.26.63.63,0,0,0,.31-.61v-.06a2.39,2.39,0,0,0-.62-1.77,2.49,2.49,0,0,0-1.86-.63,3.26,3.26,0,0,0-2,.57,3.44,3.44,0,0,0-1,1.21l-1.72-.61a4,4,0,0,1,1.22-1.67,4.57,4.57,0,0,1,1.69-.85,7.21,7.21,0,0,1,1.81-.24,6.58,6.58,0,0,1,1.31.14,3.91,3.91,0,0,1,1.43.54A3.13,3.13,0,0,1,1676,474a4.64,4.64,0,0,1,.46,2.24V484h-1.81v-1.6h-.09a3.35,3.35,0,0,1-.61.83,3.51,3.51,0,0,1-1.15.74A4.44,4.44,0,0,1,1671,484.28Zm.28-1.63a3.62,3.62,0,0,0,1.81-.42,2.94,2.94,0,0,0,1.12-1.09,2.87,2.87,0,0,0,.38-1.41v-1.65a1.07,1.07,0,0,1-.5.25c-.26.07-.56.13-.89.19l-1,.14-.76.09a6.7,6.7,0,0,0-1.32.3,2.28,2.28,0,0,0-1,.61,1.52,1.52,0,0,0-.37,1.09,1.6,1.6,0,0,0,.7,1.42A3.12,3.12,0,0,0,1671.3,482.65Zm-189.36,29.56v1.54h-6.36v-1.54ZM1477.49,524V510.58a2.88,2.88,0,0,1,.47-1.69,3.07,3.07,0,0,1,1.24-1,4,4,0,0,1,1.6-.34,4.57,4.57,0,0,1,1.09.11,4.34,4.34,0,0,1,.63.2l-.52,1.57-.38-.12a2.61,2.61,0,0,0-.63-.07,1.62,1.62,0,0,0-1.3.46,2,2,0,0,0-.39,1.32v13Zm9.69.28a4.69,4.69,0,0,1-2-.43,3.41,3.41,0,0,1-1.45-1.23,3.48,3.48,0,0,1-.54-2,3.09,3.09,0,0,1,.4-1.64,2.86,2.86,0,0,1,1.07-1,5.35,5.35,0,0,1,1.47-.53c.55-.13,1.09-.22,1.64-.3.71-.09,1.3-.16,1.74-.2a2.56,2.56,0,0,0,1-.26.64.64,0,0,0,.32-.61v-.06a2.43,2.43,0,0,0-.62-1.77,2.52,2.52,0,0,0-1.87-.63,3.24,3.24,0,0,0-2,.57,3.48,3.48,0,0,0-1,1.21l-1.72-.61a4.14,4.14,0,0,1,1.23-1.67,4.57,4.57,0,0,1,1.69-.85,7.15,7.15,0,0,1,1.81-.24,6.49,6.49,0,0,1,1.3.14,4,4,0,0,1,1.44.54,3.28,3.28,0,0,1,1.16,1.25,4.64,4.64,0,0,1,.46,2.24V524h-1.81v-1.6h-.09a3.21,3.21,0,0,1-.62.82,3.43,3.43,0,0,1-1.14.75A4.51,4.51,0,0,1,1487.18,524.28Zm.27-1.63a3.59,3.59,0,0,0,1.81-.42,2.87,2.87,0,0,0,1.12-1.09,2.78,2.78,0,0,0,.39-1.41v-1.65a1.18,1.18,0,0,1-.51.25c-.25.07-.55.13-.89.19l-1,.14-.76.09a6.7,6.7,0,0,0-1.32.3,2.25,2.25,0,0,0-1,.61,1.54,1.54,0,0,0-.37,1.09,1.62,1.62,0,0,0,.7,1.42A3.12,3.12,0,0,0,1487.45,522.65Zm16.35-7.8-1.62.46a3.38,3.38,0,0,0-.46-.79,2.11,2.11,0,0,0-.79-.64,2.89,2.89,0,0,0-1.3-.26,3.16,3.16,0,0,0-1.81.5,1.49,1.49,0,0,0-.71,1.25,1.29,1.29,0,0,0,.49,1.07,4.07,4.07,0,0,0,1.54.65l1.75.43a4.81,4.81,0,0,1,2.35,1.18,2.73,2.73,0,0,1,.78,2,3,3,0,0,1-.59,1.81,3.79,3.79,0,0,1-1.61,1.25,5.82,5.82,0,0,1-2.41.47,5.31,5.31,0,0,1-3-.79,3.45,3.45,0,0,1-1.5-2.29l1.72-.42a2.33,2.33,0,0,0,.93,1.42,3.09,3.09,0,0,0,1.8.48,3.33,3.33,0,0,0,2-.54,1.59,1.59,0,0,0,.76-1.3,1.39,1.39,0,0,0-.43-1,2.81,2.81,0,0,0-1.32-.63l-2-.46a4.71,4.71,0,0,1-2.38-1.19,2.88,2.88,0,0,1-.75-2,2.94,2.94,0,0,1,.56-1.77,3.91,3.91,0,0,1,1.54-1.21,5.48,5.48,0,0,1,2.23-.43,4.38,4.38,0,0,1,2.75.77A4.09,4.09,0,0,1,1503.8,514.85Zm7.64-2.64v1.54h-6.11v-1.54Zm-4.33-2.82h1.81v11.23a2.41,2.41,0,0,0,.22,1.15,1.15,1.15,0,0,0,.59.51,2.37,2.37,0,0,0,.76.12,3.28,3.28,0,0,0,.49,0l.31-.06.36,1.63c-.12,0-.29.09-.51.14a3.93,3.93,0,0,1-.84.07,3.63,3.63,0,0,1-1.5-.33,2.93,2.93,0,0,1-1.21-1,2.88,2.88,0,0,1-.48-1.71Zm15.74,14.89a4.69,4.69,0,0,1-2-.43,3.48,3.48,0,0,1-1.45-1.23,3.55,3.55,0,0,1-.53-2,3,3,0,0,1,.4-1.64,2.83,2.83,0,0,1,1.06-1,5.42,5.42,0,0,1,1.48-.53c.54-.13,1.08-.22,1.63-.3.72-.09,1.3-.16,1.74-.2a2.67,2.67,0,0,0,1-.26.63.63,0,0,0,.31-.61v-.06a2.43,2.43,0,0,0-.62-1.77,2.5,2.5,0,0,0-1.87-.63,3.24,3.24,0,0,0-2,.57,3.48,3.48,0,0,0-1,1.21l-1.72-.61a4.14,4.14,0,0,1,1.23-1.67,4.57,4.57,0,0,1,1.69-.85,7.15,7.15,0,0,1,1.81-.24,6.58,6.58,0,0,1,1.31.14,4,4,0,0,1,1.43.54,3.2,3.2,0,0,1,1.16,1.25,4.64,4.64,0,0,1,.46,2.24V524h-1.81v-1.6h-.09a3,3,0,0,1-.62.82,3.23,3.23,0,0,1-1.14.75A4.51,4.51,0,0,1,1522.85,524.28Zm.27-1.63a3.66,3.66,0,0,0,1.82-.42,2.94,2.94,0,0,0,1.12-1.09,2.87,2.87,0,0,0,.38-1.41v-1.65a1.18,1.18,0,0,1-.51.25c-.25.07-.55.13-.89.19l-1,.14-.76.09a6.7,6.7,0,0,0-1.32.3,2.22,2.22,0,0,0-1,.61,1.5,1.5,0,0,0-.37,1.09,1.6,1.6,0,0,0,.7,1.42A3.09,3.09,0,0,0,1523.12,522.65Zm9.82-5.74V524h-1.81V512.21h1.75v1.84h.15a3.31,3.31,0,0,1,1.26-1.44,3.89,3.89,0,0,1,2.18-.55,4.25,4.25,0,0,1,2.09.49A3.27,3.27,0,0,1,1540,514a5.55,5.55,0,0,1,.5,2.49V524h-1.81v-7.37a3,3,0,0,0-.72-2.16,2.6,2.6,0,0,0-2-.79,3.22,3.22,0,0,0-1.56.38,2.68,2.68,0,0,0-1.06,1.1A3.62,3.62,0,0,0,1532.94,516.91Zm14.85,7.34a4.59,4.59,0,0,1-2.6-.75,5,5,0,0,1-1.77-2.12,8.5,8.5,0,0,1,0-6.47,5.06,5.06,0,0,1,1.77-2.11,4.68,4.68,0,0,1,2.63-.74,3.62,3.62,0,0,1,1.82.38,3.21,3.21,0,0,1,1,.86c.24.32.42.58.56.78h.15v-5.8h1.81V524h-1.75v-1.81h-.21q-.21.31-.57.81a3.44,3.44,0,0,1-1.05.87A3.79,3.79,0,0,1,1547.79,524.25Zm.24-1.63a3,3,0,0,0,1.85-.57,3.51,3.51,0,0,0,1.14-1.59,7.27,7.27,0,0,0,0-4.67,3.44,3.44,0,0,0-1.14-1.55,3.37,3.37,0,0,0-3.78,0,3.54,3.54,0,0,0-1.14,1.58,6.86,6.86,0,0,0,0,4.53,3.69,3.69,0,0,0,1.15,1.63A3,3,0,0,0,1548,522.62Zm18.89,1.63a5.54,5.54,0,0,1-2.94-.76,5.05,5.05,0,0,1-1.9-2.11,8,8,0,0,1,0-6.37,5.28,5.28,0,0,1,1.86-2.17,5,5,0,0,1,2.79-.78,5.69,5.69,0,0,1,1.82.3,4.59,4.59,0,0,1,1.64,1,4.81,4.81,0,0,1,1.17,1.81,7.79,7.79,0,0,1,.44,2.78v.77h-9.09v-1.57H1570a4,4,0,0,0-.4-1.78,3,3,0,0,0-1.12-1.23,3.16,3.16,0,0,0-1.71-.46,3.24,3.24,0,0,0-1.87.54,3.56,3.56,0,0,0-1.2,1.38,4,4,0,0,0-.43,1.83v1a5.19,5.19,0,0,0,.46,2.27,3.39,3.39,0,0,0,1.3,1.4,3.79,3.79,0,0,0,1.93.48,4.06,4.06,0,0,0,1.29-.2,2.64,2.64,0,0,0,1-.62,2.67,2.67,0,0,0,.65-1l1.75.49a3.87,3.87,0,0,1-.92,1.56,4.54,4.54,0,0,1-1.62,1A6.06,6.06,0,0,1,1566.92,524.25Zm12.45-12v1.54H1573v-1.54ZM1574.92,524V510.58a2.88,2.88,0,0,1,.48-1.69,3,3,0,0,1,1.23-1,4,4,0,0,1,1.61-.34,4.69,4.69,0,0,1,1.09.11,4.34,4.34,0,0,1,.63.2l-.53,1.57-.38-.12a2.61,2.61,0,0,0-.63-.07,1.63,1.63,0,0,0-1.3.46,2,2,0,0,0-.39,1.32v13Zm11.81-11.79v1.54h-6.36v-1.54ZM1582.28,524V510.58a3,3,0,0,1,.47-1.69,3.07,3.07,0,0,1,1.24-1,4,4,0,0,1,1.6-.34,4.57,4.57,0,0,1,1.09.11,4.34,4.34,0,0,1,.63.2l-.52,1.57-.38-.12a2.61,2.61,0,0,0-.63-.07,1.63,1.63,0,0,0-1.3.46,2,2,0,0,0-.39,1.32v13Zm6.55,0V512.21h1.82V524Zm.93-13.75a1.3,1.3,0,0,1-.92-.36,1.17,1.17,0,0,1-.37-.87,1.16,1.16,0,0,1,.37-.87,1.3,1.3,0,0,1,.92-.36,1.25,1.25,0,0,1,.9.36,1.14,1.14,0,0,1,.39.87,1.16,1.16,0,0,1-.39.87A1.25,1.25,0,0,1,1589.76,510.25Zm8.56,14a5,5,0,0,1-4.7-2.94,7.34,7.34,0,0,1-.64-3.14,7.21,7.21,0,0,1,.66-3.17,5.17,5.17,0,0,1,1.86-2.16,5,5,0,0,1,2.79-.78,5.22,5.22,0,0,1,2.24.46,4.37,4.37,0,0,1,1.64,1.29,4.15,4.15,0,0,1,.79,1.93h-1.81a2.83,2.83,0,0,0-.93-1.43,2.74,2.74,0,0,0-1.9-.63,3.19,3.19,0,0,0-1.86.56,3.54,3.54,0,0,0-1.23,1.54,5.75,5.75,0,0,0-.44,2.32,6,6,0,0,0,.43,2.38,3.64,3.64,0,0,0,1.23,1.58,3.18,3.18,0,0,0,1.87.56,3.11,3.11,0,0,0,1.28-.25,2.67,2.67,0,0,0,1-.7,2.93,2.93,0,0,0,.57-1.11H1603a4.19,4.19,0,0,1-2.35,3.2A5.18,5.18,0,0,1,1598.32,524.25Zm6.85-.25V512.21H1607V524Zm.92-13.75a1.29,1.29,0,0,1-.91-.36,1.18,1.18,0,0,1-.38-.87,1.17,1.17,0,0,1,.38-.87,1.29,1.29,0,0,1,.91-.36,1.26,1.26,0,0,1,.91.36,1.17,1.17,0,0,1,.38.87,1.18,1.18,0,0,1-.38.87A1.26,1.26,0,0,1,1606.09,510.25Zm8.72,14a5.59,5.59,0,0,1-2.94-.76,5,5,0,0,1-1.89-2.11,8,8,0,0,1,0-6.37,5.19,5.19,0,0,1,1.85-2.17,5,5,0,0,1,2.8-.78,5.74,5.74,0,0,1,1.82.3,4.55,4.55,0,0,1,1.63,1,5,5,0,0,1,1.18,1.81,7.81,7.81,0,0,1,.43,2.78v.77h-9.08v-1.57h7.24a3.85,3.85,0,0,0-.4-1.78,3,3,0,0,0-1.12-1.23,3.15,3.15,0,0,0-1.7-.46,3.27,3.27,0,0,0-1.88.54,3.56,3.56,0,0,0-1.2,1.38,4.1,4.1,0,0,0-.42,1.83v1a5,5,0,0,0,.46,2.27,3.27,3.27,0,0,0,1.3,1.4,3.75,3.75,0,0,0,1.92.48,4,4,0,0,0,1.29-.2,2.67,2.67,0,0,0,1.66-1.64l1.75.49a3.78,3.78,0,0,1-.93,1.56,4.41,4.41,0,0,1-1.61,1A6.11,6.11,0,0,1,1614.81,524.25Zm9-7.34V524H1622V512.21h1.75v1.84h.15a3.38,3.38,0,0,1,1.26-1.44,3.89,3.89,0,0,1,2.18-.55,4.22,4.22,0,0,1,2.09.49,3.27,3.27,0,0,1,1.4,1.47,5.55,5.55,0,0,1,.5,2.49V524h-1.81v-7.37a3,3,0,0,0-.72-2.16,2.57,2.57,0,0,0-2-.79,3.15,3.15,0,0,0-1.55.38,2.7,2.7,0,0,0-1.07,1.1A3.62,3.62,0,0,0,1623.83,516.91Zm15.52-4.7v1.54h-6.1v-1.54Zm-4.32-2.82h1.81v11.23a2.29,2.29,0,0,0,.22,1.15,1.13,1.13,0,0,0,.58.51,2.42,2.42,0,0,0,.76.12,3.19,3.19,0,0,0,.49,0l.31-.06.37,1.63c-.12,0-.29.09-.51.14a3.93,3.93,0,0,1-.84.07,3.71,3.71,0,0,1-1.51-.33,3,3,0,0,1-1.21-1,2.88,2.88,0,0,1-.47-1.71Zm8.68-1.11V524h-1.81V508.28Zm4,20.14a3.46,3.46,0,0,1-.82-.08,2.43,2.43,0,0,1-.5-.13l.46-1.6a3.58,3.58,0,0,0,1.17.12,1.39,1.39,0,0,0,.9-.45,3.74,3.74,0,0,0,.73-1.3l.34-.92-4.36-11.85h2l3.26,9.39h.12l3.25-9.39h2l-5,13.51a5,5,0,0,1-.83,1.51,3.2,3.2,0,0,1-1.16.9A3.69,3.69,0,0,1,1647.76,528.42Z" transform="translate(523.87)"/><rect class="cls-3" x="2043.65" y="254" width="93.79" height="93.79" rx="27.02"/><rect class="cls-5" x="2072.96" y="283.31" width="33.71" height="33.71" rx="13.51"/><rect class="cls-6" width="791.19" height="1417"/><rect class="cls-7" x="1676.42" width="790.8" height="1417" transform="translate(4667.51 1417) rotate(180)"/></svg>