<svg width="1148" height="169" viewBox="0 0 1148 169" fill="none" xmlns="http://www.w3.org/2000/svg">
<g id="Group 47">
<g id="Group 46">
<g id="Frame 102">
<g clip-path="url(#clip0_49:71)">
<rect x="854" y="57" width="277" height="40" rx="20" fill="white" fill-opacity="0.1"/>
<path id="More to come..." d="M932.492 83V70.31H933.734L938.612 79.472L943.454 70.31H944.696V83H943.328V73.082L939.098 81.038H938.126L933.842 73.1V83H932.492ZM951.292 83.162C950.44 83.162 949.702 82.976 949.078 82.604C948.454 82.232 947.968 81.71 947.62 81.038C947.284 80.354 947.116 79.55 947.116 78.626C947.116 77.702 947.284 76.904 947.62 76.232C947.968 75.548 948.454 75.02 949.078 74.648C949.702 74.276 950.44 74.09 951.292 74.09C952.132 74.09 952.864 74.276 953.488 74.648C954.124 75.02 954.61 75.548 954.946 76.232C955.294 76.904 955.468 77.702 955.468 78.626C955.468 79.55 955.294 80.354 954.946 81.038C954.61 81.71 954.124 82.232 953.488 82.604C952.864 82.976 952.132 83.162 951.292 83.162ZM951.292 81.992C952.108 81.992 952.762 81.704 953.254 81.128C953.746 80.54 953.992 79.706 953.992 78.626C953.992 77.534 953.746 76.7 953.254 76.124C952.762 75.548 952.108 75.26 951.292 75.26C950.464 75.26 949.804 75.548 949.312 76.124C948.832 76.7 948.592 77.534 948.592 78.626C948.592 79.706 948.832 80.54 949.312 81.128C949.804 81.704 950.464 81.992 951.292 81.992ZM957.658 83V74.252H959.08V75.818C959.548 74.762 960.508 74.18 961.96 74.072L962.482 74.018L962.59 75.278L961.672 75.386C960.844 75.458 960.214 75.722 959.782 76.178C959.35 76.622 959.134 77.234 959.134 78.014V83H957.658ZM967.946 83.162C966.566 83.162 965.474 82.76 964.67 81.956C963.866 81.14 963.464 80.036 963.464 78.644C963.464 77.744 963.644 76.952 964.004 76.268C964.364 75.572 964.856 75.038 965.48 74.666C966.116 74.282 966.848 74.09 967.676 74.09C968.864 74.09 969.794 74.474 970.466 75.242C971.138 75.998 971.474 77.042 971.474 78.374V78.932H964.886C964.934 79.928 965.222 80.69 965.75 81.218C966.278 81.734 967.01 81.992 967.946 81.992C968.474 81.992 968.978 81.914 969.458 81.758C969.938 81.59 970.394 81.32 970.826 80.948L971.33 81.974C970.934 82.346 970.43 82.64 969.818 82.856C969.206 83.06 968.582 83.162 967.946 83.162ZM967.712 75.17C966.884 75.17 966.23 75.428 965.75 75.944C965.27 76.46 964.988 77.138 964.904 77.978H970.214C970.178 77.09 969.944 76.4 969.512 75.908C969.092 75.416 968.492 75.17 967.712 75.17ZM981.717 83.162C980.685 83.162 979.911 82.892 979.395 82.352C978.879 81.8 978.621 81.008 978.621 79.976V75.386H976.911V74.252H978.621V71.57H980.079V74.252H982.851V75.386H980.079V79.832C980.079 80.516 980.223 81.038 980.511 81.398C980.799 81.746 981.267 81.92 981.915 81.92C982.107 81.92 982.299 81.896 982.491 81.848C982.683 81.8 982.857 81.752 983.013 81.704L983.265 82.82C983.109 82.904 982.881 82.982 982.581 83.054C982.281 83.126 981.993 83.162 981.717 83.162ZM988.048 83.162C987.196 83.162 986.458 82.976 985.834 82.604C985.21 82.232 984.724 81.71 984.376 81.038C984.04 80.354 983.872 79.55 983.872 78.626C983.872 77.702 984.04 76.904 984.376 76.232C984.724 75.548 985.21 75.02 985.834 74.648C986.458 74.276 987.196 74.09 988.048 74.09C988.888 74.09 989.62 74.276 990.244 74.648C990.88 75.02 991.366 75.548 991.702 76.232C992.05 76.904 992.224 77.702 992.224 78.626C992.224 79.55 992.05 80.354 991.702 81.038C991.366 81.71 990.88 82.232 990.244 82.604C989.62 82.976 988.888 83.162 988.048 83.162ZM988.048 81.992C988.864 81.992 989.518 81.704 990.01 81.128C990.502 80.54 990.748 79.706 990.748 78.626C990.748 77.534 990.502 76.7 990.01 76.124C989.518 75.548 988.864 75.26 988.048 75.26C987.22 75.26 986.56 75.548 986.068 76.124C985.588 76.7 985.348 77.534 985.348 78.626C985.348 79.706 985.588 80.54 986.068 81.128C986.56 81.704 987.22 81.992 988.048 81.992ZM1002.74 83.162C1001.87 83.162 1001.11 82.976 1000.48 82.604C999.841 82.22 999.349 81.686 999.001 81.002C998.665 80.306 998.497 79.496 998.497 78.572C998.497 77.18 998.875 76.088 999.631 75.296C1000.39 74.492 1001.42 74.09 1002.74 74.09C1003.28 74.09 1003.82 74.186 1004.35 74.378C1004.87 74.57 1005.31 74.84 1005.66 75.188L1005.16 76.25C1004.81 75.914 1004.42 75.668 1004 75.512C1003.6 75.356 1003.21 75.278 1002.83 75.278C1001.92 75.278 1001.22 75.566 1000.73 76.142C1000.24 76.706 999.991 77.522 999.991 78.59C999.991 79.634 1000.24 80.462 1000.73 81.074C1001.22 81.674 1001.92 81.974 1002.83 81.974C1003.21 81.974 1003.6 81.896 1004 81.74C1004.42 81.584 1004.81 81.332 1005.16 80.984L1005.66 82.046C1005.31 82.394 1004.87 82.67 1004.33 82.874C1003.8 83.066 1003.27 83.162 1002.74 83.162ZM1010.83 83.162C1009.98 83.162 1009.24 82.976 1008.62 82.604C1007.99 82.232 1007.51 81.71 1007.16 81.038C1006.82 80.354 1006.65 79.55 1006.65 78.626C1006.65 77.702 1006.82 76.904 1007.16 76.232C1007.51 75.548 1007.99 75.02 1008.62 74.648C1009.24 74.276 1009.98 74.09 1010.83 74.09C1011.67 74.09 1012.4 74.276 1013.03 74.648C1013.66 75.02 1014.15 75.548 1014.48 76.232C1014.83 76.904 1015.01 77.702 1015.01 78.626C1015.01 79.55 1014.83 80.354 1014.48 81.038C1014.15 81.71 1013.66 82.232 1013.03 82.604C1012.4 82.976 1011.67 83.162 1010.83 83.162ZM1010.83 81.992C1011.65 81.992 1012.3 81.704 1012.79 81.128C1013.28 80.54 1013.53 79.706 1013.53 78.626C1013.53 77.534 1013.28 76.7 1012.79 76.124C1012.3 75.548 1011.65 75.26 1010.83 75.26C1010 75.26 1009.34 75.548 1008.85 76.124C1008.37 76.7 1008.13 77.534 1008.13 78.626C1008.13 79.706 1008.37 80.54 1008.85 81.128C1009.34 81.704 1010 81.992 1010.83 81.992ZM1017.23 83V74.252H1018.65V75.728C1018.92 75.2 1019.28 74.798 1019.75 74.522C1020.22 74.234 1020.77 74.09 1021.39 74.09C1022.76 74.09 1023.63 74.684 1024.02 75.872C1024.28 75.32 1024.67 74.888 1025.19 74.576C1025.7 74.252 1026.3 74.09 1026.97 74.09C1028.91 74.09 1029.89 75.242 1029.89 77.546V83H1028.43V77.618C1028.43 76.814 1028.28 76.226 1028 75.854C1027.72 75.47 1027.26 75.278 1026.61 75.278C1025.9 75.278 1025.34 75.53 1024.92 76.034C1024.5 76.538 1024.29 77.21 1024.29 78.05V83H1022.83V77.618C1022.83 76.814 1022.69 76.226 1022.4 75.854C1022.12 75.47 1021.66 75.278 1021.01 75.278C1020.29 75.278 1019.72 75.53 1019.3 76.034C1018.89 76.538 1018.69 77.21 1018.69 78.05V83H1017.23ZM1036.55 83.162C1035.17 83.162 1034.08 82.76 1033.28 81.956C1032.47 81.14 1032.07 80.036 1032.07 78.644C1032.07 77.744 1032.25 76.952 1032.61 76.268C1032.97 75.572 1033.46 75.038 1034.09 74.666C1034.72 74.282 1035.46 74.09 1036.28 74.09C1037.47 74.09 1038.4 74.474 1039.07 75.242C1039.75 75.998 1040.08 77.042 1040.08 78.374V78.932H1033.49C1033.54 79.928 1033.83 80.69 1034.36 81.218C1034.89 81.734 1035.62 81.992 1036.55 81.992C1037.08 81.992 1037.59 81.914 1038.07 81.758C1038.55 81.59 1039 81.32 1039.43 80.948L1039.94 81.974C1039.54 82.346 1039.04 82.64 1038.43 82.856C1037.81 83.06 1037.19 83.162 1036.55 83.162ZM1036.32 75.17C1035.49 75.17 1034.84 75.428 1034.36 75.944C1033.88 76.46 1033.6 77.138 1033.51 77.978H1038.82C1038.79 77.09 1038.55 76.4 1038.12 75.908C1037.7 75.416 1037.1 75.17 1036.32 75.17ZM1041.96 83V81.164H1043.79V83H1041.96ZM1046.05 83V81.164H1047.89V83H1046.05ZM1050.15 83V81.164H1051.98V83H1050.15Z" fill="white"/>
</g>
</g>
<line id="Line 2" x1="1143" y1="123" x2="4" y2="123" stroke="white" stroke-opacity="0.3" stroke-width="6" stroke-linecap="round"/>
<path id="Q3" d="M9.092 166.814L7.916 164.924C7.59867 164.392 7.08067 164.126 6.362 164.126C5.44733 164.126 4.64933 163.921 3.968 163.51C3.296 163.09 2.77333 162.502 2.4 161.746C2.036 160.99 1.854 160.094 1.854 159.058C1.854 158.022 2.036 157.126 2.4 156.37C2.764 155.614 3.282 155.031 3.954 154.62C4.63533 154.209 5.438 154.004 6.362 154.004C7.29533 154.004 8.098 154.209 8.77 154.62C9.45133 155.031 9.974 155.614 10.338 156.37C10.7113 157.117 10.898 158.008 10.898 159.044C10.898 160.248 10.6507 161.265 10.156 162.096C9.66133 162.917 8.97533 163.496 8.098 163.832C8.47133 163.953 8.812 164.275 9.12 164.798L10.058 166.31L9.092 166.814ZM6.362 163.104C7.41667 163.104 8.23333 162.749 8.812 162.04C9.39067 161.331 9.68 160.337 9.68 159.058C9.68 157.779 9.39067 156.79 8.812 156.09C8.23333 155.381 7.41667 155.026 6.362 155.026C5.326 155.026 4.51867 155.381 3.94 156.09C3.36133 156.79 3.072 157.779 3.072 159.058C3.072 160.327 3.36133 161.321 3.94 162.04C4.51867 162.749 5.326 163.104 6.362 163.104ZM15.8204 164.126C15.1671 164.126 14.5464 164.028 13.9584 163.832C13.3704 163.627 12.8758 163.333 12.4744 162.95L12.8944 162.04C13.3518 162.413 13.8138 162.684 14.2804 162.852C14.7471 163.02 15.2511 163.104 15.7924 163.104C16.5018 163.104 17.0431 162.95 17.4164 162.642C17.7991 162.325 17.9904 161.863 17.9904 161.256C17.9904 160.677 17.7991 160.239 17.4164 159.94C17.0338 159.641 16.4784 159.492 15.7504 159.492H14.2944V158.498H15.6524C16.2871 158.498 16.7864 158.335 17.1504 158.008C17.5238 157.672 17.7104 157.215 17.7104 156.636C17.7104 156.123 17.5378 155.726 17.1924 155.446C16.8564 155.166 16.3758 155.026 15.7504 155.026C14.7238 155.026 13.8278 155.399 13.0624 156.146L12.6424 155.25C13.0064 154.858 13.4684 154.555 14.0284 154.34C14.5978 154.116 15.1951 154.004 15.8204 154.004C16.7724 154.004 17.5144 154.228 18.0464 154.676C18.5878 155.124 18.8584 155.745 18.8584 156.538C18.8584 157.089 18.7184 157.574 18.4384 157.994C18.1584 158.405 17.7711 158.703 17.2764 158.89C17.8644 159.049 18.3218 159.343 18.6484 159.772C18.9751 160.192 19.1384 160.715 19.1384 161.34C19.1384 162.189 18.8398 162.866 18.2424 163.37C17.6544 163.874 16.8471 164.126 15.8204 164.126Z" fill="white" fill-opacity="0.6"/>
<path id="Q4" d="M558.092 166.814L556.916 164.924C556.599 164.392 556.081 164.126 555.362 164.126C554.447 164.126 553.649 163.921 552.968 163.51C552.296 163.09 551.773 162.502 551.4 161.746C551.036 160.99 550.854 160.094 550.854 159.058C550.854 158.022 551.036 157.126 551.4 156.37C551.764 155.614 552.282 155.031 552.954 154.62C553.635 154.209 554.438 154.004 555.362 154.004C556.295 154.004 557.098 154.209 557.77 154.62C558.451 155.031 558.974 155.614 559.338 156.37C559.711 157.117 559.898 158.008 559.898 159.044C559.898 160.248 559.651 161.265 559.156 162.096C558.661 162.917 557.975 163.496 557.098 163.832C557.471 163.953 557.812 164.275 558.12 164.798L559.058 166.31L558.092 166.814ZM555.362 163.104C556.417 163.104 557.233 162.749 557.812 162.04C558.391 161.331 558.68 160.337 558.68 159.058C558.68 157.779 558.391 156.79 557.812 156.09C557.233 155.381 556.417 155.026 555.362 155.026C554.326 155.026 553.519 155.381 552.94 156.09C552.361 156.79 552.072 157.779 552.072 159.058C552.072 160.327 552.361 161.321 552.94 162.04C553.519 162.749 554.326 163.104 555.362 163.104ZM566.01 164V161.886H561.46V161.018L566.206 154.13H567.172V160.906H568.642V161.886H567.172V164H566.01ZM566.01 160.906V156.02L562.65 160.906H566.01Z" fill="white" fill-opacity="0.6"/>
<path id="2022" d="M1115.26 164V163.132L1118.63 159.492C1119.11 158.969 1119.45 158.493 1119.66 158.064C1119.87 157.635 1119.98 157.196 1119.98 156.748C1119.98 155.6 1119.31 155.026 1117.98 155.026C1116.98 155.026 1116.1 155.399 1115.33 156.146L1114.9 155.25C1115.26 154.877 1115.72 154.578 1116.28 154.354C1116.85 154.121 1117.45 154.004 1118.07 154.004C1119.06 154.004 1119.82 154.237 1120.34 154.704C1120.87 155.161 1121.14 155.815 1121.14 156.664C1121.14 157.252 1121 157.831 1120.71 158.4C1120.42 158.96 1119.97 159.557 1119.38 160.192L1116.73 163.02H1121.55V164H1115.26ZM1126.59 164.126C1125.47 164.126 1124.61 163.692 1124.02 162.824C1123.43 161.956 1123.14 160.701 1123.14 159.058C1123.14 157.406 1123.43 156.151 1124.02 155.292C1124.61 154.433 1125.47 154.004 1126.59 154.004C1127.73 154.004 1128.59 154.433 1129.17 155.292C1129.76 156.141 1130.05 157.392 1130.05 159.044C1130.05 160.696 1129.75 161.956 1129.16 162.824C1128.57 163.692 1127.71 164.126 1126.59 164.126ZM1126.59 163.132C1127.38 163.132 1127.96 162.801 1128.33 162.138C1128.71 161.475 1128.9 160.444 1128.9 159.044C1128.9 157.644 1128.72 156.622 1128.34 155.978C1127.97 155.325 1127.39 154.998 1126.59 154.998C1125.81 154.998 1125.23 155.325 1124.84 155.978C1124.47 156.631 1124.28 157.653 1124.28 159.044C1124.28 160.444 1124.47 161.475 1124.84 162.138C1125.23 162.801 1125.81 163.132 1126.59 163.132ZM1132.05 164V163.132L1135.42 159.492C1135.9 158.969 1136.24 158.493 1136.45 158.064C1136.66 157.635 1136.77 157.196 1136.77 156.748C1136.77 155.6 1136.1 155.026 1134.77 155.026C1133.77 155.026 1132.88 155.399 1132.12 156.146L1131.69 155.25C1132.05 154.877 1132.51 154.578 1133.07 154.354C1133.64 154.121 1134.24 154.004 1134.86 154.004C1135.85 154.004 1136.61 154.237 1137.13 154.704C1137.66 155.161 1137.93 155.815 1137.93 156.664C1137.93 157.252 1137.78 157.831 1137.5 158.4C1137.21 158.96 1136.76 159.557 1136.17 160.192L1133.52 163.02H1138.34V164H1132.05ZM1140.44 164V163.132L1143.82 159.492C1144.29 158.969 1144.63 158.493 1144.84 158.064C1145.05 157.635 1145.16 157.196 1145.16 156.748C1145.16 155.6 1144.49 155.026 1143.16 155.026C1142.16 155.026 1141.28 155.399 1140.51 156.146L1140.08 155.25C1140.44 154.877 1140.91 154.578 1141.47 154.354C1142.03 154.121 1142.63 154.004 1143.26 154.004C1144.25 154.004 1145 154.237 1145.53 154.704C1146.06 155.161 1146.32 155.815 1146.32 156.664C1146.32 157.252 1146.18 157.831 1145.89 158.4C1145.6 158.96 1145.16 159.557 1144.56 160.192L1141.91 163.02H1146.73V164H1140.44Z" fill="white" fill-opacity="0.6"/>
<rect id="Rectangle 1" x="1" width="277" height="40" rx="20" fill="#C53665"/>
<rect id="Rectangle 4" x="93" y="57" width="277" height="40" rx="20" fill="#55AB86"/>
<rect id="Rectangle 2" x="377" width="277" height="40" rx="20" fill="#D1893C"/>
<rect id="Rectangle 5" x="469" y="57" width="277" height="40" rx="20" fill="#C53665"/>
<rect id="Rectangle 3" x="753" width="277" height="40" rx="20" fill="#55AB86"/>
<path id="Store Discovery Page" d="M434.546 26.162C433.55 26.162 432.65 26.036 431.846 25.784C431.042 25.52 430.346 25.142 429.758 24.65L430.28 23.462C430.892 23.93 431.534 24.278 432.206 24.506C432.878 24.734 433.658 24.848 434.546 24.848C435.626 24.848 436.424 24.65 436.94 24.254C437.468 23.846 437.732 23.312 437.732 22.652C437.732 22.124 437.54 21.704 437.156 21.392C436.784 21.08 436.154 20.834 435.266 20.654L433.394 20.276C432.266 20.036 431.42 19.646 430.856 19.106C430.304 18.554 430.028 17.822 430.028 16.91C430.028 16.154 430.22 15.494 430.604 14.93C431 14.366 431.546 13.928 432.242 13.616C432.938 13.304 433.742 13.148 434.654 13.148C435.506 13.148 436.298 13.286 437.03 13.562C437.762 13.826 438.38 14.21 438.884 14.714L438.362 15.866C437.822 15.374 437.252 15.02 436.652 14.804C436.052 14.576 435.38 14.462 434.636 14.462C433.688 14.462 432.932 14.684 432.368 15.128C431.804 15.56 431.522 16.136 431.522 16.856C431.522 17.432 431.696 17.888 432.044 18.224C432.404 18.56 432.986 18.806 433.79 18.962L435.662 19.358C436.874 19.61 437.768 19.994 438.344 20.51C438.932 21.014 439.226 21.704 439.226 22.58C439.226 23.288 439.034 23.912 438.65 24.452C438.278 24.992 437.738 25.412 437.03 25.712C436.334 26.012 435.506 26.162 434.546 26.162ZM444.793 26.162C443.761 26.162 442.987 25.892 442.471 25.352C441.955 24.8 441.697 24.008 441.697 22.976V18.386H439.987V17.252H441.697V14.57H443.155V17.252H445.927V18.386H443.155V22.832C443.155 23.516 443.299 24.038 443.587 24.398C443.875 24.746 444.343 24.92 444.991 24.92C445.183 24.92 445.375 24.896 445.567 24.848C445.759 24.8 445.933 24.752 446.089 24.704L446.341 25.82C446.185 25.904 445.957 25.982 445.657 26.054C445.357 26.126 445.069 26.162 444.793 26.162ZM451.124 26.162C450.272 26.162 449.534 25.976 448.91 25.604C448.286 25.232 447.8 24.71 447.452 24.038C447.116 23.354 446.948 22.55 446.948 21.626C446.948 20.702 447.116 19.904 447.452 19.232C447.8 18.548 448.286 18.02 448.91 17.648C449.534 17.276 450.272 17.09 451.124 17.09C451.964 17.09 452.696 17.276 453.32 17.648C453.956 18.02 454.442 18.548 454.778 19.232C455.126 19.904 455.3 20.702 455.3 21.626C455.3 22.55 455.126 23.354 454.778 24.038C454.442 24.71 453.956 25.232 453.32 25.604C452.696 25.976 451.964 26.162 451.124 26.162ZM451.124 24.992C451.94 24.992 452.594 24.704 453.086 24.128C453.578 23.54 453.824 22.706 453.824 21.626C453.824 20.534 453.578 19.7 453.086 19.124C452.594 18.548 451.94 18.26 451.124 18.26C450.296 18.26 449.636 18.548 449.144 19.124C448.664 19.7 448.424 20.534 448.424 21.626C448.424 22.706 448.664 23.54 449.144 24.128C449.636 24.704 450.296 24.992 451.124 24.992ZM457.49 26V17.252H458.912V18.818C459.38 17.762 460.34 17.18 461.792 17.072L462.314 17.018L462.422 18.278L461.504 18.386C460.676 18.458 460.046 18.722 459.614 19.178C459.182 19.622 458.966 20.234 458.966 21.014V26H457.49ZM467.778 26.162C466.398 26.162 465.306 25.76 464.502 24.956C463.698 24.14 463.296 23.036 463.296 21.644C463.296 20.744 463.476 19.952 463.836 19.268C464.196 18.572 464.688 18.038 465.312 17.666C465.948 17.282 466.68 17.09 467.508 17.09C468.696 17.09 469.626 17.474 470.298 18.242C470.97 18.998 471.306 20.042 471.306 21.374V21.932H464.718C464.766 22.928 465.054 23.69 465.582 24.218C466.11 24.734 466.842 24.992 467.778 24.992C468.306 24.992 468.81 24.914 469.29 24.758C469.77 24.59 470.226 24.32 470.658 23.948L471.162 24.974C470.766 25.346 470.262 25.64 469.65 25.856C469.038 26.06 468.414 26.162 467.778 26.162ZM467.544 18.17C466.716 18.17 466.062 18.428 465.582 18.944C465.102 19.46 464.82 20.138 464.736 20.978H470.046C470.01 20.09 469.776 19.4 469.344 18.908C468.924 18.416 468.324 18.17 467.544 18.17ZM478.237 26V13.31H482.521C484.573 13.31 486.157 13.856 487.273 14.948C488.389 16.028 488.947 17.594 488.947 19.646C488.947 21.698 488.389 23.27 487.273 24.362C486.157 25.454 484.573 26 482.521 26H478.237ZM479.713 24.74H482.413C485.725 24.74 487.381 23.042 487.381 19.646C487.381 16.262 485.725 14.57 482.413 14.57H479.713V24.74ZM491.218 15.074V13.436H493.018V15.074H491.218ZM491.398 26V17.252H492.856V26H491.398ZM498.534 26.162C497.85 26.162 497.202 26.066 496.59 25.874C495.978 25.682 495.474 25.412 495.078 25.064L495.546 24.038C495.978 24.386 496.452 24.644 496.968 24.812C497.496 24.968 498.03 25.046 498.57 25.046C499.254 25.046 499.77 24.92 500.118 24.668C500.466 24.416 500.64 24.074 500.64 23.642C500.64 23.306 500.526 23.042 500.298 22.85C500.07 22.646 499.71 22.49 499.218 22.382L497.58 22.022C496.092 21.698 495.348 20.93 495.348 19.718C495.348 18.926 495.66 18.29 496.284 17.81C496.92 17.33 497.748 17.09 498.768 17.09C499.368 17.09 499.938 17.186 500.478 17.378C501.03 17.558 501.486 17.828 501.846 18.188L501.36 19.214C501.012 18.89 500.604 18.644 500.136 18.476C499.68 18.296 499.224 18.206 498.768 18.206C498.096 18.206 497.586 18.338 497.238 18.602C496.89 18.866 496.716 19.214 496.716 19.646C496.716 20.318 497.16 20.75 498.048 20.942L499.686 21.284C500.454 21.452 501.036 21.722 501.432 22.094C501.828 22.454 502.026 22.946 502.026 23.57C502.026 24.374 501.708 25.01 501.072 25.478C500.436 25.934 499.59 26.162 498.534 26.162ZM507.956 26.162C507.08 26.162 506.324 25.976 505.688 25.604C505.052 25.22 504.56 24.686 504.212 24.002C503.876 23.306 503.708 22.496 503.708 21.572C503.708 20.18 504.086 19.088 504.842 18.296C505.598 17.492 506.636 17.09 507.956 17.09C508.496 17.09 509.03 17.186 509.558 17.378C510.086 17.57 510.524 17.84 510.872 18.188L510.368 19.25C510.02 18.914 509.636 18.668 509.216 18.512C508.808 18.356 508.418 18.278 508.046 18.278C507.134 18.278 506.432 18.566 505.94 19.142C505.448 19.706 505.202 20.522 505.202 21.59C505.202 22.634 505.448 23.462 505.94 24.074C506.432 24.674 507.134 24.974 508.046 24.974C508.418 24.974 508.808 24.896 509.216 24.74C509.636 24.584 510.02 24.332 510.368 23.984L510.872 25.046C510.524 25.394 510.08 25.67 509.54 25.874C509.012 26.066 508.484 26.162 507.956 26.162ZM516.04 26.162C515.188 26.162 514.45 25.976 513.826 25.604C513.202 25.232 512.716 24.71 512.368 24.038C512.032 23.354 511.864 22.55 511.864 21.626C511.864 20.702 512.032 19.904 512.368 19.232C512.716 18.548 513.202 18.02 513.826 17.648C514.45 17.276 515.188 17.09 516.04 17.09C516.88 17.09 517.612 17.276 518.236 17.648C518.872 18.02 519.358 18.548 519.694 19.232C520.042 19.904 520.216 20.702 520.216 21.626C520.216 22.55 520.042 23.354 519.694 24.038C519.358 24.71 518.872 25.232 518.236 25.604C517.612 25.976 516.88 26.162 516.04 26.162ZM516.04 24.992C516.856 24.992 517.51 24.704 518.002 24.128C518.494 23.54 518.74 22.706 518.74 21.626C518.74 20.534 518.494 19.7 518.002 19.124C517.51 18.548 516.856 18.26 516.04 18.26C515.212 18.26 514.552 18.548 514.06 19.124C513.58 19.7 513.34 20.534 513.34 21.626C513.34 22.706 513.58 23.54 514.06 24.128C514.552 24.704 515.212 24.992 516.04 24.992ZM524.857 26L521.095 17.252H522.679L525.577 24.344L528.511 17.252H530.005L526.225 26H524.857ZM535.366 26.162C533.986 26.162 532.894 25.76 532.09 24.956C531.286 24.14 530.884 23.036 530.884 21.644C530.884 20.744 531.064 19.952 531.424 19.268C531.784 18.572 532.276 18.038 532.9 17.666C533.536 17.282 534.268 17.09 535.096 17.09C536.284 17.09 537.214 17.474 537.886 18.242C538.558 18.998 538.894 20.042 538.894 21.374V21.932H532.306C532.354 22.928 532.642 23.69 533.17 24.218C533.698 24.734 534.43 24.992 535.366 24.992C535.894 24.992 536.398 24.914 536.878 24.758C537.358 24.59 537.814 24.32 538.246 23.948L538.75 24.974C538.354 25.346 537.85 25.64 537.238 25.856C536.626 26.06 536.002 26.162 535.366 26.162ZM535.132 18.17C534.304 18.17 533.65 18.428 533.17 18.944C532.69 19.46 532.408 20.138 532.324 20.978H537.634C537.598 20.09 537.364 19.4 536.932 18.908C536.512 18.416 535.912 18.17 535.132 18.17ZM541.004 26V17.252H542.426V18.818C542.894 17.762 543.854 17.18 545.306 17.072L545.828 17.018L545.936 18.278L545.018 18.386C544.19 18.458 543.56 18.722 543.128 19.178C542.696 19.622 542.48 20.234 542.48 21.014V26H541.004ZM549.008 29.24L550.502 25.856L546.812 17.252H548.396L551.294 24.344L554.21 17.252H555.74L550.538 29.24H549.008ZM562.067 26V13.31H567.089C568.457 13.31 569.501 13.64 570.221 14.3C570.953 14.96 571.319 15.902 571.319 17.126C571.319 18.338 570.953 19.28 570.221 19.952C569.501 20.612 568.457 20.942 567.089 20.942H563.543V26H562.067ZM563.543 19.7H566.909C568.877 19.7 569.861 18.842 569.861 17.126C569.861 15.398 568.877 14.534 566.909 14.534H563.543V19.7ZM575.574 26.162C574.974 26.162 574.434 26.048 573.954 25.82C573.486 25.58 573.114 25.256 572.838 24.848C572.562 24.44 572.424 23.984 572.424 23.48C572.424 22.844 572.586 22.34 572.91 21.968C573.246 21.596 573.792 21.332 574.548 21.176C575.316 21.008 576.36 20.924 577.68 20.924H578.256V20.366C578.256 19.622 578.1 19.088 577.788 18.764C577.488 18.428 577.002 18.26 576.33 18.26C575.802 18.26 575.292 18.338 574.8 18.494C574.308 18.638 573.804 18.878 573.288 19.214L572.784 18.152C573.24 17.828 573.792 17.57 574.44 17.378C575.1 17.186 575.73 17.09 576.33 17.09C577.458 17.09 578.292 17.366 578.832 17.918C579.384 18.47 579.66 19.328 579.66 20.492V26H578.292V24.488C578.064 25.004 577.71 25.412 577.23 25.712C576.762 26.012 576.21 26.162 575.574 26.162ZM575.808 25.064C576.528 25.064 577.116 24.818 577.572 24.326C578.028 23.822 578.256 23.186 578.256 22.418V21.878H577.698C576.726 21.878 575.958 21.926 575.394 22.022C574.842 22.106 574.452 22.262 574.224 22.49C574.008 22.706 573.9 23.006 573.9 23.39C573.9 23.882 574.068 24.284 574.404 24.596C574.752 24.908 575.22 25.064 575.808 25.064ZM586.235 29.402C585.479 29.402 584.765 29.3 584.093 29.096C583.433 28.904 582.845 28.61 582.329 28.214L582.815 27.152C583.355 27.536 583.889 27.812 584.417 27.98C584.957 28.148 585.539 28.232 586.163 28.232C587.891 28.232 588.755 27.344 588.755 25.568V24.02C588.503 24.572 588.107 25.01 587.567 25.334C587.039 25.646 586.433 25.802 585.749 25.802C584.945 25.802 584.249 25.616 583.661 25.244C583.073 24.872 582.617 24.362 582.293 23.714C581.981 23.054 581.825 22.292 581.825 21.428C581.825 20.564 581.981 19.808 582.293 19.16C582.617 18.5 583.073 17.99 583.661 17.63C584.249 17.27 584.945 17.09 585.749 17.09C586.433 17.09 587.039 17.246 587.567 17.558C588.107 17.87 588.503 18.296 588.755 18.836V17.252H590.177V25.37C590.177 26.714 589.841 27.722 589.169 28.394C588.509 29.066 587.531 29.402 586.235 29.402ZM586.019 24.614C586.859 24.614 587.525 24.326 588.017 23.75C588.509 23.174 588.755 22.4 588.755 21.428C588.755 20.456 588.509 19.688 588.017 19.124C587.525 18.548 586.859 18.26 586.019 18.26C585.191 18.26 584.531 18.548 584.039 19.124C583.547 19.688 583.301 20.456 583.301 21.428C583.301 22.4 583.547 23.174 584.039 23.75C584.531 24.326 585.191 24.614 586.019 24.614ZM596.854 26.162C595.474 26.162 594.382 25.76 593.578 24.956C592.774 24.14 592.372 23.036 592.372 21.644C592.372 20.744 592.552 19.952 592.912 19.268C593.272 18.572 593.764 18.038 594.388 17.666C595.024 17.282 595.756 17.09 596.584 17.09C597.772 17.09 598.702 17.474 599.374 18.242C600.046 18.998 600.382 20.042 600.382 21.374V21.932H593.794C593.842 22.928 594.13 23.69 594.658 24.218C595.186 24.734 595.918 24.992 596.854 24.992C597.382 24.992 597.886 24.914 598.366 24.758C598.846 24.59 599.302 24.32 599.734 23.948L600.238 24.974C599.842 25.346 599.338 25.64 598.726 25.856C598.114 26.06 597.49 26.162 596.854 26.162ZM596.62 18.17C595.792 18.17 595.138 18.428 594.658 18.944C594.178 19.46 593.896 20.138 593.812 20.978H599.122C599.086 20.09 598.852 19.4 598.42 18.908C598 18.416 597.4 18.17 596.62 18.17Z" fill="white"/>
<path id="Custom Store Themes" d="M524.592 83.162C523.344 83.162 522.276 82.898 521.388 82.37C520.5 81.842 519.816 81.092 519.336 80.12C518.868 79.148 518.634 77.99 518.634 76.646C518.634 75.314 518.868 74.162 519.336 73.19C519.816 72.218 520.5 71.468 521.388 70.94C522.276 70.412 523.344 70.148 524.592 70.148C525.468 70.148 526.272 70.286 527.004 70.562C527.748 70.838 528.378 71.24 528.894 71.768L528.318 72.974C527.766 72.458 527.19 72.086 526.59 71.858C526.002 71.618 525.348 71.498 524.628 71.498C523.2 71.498 522.108 71.948 521.352 72.848C520.596 73.748 520.218 75.014 520.218 76.646C520.218 78.29 520.596 79.562 521.352 80.462C522.108 81.362 523.2 81.812 524.628 81.812C525.348 81.812 526.002 81.698 526.59 81.47C527.19 81.23 527.766 80.852 528.318 80.336L528.894 81.542C528.378 82.058 527.748 82.46 527.004 82.748C526.272 83.024 525.468 83.162 524.592 83.162ZM533.918 83.162C531.818 83.162 530.768 82.004 530.768 79.688V74.252H532.226V79.67C532.226 80.45 532.382 81.026 532.694 81.398C533.018 81.77 533.522 81.956 534.206 81.956C534.95 81.956 535.556 81.71 536.024 81.218C536.492 80.714 536.726 80.048 536.726 79.22V74.252H538.184V83H536.762V81.524C536.486 82.052 536.096 82.46 535.592 82.748C535.1 83.024 534.542 83.162 533.918 83.162ZM543.864 83.162C543.18 83.162 542.532 83.066 541.92 82.874C541.308 82.682 540.804 82.412 540.408 82.064L540.876 81.038C541.308 81.386 541.782 81.644 542.298 81.812C542.826 81.968 543.36 82.046 543.9 82.046C544.584 82.046 545.1 81.92 545.448 81.668C545.796 81.416 545.97 81.074 545.97 80.642C545.97 80.306 545.856 80.042 545.628 79.85C545.4 79.646 545.04 79.49 544.548 79.382L542.91 79.022C541.422 78.698 540.678 77.93 540.678 76.718C540.678 75.926 540.99 75.29 541.614 74.81C542.25 74.33 543.078 74.09 544.098 74.09C544.698 74.09 545.268 74.186 545.808 74.378C546.36 74.558 546.816 74.828 547.176 75.188L546.69 76.214C546.342 75.89 545.934 75.644 545.466 75.476C545.01 75.296 544.554 75.206 544.098 75.206C543.426 75.206 542.916 75.338 542.568 75.602C542.22 75.866 542.046 76.214 542.046 76.646C542.046 77.318 542.49 77.75 543.378 77.942L545.016 78.284C545.784 78.452 546.366 78.722 546.762 79.094C547.158 79.454 547.356 79.946 547.356 80.57C547.356 81.374 547.038 82.01 546.402 82.478C545.766 82.934 544.92 83.162 543.864 83.162ZM553 83.162C551.968 83.162 551.194 82.892 550.678 82.352C550.162 81.8 549.904 81.008 549.904 79.976V75.386H548.194V74.252H549.904V71.57H551.362V74.252H554.134V75.386H551.362V79.832C551.362 80.516 551.506 81.038 551.794 81.398C552.082 81.746 552.55 81.92 553.198 81.92C553.39 81.92 553.582 81.896 553.774 81.848C553.966 81.8 554.14 81.752 554.296 81.704L554.548 82.82C554.392 82.904 554.164 82.982 553.864 83.054C553.564 83.126 553.276 83.162 553 83.162ZM559.331 83.162C558.479 83.162 557.741 82.976 557.117 82.604C556.493 82.232 556.007 81.71 555.659 81.038C555.323 80.354 555.155 79.55 555.155 78.626C555.155 77.702 555.323 76.904 555.659 76.232C556.007 75.548 556.493 75.02 557.117 74.648C557.741 74.276 558.479 74.09 559.331 74.09C560.171 74.09 560.903 74.276 561.527 74.648C562.163 75.02 562.649 75.548 562.985 76.232C563.333 76.904 563.507 77.702 563.507 78.626C563.507 79.55 563.333 80.354 562.985 81.038C562.649 81.71 562.163 82.232 561.527 82.604C560.903 82.976 560.171 83.162 559.331 83.162ZM559.331 81.992C560.147 81.992 560.801 81.704 561.293 81.128C561.785 80.54 562.031 79.706 562.031 78.626C562.031 77.534 561.785 76.7 561.293 76.124C560.801 75.548 560.147 75.26 559.331 75.26C558.503 75.26 557.843 75.548 557.351 76.124C556.871 76.7 556.631 77.534 556.631 78.626C556.631 79.706 556.871 80.54 557.351 81.128C557.843 81.704 558.503 81.992 559.331 81.992ZM565.733 83V74.252H567.155V75.728C567.419 75.2 567.785 74.798 568.253 74.522C568.721 74.234 569.267 74.09 569.891 74.09C571.259 74.09 572.135 74.684 572.519 75.872C572.783 75.32 573.173 74.888 573.689 74.576C574.205 74.252 574.799 74.09 575.471 74.09C577.415 74.09 578.387 75.242 578.387 77.546V83H576.929V77.618C576.929 76.814 576.785 76.226 576.497 75.854C576.221 75.47 575.759 75.278 575.111 75.278C574.403 75.278 573.839 75.53 573.419 76.034C572.999 76.538 572.789 77.21 572.789 78.05V83H571.331V77.618C571.331 76.814 571.187 76.226 570.899 75.854C570.623 75.47 570.161 75.278 569.513 75.278C568.793 75.278 568.223 75.53 567.803 76.034C567.395 76.538 567.191 77.21 567.191 78.05V83H565.733ZM590.038 83.162C589.042 83.162 588.142 83.036 587.338 82.784C586.534 82.52 585.838 82.142 585.25 81.65L585.772 80.462C586.384 80.93 587.026 81.278 587.698 81.506C588.37 81.734 589.15 81.848 590.038 81.848C591.118 81.848 591.916 81.65 592.432 81.254C592.96 80.846 593.224 80.312 593.224 79.652C593.224 79.124 593.032 78.704 592.648 78.392C592.276 78.08 591.646 77.834 590.758 77.654L588.886 77.276C587.758 77.036 586.912 76.646 586.348 76.106C585.796 75.554 585.52 74.822 585.52 73.91C585.52 73.154 585.712 72.494 586.096 71.93C586.492 71.366 587.038 70.928 587.734 70.616C588.43 70.304 589.234 70.148 590.146 70.148C590.998 70.148 591.79 70.286 592.522 70.562C593.254 70.826 593.872 71.21 594.376 71.714L593.854 72.866C593.314 72.374 592.744 72.02 592.144 71.804C591.544 71.576 590.872 71.462 590.128 71.462C589.18 71.462 588.424 71.684 587.86 72.128C587.296 72.56 587.014 73.136 587.014 73.856C587.014 74.432 587.188 74.888 587.536 75.224C587.896 75.56 588.478 75.806 589.282 75.962L591.154 76.358C592.366 76.61 593.26 76.994 593.836 77.51C594.424 78.014 594.718 78.704 594.718 79.58C594.718 80.288 594.526 80.912 594.142 81.452C593.77 81.992 593.23 82.412 592.522 82.712C591.826 83.012 590.998 83.162 590.038 83.162ZM600.285 83.162C599.253 83.162 598.479 82.892 597.963 82.352C597.447 81.8 597.189 81.008 597.189 79.976V75.386H595.479V74.252H597.189V71.57H598.647V74.252H601.419V75.386H598.647V79.832C598.647 80.516 598.791 81.038 599.079 81.398C599.367 81.746 599.835 81.92 600.483 81.92C600.675 81.92 600.867 81.896 601.059 81.848C601.251 81.8 601.425 81.752 601.581 81.704L601.833 82.82C601.677 82.904 601.449 82.982 601.149 83.054C600.849 83.126 600.561 83.162 600.285 83.162ZM606.616 83.162C605.764 83.162 605.026 82.976 604.402 82.604C603.778 82.232 603.292 81.71 602.944 81.038C602.608 80.354 602.44 79.55 602.44 78.626C602.44 77.702 602.608 76.904 602.944 76.232C603.292 75.548 603.778 75.02 604.402 74.648C605.026 74.276 605.764 74.09 606.616 74.09C607.456 74.09 608.188 74.276 608.812 74.648C609.448 75.02 609.934 75.548 610.27 76.232C610.618 76.904 610.792 77.702 610.792 78.626C610.792 79.55 610.618 80.354 610.27 81.038C609.934 81.71 609.448 82.232 608.812 82.604C608.188 82.976 607.456 83.162 606.616 83.162ZM606.616 81.992C607.432 81.992 608.086 81.704 608.578 81.128C609.07 80.54 609.316 79.706 609.316 78.626C609.316 77.534 609.07 76.7 608.578 76.124C608.086 75.548 607.432 75.26 606.616 75.26C605.788 75.26 605.128 75.548 604.636 76.124C604.156 76.7 603.916 77.534 603.916 78.626C603.916 79.706 604.156 80.54 604.636 81.128C605.128 81.704 605.788 81.992 606.616 81.992ZM612.982 83V74.252H614.404V75.818C614.872 74.762 615.832 74.18 617.284 74.072L617.806 74.018L617.914 75.278L616.996 75.386C616.168 75.458 615.538 75.722 615.106 76.178C614.674 76.622 614.458 77.234 614.458 78.014V83H612.982ZM623.27 83.162C621.89 83.162 620.798 82.76 619.994 81.956C619.19 81.14 618.788 80.036 618.788 78.644C618.788 77.744 618.968 76.952 619.328 76.268C619.688 75.572 620.18 75.038 620.804 74.666C621.44 74.282 622.172 74.09 623 74.09C624.188 74.09 625.118 74.474 625.79 75.242C626.462 75.998 626.798 77.042 626.798 78.374V78.932H620.21C620.258 79.928 620.546 80.69 621.074 81.218C621.602 81.734 622.334 81.992 623.27 81.992C623.798 81.992 624.302 81.914 624.782 81.758C625.262 81.59 625.718 81.32 626.15 80.948L626.654 81.974C626.258 82.346 625.754 82.64 625.142 82.856C624.53 83.06 623.906 83.162 623.27 83.162ZM623.036 75.17C622.208 75.17 621.554 75.428 621.074 75.944C620.594 76.46 620.312 77.138 620.228 77.978H625.538C625.502 77.09 625.268 76.4 624.836 75.908C624.416 75.416 623.816 75.17 623.036 75.17ZM636.843 83V71.588H632.235V70.31H642.945V71.588H638.337V83H636.843ZM644.359 83V70.31H645.817V75.692C646.105 75.164 646.507 74.768 647.023 74.504C647.551 74.228 648.139 74.09 648.787 74.09C650.863 74.09 651.901 75.242 651.901 77.546V83H650.443V77.636C650.443 76.82 650.281 76.226 649.957 75.854C649.645 75.47 649.141 75.278 648.445 75.278C647.641 75.278 646.999 75.53 646.519 76.034C646.051 76.526 645.817 77.186 645.817 78.014V83H644.359ZM658.532 83.162C657.152 83.162 656.06 82.76 655.256 81.956C654.452 81.14 654.05 80.036 654.05 78.644C654.05 77.744 654.23 76.952 654.59 76.268C654.95 75.572 655.442 75.038 656.066 74.666C656.702 74.282 657.434 74.09 658.262 74.09C659.45 74.09 660.38 74.474 661.052 75.242C661.724 75.998 662.06 77.042 662.06 78.374V78.932H655.472C655.52 79.928 655.808 80.69 656.336 81.218C656.864 81.734 657.596 81.992 658.532 81.992C659.06 81.992 659.564 81.914 660.044 81.758C660.524 81.59 660.98 81.32 661.412 80.948L661.916 81.974C661.52 82.346 661.016 82.64 660.404 82.856C659.792 83.06 659.168 83.162 658.532 83.162ZM658.298 75.17C657.47 75.17 656.816 75.428 656.336 75.944C655.856 76.46 655.574 77.138 655.49 77.978H660.8C660.764 77.09 660.53 76.4 660.098 75.908C659.678 75.416 659.078 75.17 658.298 75.17ZM664.206 83V74.252H665.628V75.728C665.892 75.2 666.258 74.798 666.726 74.522C667.194 74.234 667.74 74.09 668.364 74.09C669.732 74.09 670.608 74.684 670.992 75.872C671.256 75.32 671.646 74.888 672.162 74.576C672.678 74.252 673.272 74.09 673.944 74.09C675.888 74.09 676.86 75.242 676.86 77.546V83H675.402V77.618C675.402 76.814 675.258 76.226 674.97 75.854C674.694 75.47 674.232 75.278 673.584 75.278C672.876 75.278 672.312 75.53 671.892 76.034C671.472 76.538 671.262 77.21 671.262 78.05V83H669.804V77.618C669.804 76.814 669.66 76.226 669.372 75.854C669.096 75.47 668.634 75.278 667.986 75.278C667.266 75.278 666.696 75.53 666.276 76.034C665.868 76.538 665.664 77.21 665.664 78.05V83H664.206ZM683.528 83.162C682.148 83.162 681.056 82.76 680.252 81.956C679.448 81.14 679.046 80.036 679.046 78.644C679.046 77.744 679.226 76.952 679.586 76.268C679.946 75.572 680.438 75.038 681.062 74.666C681.698 74.282 682.43 74.09 683.258 74.09C684.446 74.09 685.376 74.474 686.048 75.242C686.72 75.998 687.056 77.042 687.056 78.374V78.932H680.468C680.516 79.928 680.804 80.69 681.332 81.218C681.86 81.734 682.592 81.992 683.528 81.992C684.056 81.992 684.56 81.914 685.04 81.758C685.52 81.59 685.976 81.32 686.408 80.948L686.912 81.974C686.516 82.346 686.012 82.64 685.4 82.856C684.788 83.06 684.164 83.162 683.528 83.162ZM683.294 75.17C682.466 75.17 681.812 75.428 681.332 75.944C680.852 76.46 680.57 77.138 680.486 77.978H685.796C685.76 77.09 685.526 76.4 685.094 75.908C684.674 75.416 684.074 75.17 683.294 75.17ZM692.118 83.162C691.434 83.162 690.786 83.066 690.174 82.874C689.562 82.682 689.058 82.412 688.662 82.064L689.13 81.038C689.562 81.386 690.036 81.644 690.552 81.812C691.08 81.968 691.614 82.046 692.154 82.046C692.838 82.046 693.354 81.92 693.702 81.668C694.05 81.416 694.224 81.074 694.224 80.642C694.224 80.306 694.11 80.042 693.882 79.85C693.654 79.646 693.294 79.49 692.802 79.382L691.164 79.022C689.676 78.698 688.932 77.93 688.932 76.718C688.932 75.926 689.244 75.29 689.868 74.81C690.504 74.33 691.332 74.09 692.352 74.09C692.952 74.09 693.522 74.186 694.062 74.378C694.614 74.558 695.07 74.828 695.43 75.188L694.944 76.214C694.596 75.89 694.188 75.644 693.72 75.476C693.264 75.296 692.808 75.206 692.352 75.206C691.68 75.206 691.17 75.338 690.822 75.602C690.474 75.866 690.3 76.214 690.3 76.646C690.3 77.318 690.744 77.75 691.632 77.942L693.27 78.284C694.038 78.452 694.62 78.722 695.016 79.094C695.412 79.454 695.61 79.946 695.61 80.57C695.61 81.374 695.292 82.01 694.656 82.478C694.02 82.934 693.174 83.162 692.118 83.162Z" fill="white"/>
<path id="Fast Storefronts" d="M75.94 26V13.31H83.788V14.552H77.416V18.98H83.428V20.222H77.416V26H75.94ZM88.0058 26.162C87.4058 26.162 86.8658 26.048 86.3858 25.82C85.9178 25.58 85.5458 25.256 85.2698 24.848C84.9938 24.44 84.8558 23.984 84.8558 23.48C84.8558 22.844 85.0178 22.34 85.3418 21.968C85.6778 21.596 86.2238 21.332 86.9798 21.176C87.7478 21.008 88.7918 20.924 90.1118 20.924H90.6878V20.366C90.6878 19.622 90.5318 19.088 90.2198 18.764C89.9198 18.428 89.4338 18.26 88.7618 18.26C88.2338 18.26 87.7238 18.338 87.2318 18.494C86.7398 18.638 86.2358 18.878 85.7198 19.214L85.2158 18.152C85.6718 17.828 86.2238 17.57 86.8718 17.378C87.5318 17.186 88.1618 17.09 88.7618 17.09C89.8898 17.09 90.7238 17.366 91.2638 17.918C91.8158 18.47 92.0918 19.328 92.0918 20.492V26H90.7238V24.488C90.4958 25.004 90.1418 25.412 89.6618 25.712C89.1938 26.012 88.6418 26.162 88.0058 26.162ZM88.2398 25.064C88.9598 25.064 89.5478 24.818 90.0038 24.326C90.4598 23.822 90.6878 23.186 90.6878 22.418V21.878H90.1298C89.1578 21.878 88.3898 21.926 87.8258 22.022C87.2738 22.106 86.8838 22.262 86.6558 22.49C86.4398 22.706 86.3318 23.006 86.3318 23.39C86.3318 23.882 86.4998 24.284 86.8358 24.596C87.1838 24.908 87.6518 25.064 88.2398 25.064ZM97.7487 26.162C97.0647 26.162 96.4167 26.066 95.8047 25.874C95.1927 25.682 94.6887 25.412 94.2927 25.064L94.7607 24.038C95.1927 24.386 95.6667 24.644 96.1827 24.812C96.7107 24.968 97.2447 25.046 97.7847 25.046C98.4687 25.046 98.9847 24.92 99.3327 24.668C99.6807 24.416 99.8547 24.074 99.8547 23.642C99.8547 23.306 99.7407 23.042 99.5127 22.85C99.2847 22.646 98.9247 22.49 98.4327 22.382L96.7947 22.022C95.3067 21.698 94.5627 20.93 94.5627 19.718C94.5627 18.926 94.8747 18.29 95.4987 17.81C96.1347 17.33 96.9627 17.09 97.9827 17.09C98.5827 17.09 99.1527 17.186 99.6927 17.378C100.245 17.558 100.701 17.828 101.061 18.188L100.575 19.214C100.227 18.89 99.8187 18.644 99.3507 18.476C98.8947 18.296 98.4387 18.206 97.9827 18.206C97.3107 18.206 96.8007 18.338 96.4527 18.602C96.1047 18.866 95.9307 19.214 95.9307 19.646C95.9307 20.318 96.3747 20.75 97.2627 20.942L98.9007 21.284C99.6687 21.452 100.251 21.722 100.647 22.094C101.043 22.454 101.241 22.946 101.241 23.57C101.241 24.374 100.923 25.01 100.287 25.478C99.6507 25.934 98.8047 26.162 97.7487 26.162ZM106.885 26.162C105.853 26.162 105.079 25.892 104.563 25.352C104.047 24.8 103.789 24.008 103.789 22.976V18.386H102.079V17.252H103.789V14.57H105.247V17.252H108.019V18.386H105.247V22.832C105.247 23.516 105.391 24.038 105.679 24.398C105.967 24.746 106.435 24.92 107.083 24.92C107.275 24.92 107.467 24.896 107.659 24.848C107.851 24.8 108.025 24.752 108.181 24.704L108.433 25.82C108.277 25.904 108.049 25.982 107.749 26.054C107.449 26.126 107.161 26.162 106.885 26.162ZM118.593 26.162C117.597 26.162 116.697 26.036 115.893 25.784C115.089 25.52 114.393 25.142 113.805 24.65L114.327 23.462C114.939 23.93 115.581 24.278 116.253 24.506C116.925 24.734 117.705 24.848 118.593 24.848C119.673 24.848 120.471 24.65 120.987 24.254C121.515 23.846 121.779 23.312 121.779 22.652C121.779 22.124 121.587 21.704 121.203 21.392C120.831 21.08 120.201 20.834 119.313 20.654L117.441 20.276C116.313 20.036 115.467 19.646 114.903 19.106C114.351 18.554 114.075 17.822 114.075 16.91C114.075 16.154 114.267 15.494 114.651 14.93C115.047 14.366 115.593 13.928 116.289 13.616C116.985 13.304 117.789 13.148 118.701 13.148C119.553 13.148 120.345 13.286 121.077 13.562C121.809 13.826 122.427 14.21 122.931 14.714L122.409 15.866C121.869 15.374 121.299 15.02 120.699 14.804C120.099 14.576 119.427 14.462 118.683 14.462C117.735 14.462 116.979 14.684 116.415 15.128C115.851 15.56 115.569 16.136 115.569 16.856C115.569 17.432 115.743 17.888 116.091 18.224C116.451 18.56 117.033 18.806 117.837 18.962L119.709 19.358C120.921 19.61 121.815 19.994 122.391 20.51C122.979 21.014 123.273 21.704 123.273 22.58C123.273 23.288 123.081 23.912 122.697 24.452C122.325 24.992 121.785 25.412 121.077 25.712C120.381 26.012 119.553 26.162 118.593 26.162ZM128.84 26.162C127.808 26.162 127.034 25.892 126.518 25.352C126.002 24.8 125.744 24.008 125.744 22.976V18.386H124.034V17.252H125.744V14.57H127.202V17.252H129.974V18.386H127.202V22.832C127.202 23.516 127.346 24.038 127.634 24.398C127.922 24.746 128.39 24.92 129.038 24.92C129.23 24.92 129.422 24.896 129.614 24.848C129.806 24.8 129.98 24.752 130.136 24.704L130.388 25.82C130.232 25.904 130.004 25.982 129.704 26.054C129.404 26.126 129.116 26.162 128.84 26.162ZM135.171 26.162C134.319 26.162 133.581 25.976 132.957 25.604C132.333 25.232 131.847 24.71 131.499 24.038C131.163 23.354 130.995 22.55 130.995 21.626C130.995 20.702 131.163 19.904 131.499 19.232C131.847 18.548 132.333 18.02 132.957 17.648C133.581 17.276 134.319 17.09 135.171 17.09C136.011 17.09 136.743 17.276 137.367 17.648C138.003 18.02 138.489 18.548 138.825 19.232C139.173 19.904 139.347 20.702 139.347 21.626C139.347 22.55 139.173 23.354 138.825 24.038C138.489 24.71 138.003 25.232 137.367 25.604C136.743 25.976 136.011 26.162 135.171 26.162ZM135.171 24.992C135.987 24.992 136.641 24.704 137.133 24.128C137.625 23.54 137.871 22.706 137.871 21.626C137.871 20.534 137.625 19.7 137.133 19.124C136.641 18.548 135.987 18.26 135.171 18.26C134.343 18.26 133.683 18.548 133.191 19.124C132.711 19.7 132.471 20.534 132.471 21.626C132.471 22.706 132.711 23.54 133.191 24.128C133.683 24.704 134.343 24.992 135.171 24.992ZM141.537 26V17.252H142.959V18.818C143.427 17.762 144.387 17.18 145.839 17.072L146.361 17.018L146.469 18.278L145.551 18.386C144.723 18.458 144.093 18.722 143.661 19.178C143.229 19.622 143.013 20.234 143.013 21.014V26H141.537ZM151.825 26.162C150.445 26.162 149.353 25.76 148.549 24.956C147.745 24.14 147.343 23.036 147.343 21.644C147.343 20.744 147.523 19.952 147.883 19.268C148.243 18.572 148.735 18.038 149.359 17.666C149.995 17.282 150.727 17.09 151.555 17.09C152.743 17.09 153.673 17.474 154.345 18.242C155.017 18.998 155.353 20.042 155.353 21.374V21.932H148.765C148.813 22.928 149.101 23.69 149.629 24.218C150.157 24.734 150.889 24.992 151.825 24.992C152.353 24.992 152.857 24.914 153.337 24.758C153.817 24.59 154.273 24.32 154.705 23.948L155.209 24.974C154.813 25.346 154.309 25.64 153.697 25.856C153.085 26.06 152.461 26.162 151.825 26.162ZM151.591 18.17C150.763 18.17 150.109 18.428 149.629 18.944C149.149 19.46 148.867 20.138 148.783 20.978H154.093C154.057 20.09 153.823 19.4 153.391 18.908C152.971 18.416 152.371 18.17 151.591 18.17ZM157.931 26V18.386H156.203V17.252H157.931V16.946C157.931 15.782 158.219 14.9 158.795 14.3C159.383 13.7 160.283 13.364 161.495 13.292L162.197 13.256L162.323 14.372L161.495 14.426C160.751 14.486 160.211 14.708 159.875 15.092C159.551 15.476 159.389 16.034 159.389 16.766V17.252H161.909V18.386H159.389V26H157.931ZM163.457 26V17.252H164.879V18.818C165.347 17.762 166.307 17.18 167.759 17.072L168.281 17.018L168.389 18.278L167.471 18.386C166.643 18.458 166.013 18.722 165.581 19.178C165.149 19.622 164.933 20.234 164.933 21.014V26H163.457ZM173.439 26.162C172.587 26.162 171.849 25.976 171.225 25.604C170.601 25.232 170.115 24.71 169.767 24.038C169.431 23.354 169.263 22.55 169.263 21.626C169.263 20.702 169.431 19.904 169.767 19.232C170.115 18.548 170.601 18.02 171.225 17.648C171.849 17.276 172.587 17.09 173.439 17.09C174.279 17.09 175.011 17.276 175.635 17.648C176.271 18.02 176.757 18.548 177.093 19.232C177.441 19.904 177.615 20.702 177.615 21.626C177.615 22.55 177.441 23.354 177.093 24.038C176.757 24.71 176.271 25.232 175.635 25.604C175.011 25.976 174.279 26.162 173.439 26.162ZM173.439 24.992C174.255 24.992 174.909 24.704 175.401 24.128C175.893 23.54 176.139 22.706 176.139 21.626C176.139 20.534 175.893 19.7 175.401 19.124C174.909 18.548 174.255 18.26 173.439 18.26C172.611 18.26 171.951 18.548 171.459 19.124C170.979 19.7 170.739 20.534 170.739 21.626C170.739 22.706 170.979 23.54 171.459 24.128C171.951 24.704 172.611 24.992 173.439 24.992ZM179.805 26V17.252H181.227V18.746C181.515 18.194 181.923 17.78 182.451 17.504C182.979 17.228 183.573 17.09 184.233 17.09C186.309 17.09 187.347 18.242 187.347 20.546V26H185.889V20.636C185.889 19.82 185.727 19.226 185.403 18.854C185.091 18.47 184.587 18.278 183.891 18.278C183.087 18.278 182.445 18.53 181.965 19.034C181.497 19.526 181.263 20.186 181.263 21.014V26H179.805ZM193.545 26.162C192.513 26.162 191.739 25.892 191.223 25.352C190.707 24.8 190.449 24.008 190.449 22.976V18.386H188.739V17.252H190.449V14.57H191.907V17.252H194.679V18.386H191.907V22.832C191.907 23.516 192.051 24.038 192.339 24.398C192.627 24.746 193.095 24.92 193.743 24.92C193.935 24.92 194.127 24.896 194.319 24.848C194.511 24.8 194.685 24.752 194.841 24.704L195.093 25.82C194.937 25.904 194.709 25.982 194.409 26.054C194.109 26.126 193.821 26.162 193.545 26.162ZM199.28 26.162C198.596 26.162 197.948 26.066 197.336 25.874C196.724 25.682 196.22 25.412 195.824 25.064L196.292 24.038C196.724 24.386 197.198 24.644 197.714 24.812C198.242 24.968 198.776 25.046 199.316 25.046C200 25.046 200.516 24.92 200.864 24.668C201.212 24.416 201.386 24.074 201.386 23.642C201.386 23.306 201.272 23.042 201.044 22.85C200.816 22.646 200.456 22.49 199.964 22.382L198.326 22.022C196.838 21.698 196.094 20.93 196.094 19.718C196.094 18.926 196.406 18.29 197.03 17.81C197.666 17.33 198.494 17.09 199.514 17.09C200.114 17.09 200.684 17.186 201.224 17.378C201.776 17.558 202.232 17.828 202.592 18.188L202.106 19.214C201.758 18.89 201.35 18.644 200.882 18.476C200.426 18.296 199.97 18.206 199.514 18.206C198.842 18.206 198.332 18.338 197.984 18.602C197.636 18.866 197.462 19.214 197.462 19.646C197.462 20.318 197.906 20.75 198.794 20.942L200.432 21.284C201.2 21.452 201.782 21.722 202.178 22.094C202.574 22.454 202.772 22.946 202.772 23.57C202.772 24.374 202.454 25.01 201.818 25.478C201.182 25.934 200.336 26.162 199.28 26.162Z" fill="white"/>
<path id="Collection Minting" d="M164.878 83.162C163.63 83.162 162.562 82.898 161.674 82.37C160.786 81.842 160.102 81.092 159.622 80.12C159.154 79.148 158.92 77.99 158.92 76.646C158.92 75.314 159.154 74.162 159.622 73.19C160.102 72.218 160.786 71.468 161.674 70.94C162.562 70.412 163.63 70.148 164.878 70.148C165.754 70.148 166.558 70.286 167.29 70.562C168.034 70.838 168.664 71.24 169.18 71.768L168.604 72.974C168.052 72.458 167.476 72.086 166.876 71.858C166.288 71.618 165.634 71.498 164.914 71.498C163.486 71.498 162.394 71.948 161.638 72.848C160.882 73.748 160.504 75.014 160.504 76.646C160.504 78.29 160.882 79.562 161.638 80.462C162.394 81.362 163.486 81.812 164.914 81.812C165.634 81.812 166.288 81.698 166.876 81.47C167.476 81.23 168.052 80.852 168.604 80.336L169.18 81.542C168.664 82.058 168.034 82.46 167.29 82.748C166.558 83.024 165.754 83.162 164.878 83.162ZM174.305 83.162C173.453 83.162 172.715 82.976 172.091 82.604C171.467 82.232 170.981 81.71 170.633 81.038C170.297 80.354 170.129 79.55 170.129 78.626C170.129 77.702 170.297 76.904 170.633 76.232C170.981 75.548 171.467 75.02 172.091 74.648C172.715 74.276 173.453 74.09 174.305 74.09C175.145 74.09 175.877 74.276 176.501 74.648C177.137 75.02 177.623 75.548 177.959 76.232C178.307 76.904 178.481 77.702 178.481 78.626C178.481 79.55 178.307 80.354 177.959 81.038C177.623 81.71 177.137 82.232 176.501 82.604C175.877 82.976 175.145 83.162 174.305 83.162ZM174.305 81.992C175.121 81.992 175.775 81.704 176.267 81.128C176.759 80.54 177.005 79.706 177.005 78.626C177.005 77.534 176.759 76.7 176.267 76.124C175.775 75.548 175.121 75.26 174.305 75.26C173.477 75.26 172.817 75.548 172.325 76.124C171.845 76.7 171.605 77.534 171.605 78.626C171.605 79.706 171.845 80.54 172.325 81.128C172.817 81.704 173.477 81.992 174.305 81.992ZM183.353 83.162C182.465 83.162 181.793 82.904 181.337 82.388C180.893 81.86 180.671 81.098 180.671 80.102V70.31H182.129V79.994C182.129 81.278 182.639 81.92 183.659 81.92C183.959 81.92 184.229 81.884 184.469 81.812L184.433 83.036C184.061 83.12 183.701 83.162 183.353 83.162ZM188.679 83.162C187.791 83.162 187.119 82.904 186.663 82.388C186.219 81.86 185.997 81.098 185.997 80.102V70.31H187.455V79.994C187.455 81.278 187.965 81.92 188.985 81.92C189.285 81.92 189.555 81.884 189.795 81.812L189.759 83.036C189.387 83.12 189.027 83.162 188.679 83.162ZM195.177 83.162C193.797 83.162 192.705 82.76 191.901 81.956C191.097 81.14 190.695 80.036 190.695 78.644C190.695 77.744 190.875 76.952 191.235 76.268C191.595 75.572 192.087 75.038 192.711 74.666C193.347 74.282 194.079 74.09 194.907 74.09C196.095 74.09 197.025 74.474 197.697 75.242C198.369 75.998 198.705 77.042 198.705 78.374V78.932H192.117C192.165 79.928 192.453 80.69 192.981 81.218C193.509 81.734 194.241 81.992 195.177 81.992C195.705 81.992 196.209 81.914 196.689 81.758C197.169 81.59 197.625 81.32 198.057 80.948L198.561 81.974C198.165 82.346 197.661 82.64 197.049 82.856C196.437 83.06 195.813 83.162 195.177 83.162ZM194.943 75.17C194.115 75.17 193.461 75.428 192.981 75.944C192.501 76.46 192.219 77.138 192.135 77.978H197.445C197.409 77.09 197.175 76.4 196.743 75.908C196.323 75.416 195.723 75.17 194.943 75.17ZM204.523 83.162C203.647 83.162 202.891 82.976 202.255 82.604C201.619 82.22 201.127 81.686 200.779 81.002C200.443 80.306 200.275 79.496 200.275 78.572C200.275 77.18 200.653 76.088 201.409 75.296C202.165 74.492 203.203 74.09 204.523 74.09C205.063 74.09 205.597 74.186 206.125 74.378C206.653 74.57 207.091 74.84 207.439 75.188L206.935 76.25C206.587 75.914 206.203 75.668 205.783 75.512C205.375 75.356 204.985 75.278 204.613 75.278C203.701 75.278 202.999 75.566 202.507 76.142C202.015 76.706 201.769 77.522 201.769 78.59C201.769 79.634 202.015 80.462 202.507 81.074C202.999 81.674 203.701 81.974 204.613 81.974C204.985 81.974 205.375 81.896 205.783 81.74C206.203 81.584 206.587 81.332 206.935 80.984L207.439 82.046C207.091 82.394 206.647 82.67 206.107 82.874C205.579 83.066 205.051 83.162 204.523 83.162ZM212.657 83.162C211.625 83.162 210.851 82.892 210.335 82.352C209.819 81.8 209.561 81.008 209.561 79.976V75.386H207.851V74.252H209.561V71.57H211.019V74.252H213.791V75.386H211.019V79.832C211.019 80.516 211.163 81.038 211.451 81.398C211.739 81.746 212.207 81.92 212.855 81.92C213.047 81.92 213.239 81.896 213.431 81.848C213.623 81.8 213.797 81.752 213.953 81.704L214.205 82.82C214.049 82.904 213.821 82.982 213.521 83.054C213.221 83.126 212.933 83.162 212.657 83.162ZM215.26 72.074V70.436H217.06V72.074H215.26ZM215.44 83V74.252H216.898V83H215.44ZM223.26 83.162C222.408 83.162 221.67 82.976 221.046 82.604C220.422 82.232 219.936 81.71 219.588 81.038C219.252 80.354 219.084 79.55 219.084 78.626C219.084 77.702 219.252 76.904 219.588 76.232C219.936 75.548 220.422 75.02 221.046 74.648C221.67 74.276 222.408 74.09 223.26 74.09C224.1 74.09 224.832 74.276 225.456 74.648C226.092 75.02 226.578 75.548 226.914 76.232C227.262 76.904 227.436 77.702 227.436 78.626C227.436 79.55 227.262 80.354 226.914 81.038C226.578 81.71 226.092 82.232 225.456 82.604C224.832 82.976 224.1 83.162 223.26 83.162ZM223.26 81.992C224.076 81.992 224.73 81.704 225.222 81.128C225.714 80.54 225.96 79.706 225.96 78.626C225.96 77.534 225.714 76.7 225.222 76.124C224.73 75.548 224.076 75.26 223.26 75.26C222.432 75.26 221.772 75.548 221.28 76.124C220.8 76.7 220.56 77.534 220.56 78.626C220.56 79.706 220.8 80.54 221.28 81.128C221.772 81.704 222.432 81.992 223.26 81.992ZM229.626 83V74.252H231.048V75.746C231.336 75.194 231.744 74.78 232.272 74.504C232.8 74.228 233.394 74.09 234.054 74.09C236.13 74.09 237.168 75.242 237.168 77.546V83H235.71V77.636C235.71 76.82 235.548 76.226 235.224 75.854C234.912 75.47 234.408 75.278 233.712 75.278C232.908 75.278 232.266 75.53 231.786 76.034C231.318 76.526 231.084 77.186 231.084 78.014V83H229.626ZM244.713 83V70.31H245.955L250.833 79.472L255.675 70.31H256.917V83H255.549V73.082L251.319 81.038H250.347L246.063 73.1V83H244.713ZM259.698 72.074V70.436H261.498V72.074H259.698ZM259.878 83V74.252H261.336V83H259.878ZM264.061 83V74.252H265.483V75.746C265.771 75.194 266.179 74.78 266.707 74.504C267.235 74.228 267.829 74.09 268.489 74.09C270.565 74.09 271.603 75.242 271.603 77.546V83H270.145V77.636C270.145 76.82 269.983 76.226 269.659 75.854C269.347 75.47 268.843 75.278 268.147 75.278C267.343 75.278 266.701 75.53 266.221 76.034C265.753 76.526 265.519 77.186 265.519 78.014V83H264.061ZM277.802 83.162C276.77 83.162 275.996 82.892 275.48 82.352C274.964 81.8 274.706 81.008 274.706 79.976V75.386H272.996V74.252H274.706V71.57H276.164V74.252H278.936V75.386H276.164V79.832C276.164 80.516 276.308 81.038 276.596 81.398C276.884 81.746 277.352 81.92 278 81.92C278.192 81.92 278.384 81.896 278.576 81.848C278.768 81.8 278.942 81.752 279.098 81.704L279.35 82.82C279.194 82.904 278.966 82.982 278.666 83.054C278.366 83.126 278.078 83.162 277.802 83.162ZM280.405 72.074V70.436H282.205V72.074H280.405ZM280.585 83V74.252H282.043V83H280.585ZM284.768 83V74.252H286.19V75.746C286.478 75.194 286.886 74.78 287.414 74.504C287.942 74.228 288.536 74.09 289.196 74.09C291.272 74.09 292.31 75.242 292.31 77.546V83H290.852V77.636C290.852 76.82 290.69 76.226 290.366 75.854C290.054 75.47 289.55 75.278 288.854 75.278C288.05 75.278 287.408 75.53 286.928 76.034C286.46 76.526 286.226 77.186 286.226 78.014V83H284.768ZM298.869 86.402C298.113 86.402 297.399 86.3 296.727 86.096C296.067 85.904 295.479 85.61 294.963 85.214L295.449 84.152C295.989 84.536 296.523 84.812 297.051 84.98C297.591 85.148 298.173 85.232 298.797 85.232C300.525 85.232 301.389 84.344 301.389 82.568V81.02C301.137 81.572 300.741 82.01 300.201 82.334C299.673 82.646 299.067 82.802 298.383 82.802C297.579 82.802 296.883 82.616 296.295 82.244C295.707 81.872 295.251 81.362 294.927 80.714C294.615 80.054 294.459 79.292 294.459 78.428C294.459 77.564 294.615 76.808 294.927 76.16C295.251 75.5 295.707 74.99 296.295 74.63C296.883 74.27 297.579 74.09 298.383 74.09C299.067 74.09 299.673 74.246 300.201 74.558C300.741 74.87 301.137 75.296 301.389 75.836V74.252H302.811V82.37C302.811 83.714 302.475 84.722 301.803 85.394C301.143 86.066 300.165 86.402 298.869 86.402ZM298.653 81.614C299.493 81.614 300.159 81.326 300.651 80.75C301.143 80.174 301.389 79.4 301.389 78.428C301.389 77.456 301.143 76.688 300.651 76.124C300.159 75.548 299.493 75.26 298.653 75.26C297.825 75.26 297.165 75.548 296.673 76.124C296.181 76.688 295.935 77.456 295.935 78.428C295.935 79.4 296.181 80.174 296.673 80.75C297.165 81.326 297.825 81.614 298.653 81.614Z" fill="white"/>
<path id="No Code Drops" d="M831.069 26V13.31H832.221L839.871 23.516V13.31H841.239V26H840.123L832.455 15.758V26H831.069ZM847.831 26.162C846.979 26.162 846.241 25.976 845.617 25.604C844.993 25.232 844.507 24.71 844.159 24.038C843.823 23.354 843.655 22.55 843.655 21.626C843.655 20.702 843.823 19.904 844.159 19.232C844.507 18.548 844.993 18.02 845.617 17.648C846.241 17.276 846.979 17.09 847.831 17.09C848.671 17.09 849.403 17.276 850.027 17.648C850.663 18.02 851.149 18.548 851.485 19.232C851.833 19.904 852.007 20.702 852.007 21.626C852.007 22.55 851.833 23.354 851.485 24.038C851.149 24.71 850.663 25.232 850.027 25.604C849.403 25.976 848.671 26.162 847.831 26.162ZM847.831 24.992C848.647 24.992 849.301 24.704 849.793 24.128C850.285 23.54 850.531 22.706 850.531 21.626C850.531 20.534 850.285 19.7 849.793 19.124C849.301 18.548 848.647 18.26 847.831 18.26C847.003 18.26 846.343 18.548 845.851 19.124C845.371 19.7 845.131 20.534 845.131 21.626C845.131 22.706 845.371 23.54 845.851 24.128C846.343 24.704 847.003 24.992 847.831 24.992ZM864.508 26.162C863.26 26.162 862.192 25.898 861.304 25.37C860.416 24.842 859.732 24.092 859.252 23.12C858.784 22.148 858.55 20.99 858.55 19.646C858.55 18.314 858.784 17.162 859.252 16.19C859.732 15.218 860.416 14.468 861.304 13.94C862.192 13.412 863.26 13.148 864.508 13.148C865.384 13.148 866.188 13.286 866.92 13.562C867.664 13.838 868.294 14.24 868.81 14.768L868.234 15.974C867.682 15.458 867.106 15.086 866.506 14.858C865.918 14.618 865.264 14.498 864.544 14.498C863.116 14.498 862.024 14.948 861.268 15.848C860.512 16.748 860.134 18.014 860.134 19.646C860.134 21.29 860.512 22.562 861.268 23.462C862.024 24.362 863.116 24.812 864.544 24.812C865.264 24.812 865.918 24.698 866.506 24.47C867.106 24.23 867.682 23.852 868.234 23.336L868.81 24.542C868.294 25.058 867.664 25.46 866.92 25.748C866.188 26.024 865.384 26.162 864.508 26.162ZM873.935 26.162C873.083 26.162 872.345 25.976 871.721 25.604C871.097 25.232 870.611 24.71 870.263 24.038C869.927 23.354 869.759 22.55 869.759 21.626C869.759 20.702 869.927 19.904 870.263 19.232C870.611 18.548 871.097 18.02 871.721 17.648C872.345 17.276 873.083 17.09 873.935 17.09C874.775 17.09 875.507 17.276 876.131 17.648C876.767 18.02 877.253 18.548 877.589 19.232C877.937 19.904 878.111 20.702 878.111 21.626C878.111 22.55 877.937 23.354 877.589 24.038C877.253 24.71 876.767 25.232 876.131 25.604C875.507 25.976 874.775 26.162 873.935 26.162ZM873.935 24.992C874.751 24.992 875.405 24.704 875.897 24.128C876.389 23.54 876.635 22.706 876.635 21.626C876.635 20.534 876.389 19.7 875.897 19.124C875.405 18.548 874.751 18.26 873.935 18.26C873.107 18.26 872.447 18.548 871.955 19.124C871.475 19.7 871.235 20.534 871.235 21.626C871.235 22.706 871.475 23.54 871.955 24.128C872.447 24.704 873.107 24.992 873.935 24.992ZM883.631 26.162C882.851 26.162 882.167 25.976 881.579 25.604C881.003 25.232 880.553 24.71 880.229 24.038C879.917 23.354 879.761 22.55 879.761 21.626C879.761 20.69 879.917 19.886 880.229 19.214C880.553 18.53 881.003 18.008 881.579 17.648C882.167 17.276 882.851 17.09 883.631 17.09C884.315 17.09 884.915 17.24 885.431 17.54C885.959 17.84 886.349 18.254 886.601 18.782V13.31H888.059V26H886.637V24.398C886.385 24.95 885.995 25.382 885.467 25.694C884.939 26.006 884.327 26.162 883.631 26.162ZM883.937 24.992C884.753 24.992 885.407 24.704 885.899 24.128C886.391 23.54 886.637 22.706 886.637 21.626C886.637 20.534 886.391 19.7 885.899 19.124C885.407 18.548 884.753 18.26 883.937 18.26C883.109 18.26 882.449 18.548 881.957 19.124C881.477 19.7 881.237 20.534 881.237 21.626C881.237 22.706 881.477 23.54 881.957 24.128C882.449 24.704 883.109 24.992 883.937 24.992ZM894.737 26.162C893.357 26.162 892.265 25.76 891.461 24.956C890.657 24.14 890.255 23.036 890.255 21.644C890.255 20.744 890.435 19.952 890.795 19.268C891.155 18.572 891.647 18.038 892.271 17.666C892.907 17.282 893.639 17.09 894.467 17.09C895.655 17.09 896.585 17.474 897.257 18.242C897.929 18.998 898.265 20.042 898.265 21.374V21.932H891.677C891.725 22.928 892.013 23.69 892.541 24.218C893.069 24.734 893.801 24.992 894.737 24.992C895.265 24.992 895.769 24.914 896.249 24.758C896.729 24.59 897.185 24.32 897.617 23.948L898.121 24.974C897.725 25.346 897.221 25.64 896.609 25.856C895.997 26.06 895.373 26.162 894.737 26.162ZM894.503 18.17C893.675 18.17 893.021 18.428 892.541 18.944C892.061 19.46 891.779 20.138 891.695 20.978H897.005C896.969 20.09 896.735 19.4 896.303 18.908C895.883 18.416 895.283 18.17 894.503 18.17ZM905.196 26V13.31H909.48C911.532 13.31 913.116 13.856 914.232 14.948C915.348 16.028 915.906 17.594 915.906 19.646C915.906 21.698 915.348 23.27 914.232 24.362C913.116 25.454 911.532 26 909.48 26H905.196ZM906.672 24.74H909.372C912.684 24.74 914.34 23.042 914.34 19.646C914.34 16.262 912.684 14.57 909.372 14.57H906.672V24.74ZM918.357 26V17.252H919.779V18.818C920.247 17.762 921.207 17.18 922.659 17.072L923.181 17.018L923.289 18.278L922.371 18.386C921.543 18.458 920.913 18.722 920.481 19.178C920.049 19.622 919.833 20.234 919.833 21.014V26H918.357ZM928.339 26.162C927.487 26.162 926.749 25.976 926.125 25.604C925.501 25.232 925.015 24.71 924.667 24.038C924.331 23.354 924.163 22.55 924.163 21.626C924.163 20.702 924.331 19.904 924.667 19.232C925.015 18.548 925.501 18.02 926.125 17.648C926.749 17.276 927.487 17.09 928.339 17.09C929.179 17.09 929.911 17.276 930.535 17.648C931.171 18.02 931.657 18.548 931.993 19.232C932.341 19.904 932.515 20.702 932.515 21.626C932.515 22.55 932.341 23.354 931.993 24.038C931.657 24.71 931.171 25.232 930.535 25.604C929.911 25.976 929.179 26.162 928.339 26.162ZM928.339 24.992C929.155 24.992 929.809 24.704 930.301 24.128C930.793 23.54 931.039 22.706 931.039 21.626C931.039 20.534 930.793 19.7 930.301 19.124C929.809 18.548 929.155 18.26 928.339 18.26C927.511 18.26 926.851 18.548 926.359 19.124C925.879 19.7 925.639 20.534 925.639 21.626C925.639 22.706 925.879 23.54 926.359 24.128C926.851 24.704 927.511 24.992 928.339 24.992ZM934.705 29.24V17.252H936.127V18.818C936.391 18.278 936.781 17.858 937.297 17.558C937.825 17.246 938.437 17.09 939.133 17.09C939.913 17.09 940.591 17.276 941.167 17.648C941.755 18.008 942.205 18.53 942.517 19.214C942.841 19.886 943.003 20.69 943.003 21.626C943.003 22.55 942.841 23.354 942.517 24.038C942.205 24.71 941.755 25.232 941.167 25.604C940.591 25.976 939.913 26.162 939.133 26.162C938.461 26.162 937.861 26.012 937.333 25.712C936.805 25.412 936.415 24.998 936.163 24.47V29.24H934.705ZM938.827 24.992C939.643 24.992 940.297 24.704 940.789 24.128C941.281 23.54 941.527 22.706 941.527 21.626C941.527 20.534 941.281 19.7 940.789 19.124C940.297 18.548 939.643 18.26 938.827 18.26C938.011 18.26 937.357 18.548 936.865 19.124C936.373 19.7 936.127 20.534 936.127 21.626C936.127 22.706 936.373 23.54 936.865 24.128C937.357 24.704 938.011 24.992 938.827 24.992ZM948.151 26.162C947.467 26.162 946.819 26.066 946.207 25.874C945.595 25.682 945.091 25.412 944.695 25.064L945.163 24.038C945.595 24.386 946.069 24.644 946.585 24.812C947.113 24.968 947.647 25.046 948.187 25.046C948.871 25.046 949.387 24.92 949.735 24.668C950.083 24.416 950.257 24.074 950.257 23.642C950.257 23.306 950.143 23.042 949.915 22.85C949.687 22.646 949.327 22.49 948.835 22.382L947.197 22.022C945.709 21.698 944.965 20.93 944.965 19.718C944.965 18.926 945.277 18.29 945.901 17.81C946.537 17.33 947.365 17.09 948.385 17.09C948.985 17.09 949.555 17.186 950.095 17.378C950.647 17.558 951.103 17.828 951.463 18.188L950.977 19.214C950.629 18.89 950.221 18.644 949.753 18.476C949.297 18.296 948.841 18.206 948.385 18.206C947.713 18.206 947.203 18.338 946.855 18.602C946.507 18.866 946.333 19.214 946.333 19.646C946.333 20.318 946.777 20.75 947.665 20.942L949.303 21.284C950.071 21.452 950.653 21.722 951.049 22.094C951.445 22.454 951.643 22.946 951.643 23.57C951.643 24.374 951.325 25.01 950.689 25.478C950.053 25.934 949.207 26.162 948.151 26.162Z" fill="white"/>
</g>
</g>
<defs>
<clipPath id="clip0_49:71">
<rect x="854" y="57" width="277" height="40" rx="20" fill="white"/>
</clipPath>
</defs>
</svg>
