<svg width="19" height="30" viewBox="0 0 19 30" fill="none" xmlns="http://www.w3.org/2000/svg">
<path d="M18.0934 26.3536C18.2886 26.1583 18.2886 25.8417 18.0934 25.6464L14.9114 22.4645C14.7161 22.2692 14.3995 22.2692 14.2043 22.4645C14.009 22.6597 14.009 22.9763 14.2043 23.1716L17.0327 26L14.2043 28.8284C14.009 29.0237 14.009 29.3403 14.2043 29.5355C14.3995 29.7308 14.7161 29.7308 14.9114 29.5355L18.0934 26.3536ZM9 1.5H17.7398V0.5H9V1.5ZM17.7398 25.5H9V26.5H17.7398V25.5ZM1.5 18V9H0.5V18H1.5ZM9 25.5C4.85787 25.5 1.5 22.1421 1.5 18H0.5C0.5 22.6944 4.30558 26.5 9 26.5V25.5ZM9 0.5C4.30558 0.5 0.5 4.30558 0.5 9H1.5C1.5 4.85786 4.85787 1.5 9 1.5V0.5Z" fill="#707070"/>
</svg>
