<svg width="12" height="13" viewBox="0 0 12 13" fill="none" xmlns="http://www.w3.org/2000/svg">
<path d="M10 5H5.5C4.94772 5 4.5 5.44772 4.5 6V10.5C4.5 11.0523 4.94772 11.5 5.5 11.5H10C10.5523 11.5 11 11.0523 11 10.5V6C11 5.44772 10.5523 5 10 5Z" stroke="rgba(210, 64, 137, 1)" stroke-linecap="round" stroke-linejoin="round"/>
<path d="M2.5 8H2C1.73478 8 1.48043 7.89464 1.29289 7.70711C1.10536 7.51957 1 7.26522 1 7V2.5C1 2.23478 1.10536 1.98043 1.29289 1.79289C1.48043 1.60536 1.73478 1.5 2 1.5H6.5C6.76522 1.5 7.01957 1.60536 7.20711 1.79289C7.39464 1.98043 7.5 2.23478 7.5 2.5V3" stroke="rgba(210, 64, 137, 1)" stroke-linecap="round" stroke-linejoin="round"/>
</svg>
