<svg width="1147" height="185" viewBox="0 0 1147 185" fill="none" xmlns="http://www.w3.org/2000/svg">
<line x1="1142" y1="139" x2="3" y2="139" stroke="white" stroke-opacity="0.3" stroke-width="6" stroke-linecap="round"/>
<rect width="162" height="41" rx="20.5" fill="url(#paint0_linear)"/>
<path d="M17.566 26V13.31H25.414V14.552H19.042V18.98H25.054V20.222H19.042V26H17.566ZM29.6318 26.162C29.0318 26.162 28.4918 26.048 28.0118 25.82C27.5438 25.58 27.1718 25.256 26.8958 24.848C26.6198 24.44 26.4818 23.984 26.4818 23.48C26.4818 22.844 26.6438 22.34 26.9678 21.968C27.3038 21.596 27.8498 21.332 28.6058 21.176C29.3738 21.008 30.4178 20.924 31.7378 20.924H32.3138V20.366C32.3138 19.622 32.1578 19.088 31.8458 18.764C31.5458 18.428 31.0598 18.26 30.3878 18.26C29.8598 18.26 29.3498 18.338 28.8578 18.494C28.3658 18.638 27.8618 18.878 27.3458 19.214L26.8418 18.152C27.2978 17.828 27.8498 17.57 28.4978 17.378C29.1578 17.186 29.7878 17.09 30.3878 17.09C31.5158 17.09 32.3498 17.366 32.8898 17.918C33.4418 18.47 33.7178 19.328 33.7178 20.492V26H32.3498V24.488C32.1218 25.004 31.7678 25.412 31.2878 25.712C30.8198 26.012 30.2678 26.162 29.6318 26.162ZM29.8658 25.064C30.5858 25.064 31.1738 24.818 31.6298 24.326C32.0858 23.822 32.3138 23.186 32.3138 22.418V21.878H31.7558C30.7838 21.878 30.0158 21.926 29.4518 22.022C28.8998 22.106 28.5098 22.262 28.2818 22.49C28.0658 22.706 27.9578 23.006 27.9578 23.39C27.9578 23.882 28.1258 24.284 28.4618 24.596C28.8098 24.908 29.2778 25.064 29.8658 25.064ZM39.3747 26.162C38.6907 26.162 38.0427 26.066 37.4307 25.874C36.8187 25.682 36.3147 25.412 35.9187 25.064L36.3867 24.038C36.8187 24.386 37.2927 24.644 37.8087 24.812C38.3367 24.968 38.8707 25.046 39.4107 25.046C40.0947 25.046 40.6107 24.92 40.9587 24.668C41.3067 24.416 41.4807 24.074 41.4807 23.642C41.4807 23.306 41.3667 23.042 41.1387 22.85C40.9107 22.646 40.5507 22.49 40.0587 22.382L38.4207 22.022C36.9327 21.698 36.1887 20.93 36.1887 19.718C36.1887 18.926 36.5007 18.29 37.1247 17.81C37.7607 17.33 38.5887 17.09 39.6087 17.09C40.2087 17.09 40.7787 17.186 41.3187 17.378C41.8707 17.558 42.3267 17.828 42.6867 18.188L42.2007 19.214C41.8527 18.89 41.4447 18.644 40.9767 18.476C40.5207 18.296 40.0647 18.206 39.6087 18.206C38.9367 18.206 38.4267 18.338 38.0787 18.602C37.7307 18.866 37.5567 19.214 37.5567 19.646C37.5567 20.318 38.0007 20.75 38.8887 20.942L40.5267 21.284C41.2947 21.452 41.8767 21.722 42.2727 22.094C42.6687 22.454 42.8667 22.946 42.8667 23.57C42.8667 24.374 42.5487 25.01 41.9127 25.478C41.2767 25.934 40.4307 26.162 39.3747 26.162ZM48.5108 26.162C47.4788 26.162 46.7048 25.892 46.1888 25.352C45.6728 24.8 45.4148 24.008 45.4148 22.976V18.386H43.7048V17.252H45.4148V14.57H46.8728V17.252H49.6448V18.386H46.8728V22.832C46.8728 23.516 47.0168 24.038 47.3048 24.398C47.5928 24.746 48.0608 24.92 48.7088 24.92C48.9008 24.92 49.0928 24.896 49.2848 24.848C49.4768 24.8 49.6508 24.752 49.8068 24.704L50.0588 25.82C49.9028 25.904 49.6748 25.982 49.3748 26.054C49.0748 26.126 48.7868 26.162 48.5108 26.162ZM60.2188 26.162C59.2228 26.162 58.3228 26.036 57.5188 25.784C56.7148 25.52 56.0188 25.142 55.4308 24.65L55.9528 23.462C56.5648 23.93 57.2068 24.278 57.8788 24.506C58.5508 24.734 59.3308 24.848 60.2188 24.848C61.2988 24.848 62.0968 24.65 62.6128 24.254C63.1408 23.846 63.4048 23.312 63.4048 22.652C63.4048 22.124 63.2128 21.704 62.8288 21.392C62.4568 21.08 61.8268 20.834 60.9388 20.654L59.0668 20.276C57.9388 20.036 57.0928 19.646 56.5288 19.106C55.9768 18.554 55.7008 17.822 55.7008 16.91C55.7008 16.154 55.8928 15.494 56.2768 14.93C56.6728 14.366 57.2188 13.928 57.9148 13.616C58.6108 13.304 59.4148 13.148 60.3268 13.148C61.1788 13.148 61.9708 13.286 62.7028 13.562C63.4348 13.826 64.0528 14.21 64.5568 14.714L64.0348 15.866C63.4948 15.374 62.9248 15.02 62.3248 14.804C61.7248 14.576 61.0528 14.462 60.3088 14.462C59.3608 14.462 58.6048 14.684 58.0408 15.128C57.4768 15.56 57.1948 16.136 57.1948 16.856C57.1948 17.432 57.3688 17.888 57.7168 18.224C58.0768 18.56 58.6588 18.806 59.4628 18.962L61.3348 19.358C62.5468 19.61 63.4408 19.994 64.0168 20.51C64.6048 21.014 64.8988 21.704 64.8988 22.58C64.8988 23.288 64.7068 23.912 64.3228 24.452C63.9508 24.992 63.4108 25.412 62.7028 25.712C62.0068 26.012 61.1788 26.162 60.2188 26.162ZM70.4659 26.162C69.4339 26.162 68.6599 25.892 68.1439 25.352C67.6279 24.8 67.3699 24.008 67.3699 22.976V18.386H65.6599V17.252H67.3699V14.57H68.8279V17.252H71.5999V18.386H68.8279V22.832C68.8279 23.516 68.9719 24.038 69.2599 24.398C69.5479 24.746 70.0159 24.92 70.6639 24.92C70.8559 24.92 71.0479 24.896 71.2399 24.848C71.4319 24.8 71.6059 24.752 71.7619 24.704L72.0139 25.82C71.8579 25.904 71.6299 25.982 71.3299 26.054C71.0299 26.126 70.7419 26.162 70.4659 26.162ZM76.797 26.162C75.945 26.162 75.207 25.976 74.583 25.604C73.959 25.232 73.473 24.71 73.125 24.038C72.789 23.354 72.621 22.55 72.621 21.626C72.621 20.702 72.789 19.904 73.125 19.232C73.473 18.548 73.959 18.02 74.583 17.648C75.207 17.276 75.945 17.09 76.797 17.09C77.637 17.09 78.369 17.276 78.993 17.648C79.629 18.02 80.115 18.548 80.451 19.232C80.799 19.904 80.973 20.702 80.973 21.626C80.973 22.55 80.799 23.354 80.451 24.038C80.115 24.71 79.629 25.232 78.993 25.604C78.369 25.976 77.637 26.162 76.797 26.162ZM76.797 24.992C77.613 24.992 78.267 24.704 78.759 24.128C79.251 23.54 79.497 22.706 79.497 21.626C79.497 20.534 79.251 19.7 78.759 19.124C78.267 18.548 77.613 18.26 76.797 18.26C75.969 18.26 75.309 18.548 74.817 19.124C74.337 19.7 74.097 20.534 74.097 21.626C74.097 22.706 74.337 23.54 74.817 24.128C75.309 24.704 75.969 24.992 76.797 24.992ZM83.1629 26V17.252H84.5849V18.818C85.0529 17.762 86.0129 17.18 87.4649 17.072L87.9869 17.018L88.0949 18.278L87.1769 18.386C86.3489 18.458 85.7189 18.722 85.2869 19.178C84.8549 19.622 84.6389 20.234 84.6389 21.014V26H83.1629ZM93.4506 26.162C92.0706 26.162 90.9786 25.76 90.1746 24.956C89.3706 24.14 88.9686 23.036 88.9686 21.644C88.9686 20.744 89.1486 19.952 89.5086 19.268C89.8686 18.572 90.3606 18.038 90.9846 17.666C91.6206 17.282 92.3526 17.09 93.1806 17.09C94.3686 17.09 95.2986 17.474 95.9706 18.242C96.6426 18.998 96.9786 20.042 96.9786 21.374V21.932H90.3906C90.4386 22.928 90.7266 23.69 91.2546 24.218C91.7826 24.734 92.5146 24.992 93.4506 24.992C93.9786 24.992 94.4826 24.914 94.9626 24.758C95.4426 24.59 95.8986 24.32 96.3306 23.948L96.8346 24.974C96.4386 25.346 95.9346 25.64 95.3226 25.856C94.7106 26.06 94.0866 26.162 93.4506 26.162ZM93.2166 18.17C92.3886 18.17 91.7346 18.428 91.2546 18.944C90.7746 19.46 90.4926 20.138 90.4086 20.978H95.7186C95.6826 20.09 95.4486 19.4 95.0166 18.908C94.5966 18.416 93.9966 18.17 93.2166 18.17ZM99.5567 26V18.386H97.8287V17.252H99.5567V16.946C99.5567 15.782 99.8447 14.9 100.421 14.3C101.009 13.7 101.909 13.364 103.121 13.292L103.823 13.256L103.949 14.372L103.121 14.426C102.377 14.486 101.837 14.708 101.501 15.092C101.177 15.476 101.015 16.034 101.015 16.766V17.252H103.535V18.386H101.015V26H99.5567ZM105.083 26V17.252H106.505V18.818C106.973 17.762 107.933 17.18 109.385 17.072L109.907 17.018L110.015 18.278L109.097 18.386C108.269 18.458 107.639 18.722 107.207 19.178C106.775 19.622 106.559 20.234 106.559 21.014V26H105.083ZM115.065 26.162C114.213 26.162 113.475 25.976 112.851 25.604C112.227 25.232 111.741 24.71 111.393 24.038C111.057 23.354 110.889 22.55 110.889 21.626C110.889 20.702 111.057 19.904 111.393 19.232C111.741 18.548 112.227 18.02 112.851 17.648C113.475 17.276 114.213 17.09 115.065 17.09C115.905 17.09 116.637 17.276 117.261 17.648C117.897 18.02 118.383 18.548 118.719 19.232C119.067 19.904 119.241 20.702 119.241 21.626C119.241 22.55 119.067 23.354 118.719 24.038C118.383 24.71 117.897 25.232 117.261 25.604C116.637 25.976 115.905 26.162 115.065 26.162ZM115.065 24.992C115.881 24.992 116.535 24.704 117.027 24.128C117.519 23.54 117.765 22.706 117.765 21.626C117.765 20.534 117.519 19.7 117.027 19.124C116.535 18.548 115.881 18.26 115.065 18.26C114.237 18.26 113.577 18.548 113.085 19.124C112.605 19.7 112.365 20.534 112.365 21.626C112.365 22.706 112.605 23.54 113.085 24.128C113.577 24.704 114.237 24.992 115.065 24.992ZM121.431 26V17.252H122.853V18.746C123.141 18.194 123.549 17.78 124.077 17.504C124.605 17.228 125.199 17.09 125.859 17.09C127.935 17.09 128.973 18.242 128.973 20.546V26H127.515V20.636C127.515 19.82 127.353 19.226 127.029 18.854C126.717 18.47 126.213 18.278 125.517 18.278C124.713 18.278 124.071 18.53 123.591 19.034C123.123 19.526 122.889 20.186 122.889 21.014V26H121.431ZM135.171 26.162C134.139 26.162 133.365 25.892 132.849 25.352C132.333 24.8 132.075 24.008 132.075 22.976V18.386H130.365V17.252H132.075V14.57H133.533V17.252H136.305V18.386H133.533V22.832C133.533 23.516 133.677 24.038 133.965 24.398C134.253 24.746 134.721 24.92 135.369 24.92C135.561 24.92 135.753 24.896 135.945 24.848C136.137 24.8 136.311 24.752 136.467 24.704L136.719 25.82C136.563 25.904 136.335 25.982 136.035 26.054C135.735 26.126 135.447 26.162 135.171 26.162ZM140.906 26.162C140.222 26.162 139.574 26.066 138.962 25.874C138.35 25.682 137.846 25.412 137.45 25.064L137.918 24.038C138.35 24.386 138.824 24.644 139.34 24.812C139.868 24.968 140.402 25.046 140.942 25.046C141.626 25.046 142.142 24.92 142.49 24.668C142.838 24.416 143.012 24.074 143.012 23.642C143.012 23.306 142.898 23.042 142.67 22.85C142.442 22.646 142.082 22.49 141.59 22.382L139.952 22.022C138.464 21.698 137.72 20.93 137.72 19.718C137.72 18.926 138.032 18.29 138.656 17.81C139.292 17.33 140.12 17.09 141.14 17.09C141.74 17.09 142.31 17.186 142.85 17.378C143.402 17.558 143.858 17.828 144.218 18.188L143.732 19.214C143.384 18.89 142.976 18.644 142.508 18.476C142.052 18.296 141.596 18.206 141.14 18.206C140.468 18.206 139.958 18.338 139.61 18.602C139.262 18.866 139.088 19.214 139.088 19.646C139.088 20.318 139.532 20.75 140.42 20.942L142.058 21.284C142.826 21.452 143.408 21.722 143.804 22.094C144.2 22.454 144.398 22.946 144.398 23.57C144.398 24.374 144.08 25.01 143.444 25.478C142.808 25.934 141.962 26.162 140.906 26.162Z" fill="white"/>
<rect x="366" y="60" width="210" height="41" rx="20.5" fill="url(#paint1_linear)"/>
<path d="M383.566 86V73.31H385.042V78.926H392.656V73.31H394.132V86H392.656V80.204H385.042V86H383.566ZM400.697 86.162C399.845 86.162 399.107 85.976 398.483 85.604C397.859 85.232 397.373 84.71 397.025 84.038C396.689 83.354 396.521 82.55 396.521 81.626C396.521 80.702 396.689 79.904 397.025 79.232C397.373 78.548 397.859 78.02 398.483 77.648C399.107 77.276 399.845 77.09 400.697 77.09C401.537 77.09 402.269 77.276 402.893 77.648C403.529 78.02 404.015 78.548 404.351 79.232C404.699 79.904 404.873 80.702 404.873 81.626C404.873 82.55 404.699 83.354 404.351 84.038C404.015 84.71 403.529 85.232 402.893 85.604C402.269 85.976 401.537 86.162 400.697 86.162ZM400.697 84.992C401.513 84.992 402.167 84.704 402.659 84.128C403.151 83.54 403.397 82.706 403.397 81.626C403.397 80.534 403.151 79.7 402.659 79.124C402.167 78.548 401.513 78.26 400.697 78.26C399.869 78.26 399.209 78.548 398.717 79.124C398.237 79.7 397.997 80.534 397.997 81.626C397.997 82.706 398.237 83.54 398.717 84.128C399.209 84.704 399.869 84.992 400.697 84.992ZM409.745 86.162C408.857 86.162 408.185 85.904 407.729 85.388C407.285 84.86 407.063 84.098 407.063 83.102V73.31H408.521V82.994C408.521 84.278 409.031 84.92 410.051 84.92C410.351 84.92 410.621 84.884 410.861 84.812L410.825 86.036C410.453 86.12 410.093 86.162 409.745 86.162ZM415.143 86.162C414.543 86.162 414.003 86.048 413.523 85.82C413.055 85.58 412.683 85.256 412.407 84.848C412.131 84.44 411.993 83.984 411.993 83.48C411.993 82.844 412.155 82.34 412.479 81.968C412.815 81.596 413.361 81.332 414.117 81.176C414.885 81.008 415.929 80.924 417.249 80.924H417.825V80.366C417.825 79.622 417.669 79.088 417.357 78.764C417.057 78.428 416.571 78.26 415.899 78.26C415.371 78.26 414.861 78.338 414.369 78.494C413.877 78.638 413.373 78.878 412.857 79.214L412.353 78.152C412.809 77.828 413.361 77.57 414.009 77.378C414.669 77.186 415.299 77.09 415.899 77.09C417.027 77.09 417.861 77.366 418.401 77.918C418.953 78.47 419.229 79.328 419.229 80.492V86H417.861V84.488C417.633 85.004 417.279 85.412 416.799 85.712C416.331 86.012 415.779 86.162 415.143 86.162ZM415.377 85.064C416.097 85.064 416.685 84.818 417.141 84.326C417.597 83.822 417.825 83.186 417.825 82.418V81.878H417.267C416.295 81.878 415.527 81.926 414.963 82.022C414.411 82.106 414.021 82.262 413.793 82.49C413.577 82.706 413.469 83.006 413.469 83.39C413.469 83.882 413.637 84.284 413.973 84.596C414.321 84.908 414.789 85.064 415.377 85.064ZM421.934 89.24V77.252H423.356V78.818C423.62 78.278 424.01 77.858 424.526 77.558C425.054 77.246 425.666 77.09 426.362 77.09C427.142 77.09 427.82 77.276 428.396 77.648C428.984 78.008 429.434 78.53 429.746 79.214C430.07 79.886 430.232 80.69 430.232 81.626C430.232 82.55 430.07 83.354 429.746 84.038C429.434 84.71 428.984 85.232 428.396 85.604C427.82 85.976 427.142 86.162 426.362 86.162C425.69 86.162 425.09 86.012 424.562 85.712C424.034 85.412 423.644 84.998 423.392 84.47V89.24H421.934ZM426.056 84.992C426.872 84.992 427.526 84.704 428.018 84.128C428.51 83.54 428.756 82.706 428.756 81.626C428.756 80.534 428.51 79.7 428.018 79.124C427.526 78.548 426.872 78.26 426.056 78.26C425.24 78.26 424.586 78.548 424.094 79.124C423.602 79.7 423.356 80.534 423.356 81.626C423.356 82.706 423.602 83.54 424.094 84.128C424.586 84.704 425.24 84.992 426.056 84.992ZM435.111 86.162C434.223 86.162 433.551 85.904 433.095 85.388C432.651 84.86 432.429 84.098 432.429 83.102V73.31H433.887V82.994C433.887 84.278 434.397 84.92 435.417 84.92C435.717 84.92 435.987 84.884 436.227 84.812L436.191 86.036C435.819 86.12 435.459 86.162 435.111 86.162ZM441.609 86.162C440.229 86.162 439.137 85.76 438.333 84.956C437.529 84.14 437.127 83.036 437.127 81.644C437.127 80.744 437.307 79.952 437.667 79.268C438.027 78.572 438.519 78.038 439.143 77.666C439.779 77.282 440.511 77.09 441.339 77.09C442.527 77.09 443.457 77.474 444.129 78.242C444.801 78.998 445.137 80.042 445.137 81.374V81.932H438.549C438.597 82.928 438.885 83.69 439.413 84.218C439.941 84.734 440.673 84.992 441.609 84.992C442.137 84.992 442.641 84.914 443.121 84.758C443.601 84.59 444.057 84.32 444.489 83.948L444.993 84.974C444.597 85.346 444.093 85.64 443.481 85.856C442.869 86.06 442.245 86.162 441.609 86.162ZM441.375 78.17C440.547 78.17 439.893 78.428 439.413 78.944C438.933 79.46 438.651 80.138 438.567 80.978H443.877C443.841 80.09 443.607 79.4 443.175 78.908C442.755 78.416 442.155 78.17 441.375 78.17ZM446.061 86L449.697 81.482L446.277 77.252H448.005L450.543 80.474L453.099 77.252H454.809L451.389 81.482L455.025 86H453.297L450.525 82.526L447.789 86H446.061ZM461.491 86V73.31H462.733L467.611 82.472L472.453 73.31H473.695V86H472.327V76.082L468.097 84.038H467.125L462.841 76.1V86H461.491ZM479.409 86.162C478.809 86.162 478.269 86.048 477.789 85.82C477.321 85.58 476.949 85.256 476.673 84.848C476.397 84.44 476.259 83.984 476.259 83.48C476.259 82.844 476.421 82.34 476.745 81.968C477.081 81.596 477.627 81.332 478.383 81.176C479.151 81.008 480.195 80.924 481.515 80.924H482.091V80.366C482.091 79.622 481.935 79.088 481.623 78.764C481.323 78.428 480.837 78.26 480.165 78.26C479.637 78.26 479.127 78.338 478.635 78.494C478.143 78.638 477.639 78.878 477.123 79.214L476.619 78.152C477.075 77.828 477.627 77.57 478.275 77.378C478.935 77.186 479.565 77.09 480.165 77.09C481.293 77.09 482.127 77.366 482.667 77.918C483.219 78.47 483.495 79.328 483.495 80.492V86H482.127V84.488C481.899 85.004 481.545 85.412 481.065 85.712C480.597 86.012 480.045 86.162 479.409 86.162ZM479.643 85.064C480.363 85.064 480.951 84.818 481.407 84.326C481.863 83.822 482.091 83.186 482.091 82.418V81.878H481.533C480.561 81.878 479.793 81.926 479.229 82.022C478.677 82.106 478.287 82.262 478.059 82.49C477.843 82.706 477.735 83.006 477.735 83.39C477.735 83.882 477.903 84.284 478.239 84.596C478.587 84.908 479.055 85.064 479.643 85.064ZM486.2 86V77.252H487.622V78.818C488.09 77.762 489.05 77.18 490.502 77.072L491.024 77.018L491.132 78.278L490.214 78.386C489.386 78.458 488.756 78.722 488.324 79.178C487.892 79.622 487.676 80.234 487.676 81.014V86H486.2ZM492.651 86V73.31H494.109V81.14H494.145L498.195 77.252H500.049L495.657 81.464L500.427 86H498.573L494.145 81.896H494.109V86H492.651ZM505.365 86.162C503.985 86.162 502.893 85.76 502.089 84.956C501.285 84.14 500.883 83.036 500.883 81.644C500.883 80.744 501.063 79.952 501.423 79.268C501.783 78.572 502.275 78.038 502.899 77.666C503.535 77.282 504.267 77.09 505.095 77.09C506.283 77.09 507.213 77.474 507.885 78.242C508.557 78.998 508.893 80.042 508.893 81.374V81.932H502.305C502.353 82.928 502.641 83.69 503.169 84.218C503.697 84.734 504.429 84.992 505.365 84.992C505.893 84.992 506.397 84.914 506.877 84.758C507.357 84.59 507.813 84.32 508.245 83.948L508.749 84.974C508.353 85.346 507.849 85.64 507.237 85.856C506.625 86.06 506.001 86.162 505.365 86.162ZM505.131 78.17C504.303 78.17 503.649 78.428 503.169 78.944C502.689 79.46 502.407 80.138 502.323 80.978H507.633C507.597 80.09 507.363 79.4 506.931 78.908C506.511 78.416 505.911 78.17 505.131 78.17ZM514.513 86.162C513.481 86.162 512.707 85.892 512.191 85.352C511.675 84.8 511.417 84.008 511.417 82.976V78.386H509.707V77.252H511.417V74.57H512.875V77.252H515.647V78.386H512.875V82.832C512.875 83.516 513.019 84.038 513.307 84.398C513.595 84.746 514.063 84.92 514.711 84.92C514.903 84.92 515.095 84.896 515.287 84.848C515.479 84.8 515.653 84.752 515.809 84.704L516.061 85.82C515.905 85.904 515.677 85.982 515.377 86.054C515.077 86.126 514.789 86.162 514.513 86.162ZM517.296 89.24V77.252H518.718V78.818C518.982 78.278 519.372 77.858 519.888 77.558C520.416 77.246 521.028 77.09 521.724 77.09C522.504 77.09 523.182 77.276 523.758 77.648C524.346 78.008 524.796 78.53 525.108 79.214C525.432 79.886 525.594 80.69 525.594 81.626C525.594 82.55 525.432 83.354 525.108 84.038C524.796 84.71 524.346 85.232 523.758 85.604C523.182 85.976 522.504 86.162 521.724 86.162C521.052 86.162 520.452 86.012 519.924 85.712C519.396 85.412 519.006 84.998 518.754 84.47V89.24H517.296ZM521.418 84.992C522.234 84.992 522.888 84.704 523.38 84.128C523.872 83.54 524.118 82.706 524.118 81.626C524.118 80.534 523.872 79.7 523.38 79.124C522.888 78.548 522.234 78.26 521.418 78.26C520.602 78.26 519.948 78.548 519.456 79.124C518.964 79.7 518.718 80.534 518.718 81.626C518.718 82.706 518.964 83.54 519.456 84.128C519.948 84.704 520.602 84.992 521.418 84.992ZM530.472 86.162C529.584 86.162 528.912 85.904 528.456 85.388C528.012 84.86 527.79 84.098 527.79 83.102V73.31H529.248V82.994C529.248 84.278 529.758 84.92 530.778 84.92C531.078 84.92 531.348 84.884 531.588 84.812L531.552 86.036C531.18 86.12 530.82 86.162 530.472 86.162ZM535.87 86.162C535.27 86.162 534.73 86.048 534.25 85.82C533.782 85.58 533.41 85.256 533.134 84.848C532.858 84.44 532.72 83.984 532.72 83.48C532.72 82.844 532.882 82.34 533.206 81.968C533.542 81.596 534.088 81.332 534.844 81.176C535.612 81.008 536.656 80.924 537.976 80.924H538.552V80.366C538.552 79.622 538.396 79.088 538.084 78.764C537.784 78.428 537.298 78.26 536.626 78.26C536.098 78.26 535.588 78.338 535.096 78.494C534.604 78.638 534.1 78.878 533.584 79.214L533.08 78.152C533.536 77.828 534.088 77.57 534.736 77.378C535.396 77.186 536.026 77.09 536.626 77.09C537.754 77.09 538.588 77.366 539.128 77.918C539.68 78.47 539.956 79.328 539.956 80.492V86H538.588V84.488C538.36 85.004 538.006 85.412 537.526 85.712C537.058 86.012 536.506 86.162 535.87 86.162ZM536.104 85.064C536.824 85.064 537.412 84.818 537.868 84.326C538.324 83.822 538.552 83.186 538.552 82.418V81.878H537.994C537.022 81.878 536.254 81.926 535.69 82.022C535.138 82.106 534.748 82.262 534.52 82.49C534.304 82.706 534.196 83.006 534.196 83.39C534.196 83.882 534.364 84.284 534.7 84.596C535.048 84.908 535.516 85.064 536.104 85.064ZM546.369 86.162C545.493 86.162 544.737 85.976 544.101 85.604C543.465 85.22 542.973 84.686 542.625 84.002C542.289 83.306 542.121 82.496 542.121 81.572C542.121 80.18 542.499 79.088 543.255 78.296C544.011 77.492 545.049 77.09 546.369 77.09C546.909 77.09 547.443 77.186 547.971 77.378C548.499 77.57 548.937 77.84 549.285 78.188L548.781 79.25C548.433 78.914 548.049 78.668 547.629 78.512C547.221 78.356 546.831 78.278 546.459 78.278C545.547 78.278 544.845 78.566 544.353 79.142C543.861 79.706 543.615 80.522 543.615 81.59C543.615 82.634 543.861 83.462 544.353 84.074C544.845 84.674 545.547 84.974 546.459 84.974C546.831 84.974 547.221 84.896 547.629 84.74C548.049 84.584 548.433 84.332 548.781 83.984L549.285 85.046C548.937 85.394 548.493 85.67 547.953 85.874C547.425 86.066 546.897 86.162 546.369 86.162ZM554.759 86.162C553.379 86.162 552.287 85.76 551.483 84.956C550.679 84.14 550.277 83.036 550.277 81.644C550.277 80.744 550.457 79.952 550.817 79.268C551.177 78.572 551.669 78.038 552.293 77.666C552.929 77.282 553.661 77.09 554.489 77.09C555.677 77.09 556.607 77.474 557.279 78.242C557.951 78.998 558.287 80.042 558.287 81.374V81.932H551.699C551.747 82.928 552.035 83.69 552.563 84.218C553.091 84.734 553.823 84.992 554.759 84.992C555.287 84.992 555.791 84.914 556.271 84.758C556.751 84.59 557.207 84.32 557.639 83.948L558.143 84.974C557.747 85.346 557.243 85.64 556.631 85.856C556.019 86.06 555.395 86.162 554.759 86.162ZM554.525 78.17C553.697 78.17 553.043 78.428 552.563 78.944C552.083 79.46 551.801 80.138 551.717 80.978H557.027C556.991 80.09 556.757 79.4 556.325 78.908C555.905 78.416 555.305 78.17 554.525 78.17Z" fill="white"/>
<rect x="116" y="60" width="179" height="41" rx="20.5" fill="url(#paint2_linear)"/>
<path d="M139.056 86.162C137.808 86.162 136.74 85.898 135.852 85.37C134.964 84.842 134.28 84.092 133.8 83.12C133.332 82.148 133.098 80.99 133.098 79.646C133.098 78.314 133.332 77.162 133.8 76.19C134.28 75.218 134.964 74.468 135.852 73.94C136.74 73.412 137.808 73.148 139.056 73.148C139.932 73.148 140.736 73.286 141.468 73.562C142.212 73.838 142.842 74.24 143.358 74.768L142.782 75.974C142.23 75.458 141.654 75.086 141.054 74.858C140.466 74.618 139.812 74.498 139.092 74.498C137.664 74.498 136.572 74.948 135.816 75.848C135.06 76.748 134.682 78.014 134.682 79.646C134.682 81.29 135.06 82.562 135.816 83.462C136.572 84.362 137.664 84.812 139.092 84.812C139.812 84.812 140.466 84.698 141.054 84.47C141.654 84.23 142.23 83.852 142.782 83.336L143.358 84.542C142.842 85.058 142.212 85.46 141.468 85.748C140.736 86.024 139.932 86.162 139.056 86.162ZM148.483 86.162C147.631 86.162 146.893 85.976 146.269 85.604C145.645 85.232 145.159 84.71 144.811 84.038C144.475 83.354 144.307 82.55 144.307 81.626C144.307 80.702 144.475 79.904 144.811 79.232C145.159 78.548 145.645 78.02 146.269 77.648C146.893 77.276 147.631 77.09 148.483 77.09C149.323 77.09 150.055 77.276 150.679 77.648C151.315 78.02 151.801 78.548 152.137 79.232C152.485 79.904 152.659 80.702 152.659 81.626C152.659 82.55 152.485 83.354 152.137 84.038C151.801 84.71 151.315 85.232 150.679 85.604C150.055 85.976 149.323 86.162 148.483 86.162ZM148.483 84.992C149.299 84.992 149.953 84.704 150.445 84.128C150.937 83.54 151.183 82.706 151.183 81.626C151.183 80.534 150.937 79.7 150.445 79.124C149.953 78.548 149.299 78.26 148.483 78.26C147.655 78.26 146.995 78.548 146.503 79.124C146.023 79.7 145.783 80.534 145.783 81.626C145.783 82.706 146.023 83.54 146.503 84.128C146.995 84.704 147.655 84.992 148.483 84.992ZM157.53 86.162C156.642 86.162 155.97 85.904 155.514 85.388C155.07 84.86 154.848 84.098 154.848 83.102V73.31H156.306V82.994C156.306 84.278 156.816 84.92 157.836 84.92C158.136 84.92 158.406 84.884 158.646 84.812L158.61 86.036C158.238 86.12 157.878 86.162 157.53 86.162ZM162.857 86.162C161.969 86.162 161.297 85.904 160.841 85.388C160.397 84.86 160.175 84.098 160.175 83.102V73.31H161.633V82.994C161.633 84.278 162.143 84.92 163.163 84.92C163.463 84.92 163.733 84.884 163.973 84.812L163.937 86.036C163.565 86.12 163.205 86.162 162.857 86.162ZM169.355 86.162C167.975 86.162 166.883 85.76 166.079 84.956C165.275 84.14 164.873 83.036 164.873 81.644C164.873 80.744 165.053 79.952 165.413 79.268C165.773 78.572 166.265 78.038 166.889 77.666C167.525 77.282 168.257 77.09 169.085 77.09C170.273 77.09 171.203 77.474 171.875 78.242C172.547 78.998 172.883 80.042 172.883 81.374V81.932H166.295C166.343 82.928 166.631 83.69 167.159 84.218C167.687 84.734 168.419 84.992 169.355 84.992C169.883 84.992 170.387 84.914 170.867 84.758C171.347 84.59 171.803 84.32 172.235 83.948L172.739 84.974C172.343 85.346 171.839 85.64 171.227 85.856C170.615 86.06 169.991 86.162 169.355 86.162ZM169.121 78.17C168.293 78.17 167.639 78.428 167.159 78.944C166.679 79.46 166.397 80.138 166.313 80.978H171.623C171.587 80.09 171.353 79.4 170.921 78.908C170.501 78.416 169.901 78.17 169.121 78.17ZM178.701 86.162C177.825 86.162 177.069 85.976 176.433 85.604C175.797 85.22 175.305 84.686 174.957 84.002C174.621 83.306 174.453 82.496 174.453 81.572C174.453 80.18 174.831 79.088 175.587 78.296C176.343 77.492 177.381 77.09 178.701 77.09C179.241 77.09 179.775 77.186 180.303 77.378C180.831 77.57 181.269 77.84 181.617 78.188L181.113 79.25C180.765 78.914 180.381 78.668 179.961 78.512C179.553 78.356 179.163 78.278 178.791 78.278C177.879 78.278 177.177 78.566 176.685 79.142C176.193 79.706 175.947 80.522 175.947 81.59C175.947 82.634 176.193 83.462 176.685 84.074C177.177 84.674 177.879 84.974 178.791 84.974C179.163 84.974 179.553 84.896 179.961 84.74C180.381 84.584 180.765 84.332 181.113 83.984L181.617 85.046C181.269 85.394 180.825 85.67 180.285 85.874C179.757 86.066 179.229 86.162 178.701 86.162ZM186.835 86.162C185.803 86.162 185.029 85.892 184.513 85.352C183.997 84.8 183.739 84.008 183.739 82.976V78.386H182.029V77.252H183.739V74.57H185.197V77.252H187.969V78.386H185.197V82.832C185.197 83.516 185.341 84.038 185.629 84.398C185.917 84.746 186.385 84.92 187.033 84.92C187.225 84.92 187.417 84.896 187.609 84.848C187.801 84.8 187.975 84.752 188.131 84.704L188.383 85.82C188.227 85.904 187.999 85.982 187.699 86.054C187.399 86.126 187.111 86.162 186.835 86.162ZM189.438 75.074V73.436H191.238V75.074H189.438ZM189.618 86V77.252H191.076V86H189.618ZM197.438 86.162C196.586 86.162 195.848 85.976 195.224 85.604C194.6 85.232 194.114 84.71 193.766 84.038C193.43 83.354 193.262 82.55 193.262 81.626C193.262 80.702 193.43 79.904 193.766 79.232C194.114 78.548 194.6 78.02 195.224 77.648C195.848 77.276 196.586 77.09 197.438 77.09C198.278 77.09 199.01 77.276 199.634 77.648C200.27 78.02 200.756 78.548 201.092 79.232C201.44 79.904 201.614 80.702 201.614 81.626C201.614 82.55 201.44 83.354 201.092 84.038C200.756 84.71 200.27 85.232 199.634 85.604C199.01 85.976 198.278 86.162 197.438 86.162ZM197.438 84.992C198.254 84.992 198.908 84.704 199.4 84.128C199.892 83.54 200.138 82.706 200.138 81.626C200.138 80.534 199.892 79.7 199.4 79.124C198.908 78.548 198.254 78.26 197.438 78.26C196.61 78.26 195.95 78.548 195.458 79.124C194.978 79.7 194.738 80.534 194.738 81.626C194.738 82.706 194.978 83.54 195.458 84.128C195.95 84.704 196.61 84.992 197.438 84.992ZM203.804 86V77.252H205.226V78.746C205.514 78.194 205.922 77.78 206.45 77.504C206.978 77.228 207.572 77.09 208.232 77.09C210.308 77.09 211.346 78.242 211.346 80.546V86H209.888V80.636C209.888 79.82 209.726 79.226 209.402 78.854C209.09 78.47 208.586 78.278 207.89 78.278C207.086 78.278 206.444 78.53 205.964 79.034C205.496 79.526 205.262 80.186 205.262 81.014V86H203.804ZM218.891 86V73.31H220.133L225.011 82.472L229.853 73.31H231.095V86H229.727V76.082L225.497 84.038H224.525L220.241 76.1V86H218.891ZM233.875 75.074V73.436H235.676V75.074H233.875ZM234.056 86V77.252H235.514V86H234.056ZM238.239 86V77.252H239.661V78.746C239.949 78.194 240.357 77.78 240.885 77.504C241.413 77.228 242.007 77.09 242.667 77.09C244.743 77.09 245.781 78.242 245.781 80.546V86H244.323V80.636C244.323 79.82 244.161 79.226 243.837 78.854C243.525 78.47 243.021 78.278 242.325 78.278C241.521 78.278 240.879 78.53 240.399 79.034C239.931 79.526 239.697 80.186 239.697 81.014V86H238.239ZM251.98 86.162C250.948 86.162 250.174 85.892 249.658 85.352C249.142 84.8 248.884 84.008 248.884 82.976V78.386H247.174V77.252H248.884V74.57H250.342V77.252H253.114V78.386H250.342V82.832C250.342 83.516 250.486 84.038 250.774 84.398C251.062 84.746 251.53 84.92 252.178 84.92C252.37 84.92 252.562 84.896 252.754 84.848C252.946 84.8 253.12 84.752 253.276 84.704L253.528 85.82C253.372 85.904 253.144 85.982 252.844 86.054C252.544 86.126 252.256 86.162 251.98 86.162ZM254.583 75.074V73.436H256.383V75.074H254.583ZM254.763 86V77.252H256.221V86H254.763ZM258.946 86V77.252H260.368V78.746C260.656 78.194 261.064 77.78 261.592 77.504C262.12 77.228 262.714 77.09 263.374 77.09C265.45 77.09 266.488 78.242 266.488 80.546V86H265.03V80.636C265.03 79.82 264.868 79.226 264.544 78.854C264.232 78.47 263.728 78.278 263.032 78.278C262.228 78.278 261.586 78.53 261.106 79.034C260.638 79.526 260.404 80.186 260.404 81.014V86H258.946ZM273.047 89.402C272.291 89.402 271.577 89.3 270.905 89.096C270.245 88.904 269.657 88.61 269.141 88.214L269.627 87.152C270.167 87.536 270.701 87.812 271.229 87.98C271.769 88.148 272.351 88.232 272.975 88.232C274.703 88.232 275.567 87.344 275.567 85.568V84.02C275.315 84.572 274.919 85.01 274.379 85.334C273.851 85.646 273.245 85.802 272.561 85.802C271.757 85.802 271.061 85.616 270.473 85.244C269.885 84.872 269.429 84.362 269.105 83.714C268.793 83.054 268.637 82.292 268.637 81.428C268.637 80.564 268.793 79.808 269.105 79.16C269.429 78.5 269.885 77.99 270.473 77.63C271.061 77.27 271.757 77.09 272.561 77.09C273.245 77.09 273.851 77.246 274.379 77.558C274.919 77.87 275.315 78.296 275.567 78.836V77.252H276.989V85.37C276.989 86.714 276.653 87.722 275.981 88.394C275.321 89.066 274.343 89.402 273.047 89.402ZM272.831 84.614C273.671 84.614 274.337 84.326 274.829 83.75C275.321 83.174 275.567 82.4 275.567 81.428C275.567 80.456 275.321 79.688 274.829 79.124C274.337 78.548 273.671 78.26 272.831 78.26C272.003 78.26 271.343 78.548 270.851 79.124C270.359 79.688 270.113 80.456 270.113 81.428C270.113 82.4 270.359 83.174 270.851 83.75C271.343 84.326 272.003 84.614 272.831 84.614Z" fill="white"/>
<rect x="866" width="159" height="41" rx="20.5" fill="url(#paint3_linear)"/>
<path d="M883.602 26V13.31H884.844L889.722 22.472L894.564 13.31H895.806V26H894.438V16.082L890.208 24.038H889.236L884.952 16.1V26H883.602ZM901.52 26.162C900.92 26.162 900.38 26.048 899.9 25.82C899.432 25.58 899.06 25.256 898.784 24.848C898.508 24.44 898.37 23.984 898.37 23.48C898.37 22.844 898.532 22.34 898.856 21.968C899.192 21.596 899.738 21.332 900.494 21.176C901.262 21.008 902.306 20.924 903.626 20.924H904.202V20.366C904.202 19.622 904.046 19.088 903.734 18.764C903.434 18.428 902.948 18.26 902.276 18.26C901.748 18.26 901.238 18.338 900.746 18.494C900.254 18.638 899.75 18.878 899.234 19.214L898.73 18.152C899.186 17.828 899.738 17.57 900.386 17.378C901.046 17.186 901.676 17.09 902.276 17.09C903.404 17.09 904.238 17.366 904.778 17.918C905.33 18.47 905.606 19.328 905.606 20.492V26H904.238V24.488C904.01 25.004 903.656 25.412 903.176 25.712C902.708 26.012 902.156 26.162 901.52 26.162ZM901.754 25.064C902.474 25.064 903.062 24.818 903.518 24.326C903.974 23.822 904.202 23.186 904.202 22.418V21.878H903.644C902.672 21.878 901.904 21.926 901.34 22.022C900.788 22.106 900.398 22.262 900.17 22.49C899.954 22.706 899.846 23.006 899.846 23.39C899.846 23.882 900.014 24.284 900.35 24.596C900.698 24.908 901.166 25.064 901.754 25.064ZM908.311 26V17.252H909.733V18.818C910.201 17.762 911.161 17.18 912.613 17.072L913.135 17.018L913.243 18.278L912.325 18.386C911.497 18.458 910.867 18.722 910.435 19.178C910.003 19.622 909.787 20.234 909.787 21.014V26H908.311ZM914.763 26V13.31H916.221V21.14H916.257L920.307 17.252H922.161L917.769 21.464L922.539 26H920.685L916.257 21.896H916.221V26H914.763ZM927.476 26.162C926.096 26.162 925.004 25.76 924.2 24.956C923.396 24.14 922.994 23.036 922.994 21.644C922.994 20.744 923.174 19.952 923.534 19.268C923.894 18.572 924.386 18.038 925.01 17.666C925.646 17.282 926.378 17.09 927.206 17.09C928.394 17.09 929.324 17.474 929.996 18.242C930.668 18.998 931.004 20.042 931.004 21.374V21.932H924.416C924.464 22.928 924.752 23.69 925.28 24.218C925.808 24.734 926.54 24.992 927.476 24.992C928.004 24.992 928.508 24.914 928.988 24.758C929.468 24.59 929.924 24.32 930.356 23.948L930.86 24.974C930.464 25.346 929.96 25.64 929.348 25.856C928.736 26.06 928.112 26.162 927.476 26.162ZM927.242 18.17C926.414 18.17 925.76 18.428 925.28 18.944C924.8 19.46 924.518 20.138 924.434 20.978H929.744C929.708 20.09 929.474 19.4 929.042 18.908C928.622 18.416 928.022 18.17 927.242 18.17ZM936.624 26.162C935.592 26.162 934.818 25.892 934.302 25.352C933.786 24.8 933.528 24.008 933.528 22.976V18.386H931.818V17.252H933.528V14.57H934.986V17.252H937.758V18.386H934.986V22.832C934.986 23.516 935.13 24.038 935.418 24.398C935.706 24.746 936.174 24.92 936.822 24.92C937.014 24.92 937.206 24.896 937.398 24.848C937.59 24.8 937.764 24.752 937.92 24.704L938.172 25.82C938.016 25.904 937.788 25.982 937.488 26.054C937.188 26.126 936.9 26.162 936.624 26.162ZM939.407 29.24V17.252H940.829V18.818C941.093 18.278 941.483 17.858 941.999 17.558C942.527 17.246 943.139 17.09 943.835 17.09C944.615 17.09 945.293 17.276 945.869 17.648C946.457 18.008 946.907 18.53 947.219 19.214C947.543 19.886 947.705 20.69 947.705 21.626C947.705 22.55 947.543 23.354 947.219 24.038C946.907 24.71 946.457 25.232 945.869 25.604C945.293 25.976 944.615 26.162 943.835 26.162C943.163 26.162 942.563 26.012 942.035 25.712C941.507 25.412 941.117 24.998 940.865 24.47V29.24H939.407ZM943.529 24.992C944.345 24.992 944.999 24.704 945.491 24.128C945.983 23.54 946.229 22.706 946.229 21.626C946.229 20.534 945.983 19.7 945.491 19.124C944.999 18.548 944.345 18.26 943.529 18.26C942.713 18.26 942.059 18.548 941.567 19.124C941.075 19.7 940.829 20.534 940.829 21.626C940.829 22.706 941.075 23.54 941.567 24.128C942.059 24.704 942.713 24.992 943.529 24.992ZM952.583 26.162C951.695 26.162 951.023 25.904 950.567 25.388C950.123 24.86 949.901 24.098 949.901 23.102V13.31H951.359V22.994C951.359 24.278 951.869 24.92 952.889 24.92C953.189 24.92 953.459 24.884 953.699 24.812L953.663 26.036C953.291 26.12 952.931 26.162 952.583 26.162ZM957.981 26.162C957.381 26.162 956.841 26.048 956.361 25.82C955.893 25.58 955.521 25.256 955.245 24.848C954.969 24.44 954.831 23.984 954.831 23.48C954.831 22.844 954.993 22.34 955.317 21.968C955.653 21.596 956.199 21.332 956.955 21.176C957.723 21.008 958.767 20.924 960.087 20.924H960.663V20.366C960.663 19.622 960.507 19.088 960.195 18.764C959.895 18.428 959.409 18.26 958.737 18.26C958.209 18.26 957.699 18.338 957.207 18.494C956.715 18.638 956.211 18.878 955.695 19.214L955.191 18.152C955.647 17.828 956.199 17.57 956.847 17.378C957.507 17.186 958.137 17.09 958.737 17.09C959.865 17.09 960.699 17.366 961.239 17.918C961.791 18.47 962.067 19.328 962.067 20.492V26H960.699V24.488C960.471 25.004 960.117 25.412 959.637 25.712C959.169 26.012 958.617 26.162 957.981 26.162ZM958.215 25.064C958.935 25.064 959.523 24.818 959.979 24.326C960.435 23.822 960.663 23.186 960.663 22.418V21.878H960.105C959.133 21.878 958.365 21.926 957.801 22.022C957.249 22.106 956.859 22.262 956.631 22.49C956.415 22.706 956.307 23.006 956.307 23.39C956.307 23.882 956.475 24.284 956.811 24.596C957.159 24.908 957.627 25.064 958.215 25.064ZM968.48 26.162C967.604 26.162 966.848 25.976 966.212 25.604C965.576 25.22 965.084 24.686 964.736 24.002C964.4 23.306 964.232 22.496 964.232 21.572C964.232 20.18 964.61 19.088 965.366 18.296C966.122 17.492 967.16 17.09 968.48 17.09C969.02 17.09 969.554 17.186 970.082 17.378C970.61 17.57 971.048 17.84 971.396 18.188L970.892 19.25C970.544 18.914 970.16 18.668 969.74 18.512C969.332 18.356 968.942 18.278 968.57 18.278C967.658 18.278 966.956 18.566 966.464 19.142C965.972 19.706 965.726 20.522 965.726 21.59C965.726 22.634 965.972 23.462 966.464 24.074C966.956 24.674 967.658 24.974 968.57 24.974C968.942 24.974 969.332 24.896 969.74 24.74C970.16 24.584 970.544 24.332 970.892 23.984L971.396 25.046C971.048 25.394 970.604 25.67 970.064 25.874C969.536 26.066 969.008 26.162 968.48 26.162ZM976.871 26.162C975.491 26.162 974.399 25.76 973.595 24.956C972.791 24.14 972.389 23.036 972.389 21.644C972.389 20.744 972.569 19.952 972.929 19.268C973.289 18.572 973.781 18.038 974.405 17.666C975.041 17.282 975.773 17.09 976.601 17.09C977.789 17.09 978.719 17.474 979.391 18.242C980.063 18.998 980.399 20.042 980.399 21.374V21.932H973.811C973.859 22.928 974.147 23.69 974.675 24.218C975.203 24.734 975.935 24.992 976.871 24.992C977.399 24.992 977.903 24.914 978.383 24.758C978.863 24.59 979.319 24.32 979.751 23.948L980.255 24.974C979.859 25.346 979.355 25.64 978.743 25.856C978.131 26.06 977.507 26.162 976.871 26.162ZM976.637 18.17C975.809 18.17 975.155 18.428 974.675 18.944C974.195 19.46 973.913 20.138 973.829 20.978H979.139C979.103 20.09 978.869 19.4 978.437 18.908C978.017 18.416 977.417 18.17 976.637 18.17ZM991.29 26L985.746 13.31H987.33L991.992 24.128L996.636 13.31H998.184L992.622 26H991.29ZM999.794 26V24.884L1004.13 20.204C1004.74 19.532 1005.18 18.92 1005.45 18.368C1005.72 17.816 1005.86 17.252 1005.86 16.676C1005.86 15.2 1005 14.462 1003.29 14.462C1002 14.462 1000.87 14.942 999.884 15.902L999.326 14.75C999.794 14.27 1000.39 13.886 1001.11 13.598C1001.84 13.298 1002.61 13.148 1003.41 13.148C1004.68 13.148 1005.66 13.448 1006.33 14.048C1007.01 14.636 1007.35 15.476 1007.35 16.568C1007.35 17.324 1007.17 18.068 1006.8 18.8C1006.42 19.52 1005.85 20.288 1005.09 21.104L1001.68 24.74H1007.88V26H999.794Z" fill="white"/>
<rect x="665" width="155" height="41" rx="20.5" fill="url(#paint4_linear)"/>
<path d="M682.566 26V13.31H683.718L691.368 23.516V13.31H692.736V26H691.62L683.952 15.758V26H682.566ZM699.328 26.162C698.476 26.162 697.738 25.976 697.114 25.604C696.49 25.232 696.004 24.71 695.656 24.038C695.32 23.354 695.152 22.55 695.152 21.626C695.152 20.702 695.32 19.904 695.656 19.232C696.004 18.548 696.49 18.02 697.114 17.648C697.738 17.276 698.476 17.09 699.328 17.09C700.168 17.09 700.9 17.276 701.524 17.648C702.16 18.02 702.646 18.548 702.982 19.232C703.33 19.904 703.504 20.702 703.504 21.626C703.504 22.55 703.33 23.354 702.982 24.038C702.646 24.71 702.16 25.232 701.524 25.604C700.9 25.976 700.168 26.162 699.328 26.162ZM699.328 24.992C700.144 24.992 700.798 24.704 701.29 24.128C701.782 23.54 702.028 22.706 702.028 21.626C702.028 20.534 701.782 19.7 701.29 19.124C700.798 18.548 700.144 18.26 699.328 18.26C698.5 18.26 697.84 18.548 697.348 19.124C696.868 19.7 696.628 20.534 696.628 21.626C696.628 22.706 696.868 23.54 697.348 24.128C697.84 24.704 698.5 24.992 699.328 24.992ZM716.005 26.162C714.757 26.162 713.689 25.898 712.801 25.37C711.913 24.842 711.229 24.092 710.749 23.12C710.281 22.148 710.047 20.99 710.047 19.646C710.047 18.314 710.281 17.162 710.749 16.19C711.229 15.218 711.913 14.468 712.801 13.94C713.689 13.412 714.757 13.148 716.005 13.148C716.881 13.148 717.685 13.286 718.417 13.562C719.161 13.838 719.791 14.24 720.307 14.768L719.731 15.974C719.179 15.458 718.603 15.086 718.003 14.858C717.415 14.618 716.761 14.498 716.041 14.498C714.613 14.498 713.521 14.948 712.765 15.848C712.009 16.748 711.631 18.014 711.631 19.646C711.631 21.29 712.009 22.562 712.765 23.462C713.521 24.362 714.613 24.812 716.041 24.812C716.761 24.812 717.415 24.698 718.003 24.47C718.603 24.23 719.179 23.852 719.731 23.336L720.307 24.542C719.791 25.058 719.161 25.46 718.417 25.748C717.685 26.024 716.881 26.162 716.005 26.162ZM725.432 26.162C724.58 26.162 723.842 25.976 723.218 25.604C722.594 25.232 722.108 24.71 721.76 24.038C721.424 23.354 721.256 22.55 721.256 21.626C721.256 20.702 721.424 19.904 721.76 19.232C722.108 18.548 722.594 18.02 723.218 17.648C723.842 17.276 724.58 17.09 725.432 17.09C726.272 17.09 727.004 17.276 727.628 17.648C728.264 18.02 728.75 18.548 729.086 19.232C729.434 19.904 729.608 20.702 729.608 21.626C729.608 22.55 729.434 23.354 729.086 24.038C728.75 24.71 728.264 25.232 727.628 25.604C727.004 25.976 726.272 26.162 725.432 26.162ZM725.432 24.992C726.248 24.992 726.902 24.704 727.394 24.128C727.886 23.54 728.132 22.706 728.132 21.626C728.132 20.534 727.886 19.7 727.394 19.124C726.902 18.548 726.248 18.26 725.432 18.26C724.604 18.26 723.944 18.548 723.452 19.124C722.972 19.7 722.732 20.534 722.732 21.626C722.732 22.706 722.972 23.54 723.452 24.128C723.944 24.704 724.604 24.992 725.432 24.992ZM735.128 26.162C734.348 26.162 733.664 25.976 733.076 25.604C732.5 25.232 732.05 24.71 731.726 24.038C731.414 23.354 731.258 22.55 731.258 21.626C731.258 20.69 731.414 19.886 731.726 19.214C732.05 18.53 732.5 18.008 733.076 17.648C733.664 17.276 734.348 17.09 735.128 17.09C735.812 17.09 736.412 17.24 736.928 17.54C737.456 17.84 737.846 18.254 738.098 18.782V13.31H739.556V26H738.134V24.398C737.882 24.95 737.492 25.382 736.964 25.694C736.436 26.006 735.824 26.162 735.128 26.162ZM735.434 24.992C736.25 24.992 736.904 24.704 737.396 24.128C737.888 23.54 738.134 22.706 738.134 21.626C738.134 20.534 737.888 19.7 737.396 19.124C736.904 18.548 736.25 18.26 735.434 18.26C734.606 18.26 733.946 18.548 733.454 19.124C732.974 19.7 732.734 20.534 732.734 21.626C732.734 22.706 732.974 23.54 733.454 24.128C733.946 24.704 734.606 24.992 735.434 24.992ZM746.234 26.162C744.854 26.162 743.762 25.76 742.958 24.956C742.154 24.14 741.752 23.036 741.752 21.644C741.752 20.744 741.932 19.952 742.292 19.268C742.652 18.572 743.144 18.038 743.768 17.666C744.404 17.282 745.136 17.09 745.964 17.09C747.152 17.09 748.082 17.474 748.754 18.242C749.426 18.998 749.762 20.042 749.762 21.374V21.932H743.174C743.222 22.928 743.51 23.69 744.038 24.218C744.566 24.734 745.298 24.992 746.234 24.992C746.762 24.992 747.266 24.914 747.746 24.758C748.226 24.59 748.682 24.32 749.114 23.948L749.618 24.974C749.222 25.346 748.718 25.64 748.106 25.856C747.494 26.06 746.87 26.162 746.234 26.162ZM746 18.17C745.172 18.17 744.518 18.428 744.038 18.944C743.558 19.46 743.276 20.138 743.192 20.978H748.502C748.466 20.09 748.232 19.4 747.8 18.908C747.38 18.416 746.78 18.17 746 18.17ZM756.693 26V13.31H760.977C763.029 13.31 764.613 13.856 765.729 14.948C766.845 16.028 767.403 17.594 767.403 19.646C767.403 21.698 766.845 23.27 765.729 24.362C764.613 25.454 763.029 26 760.977 26H756.693ZM758.169 24.74H760.869C764.181 24.74 765.837 23.042 765.837 19.646C765.837 16.262 764.181 14.57 760.869 14.57H758.169V24.74ZM769.854 26V17.252H771.276V18.818C771.744 17.762 772.704 17.18 774.156 17.072L774.678 17.018L774.786 18.278L773.868 18.386C773.04 18.458 772.41 18.722 771.978 19.178C771.546 19.622 771.33 20.234 771.33 21.014V26H769.854ZM779.836 26.162C778.984 26.162 778.246 25.976 777.622 25.604C776.998 25.232 776.512 24.71 776.164 24.038C775.828 23.354 775.66 22.55 775.66 21.626C775.66 20.702 775.828 19.904 776.164 19.232C776.512 18.548 776.998 18.02 777.622 17.648C778.246 17.276 778.984 17.09 779.836 17.09C780.676 17.09 781.408 17.276 782.032 17.648C782.668 18.02 783.154 18.548 783.49 19.232C783.838 19.904 784.012 20.702 784.012 21.626C784.012 22.55 783.838 23.354 783.49 24.038C783.154 24.71 782.668 25.232 782.032 25.604C781.408 25.976 780.676 26.162 779.836 26.162ZM779.836 24.992C780.652 24.992 781.306 24.704 781.798 24.128C782.29 23.54 782.536 22.706 782.536 21.626C782.536 20.534 782.29 19.7 781.798 19.124C781.306 18.548 780.652 18.26 779.836 18.26C779.008 18.26 778.348 18.548 777.856 19.124C777.376 19.7 777.136 20.534 777.136 21.626C777.136 22.706 777.376 23.54 777.856 24.128C778.348 24.704 779.008 24.992 779.836 24.992ZM786.202 29.24V17.252H787.624V18.818C787.888 18.278 788.278 17.858 788.794 17.558C789.322 17.246 789.934 17.09 790.63 17.09C791.41 17.09 792.088 17.276 792.664 17.648C793.252 18.008 793.702 18.53 794.014 19.214C794.338 19.886 794.5 20.69 794.5 21.626C794.5 22.55 794.338 23.354 794.014 24.038C793.702 24.71 793.252 25.232 792.664 25.604C792.088 25.976 791.41 26.162 790.63 26.162C789.958 26.162 789.358 26.012 788.83 25.712C788.302 25.412 787.912 24.998 787.66 24.47V29.24H786.202ZM790.324 24.992C791.14 24.992 791.794 24.704 792.286 24.128C792.778 23.54 793.024 22.706 793.024 21.626C793.024 20.534 792.778 19.7 792.286 19.124C791.794 18.548 791.14 18.26 790.324 18.26C789.508 18.26 788.854 18.548 788.362 19.124C787.87 19.7 787.624 20.534 787.624 21.626C787.624 22.706 787.87 23.54 788.362 24.128C788.854 24.704 789.508 24.992 790.324 24.992ZM799.648 26.162C798.964 26.162 798.316 26.066 797.704 25.874C797.092 25.682 796.588 25.412 796.192 25.064L796.66 24.038C797.092 24.386 797.566 24.644 798.082 24.812C798.61 24.968 799.144 25.046 799.684 25.046C800.368 25.046 800.884 24.92 801.232 24.668C801.58 24.416 801.754 24.074 801.754 23.642C801.754 23.306 801.64 23.042 801.412 22.85C801.184 22.646 800.824 22.49 800.332 22.382L798.694 22.022C797.206 21.698 796.462 20.93 796.462 19.718C796.462 18.926 796.774 18.29 797.398 17.81C798.034 17.33 798.862 17.09 799.882 17.09C800.482 17.09 801.052 17.186 801.592 17.378C802.144 17.558 802.6 17.828 802.96 18.188L802.474 19.214C802.126 18.89 801.718 18.644 801.25 18.476C800.794 18.296 800.338 18.206 799.882 18.206C799.21 18.206 798.7 18.338 798.352 18.602C798.004 18.866 797.83 19.214 797.83 19.646C797.83 20.318 798.274 20.75 799.162 20.942L800.8 21.284C801.568 21.452 802.15 21.722 802.546 22.094C802.942 22.454 803.14 22.946 803.14 23.57C803.14 24.374 802.822 25.01 802.186 25.478C801.55 25.934 800.704 26.162 799.648 26.162Z" fill="white"/>
<rect x="248" width="116" height="41" rx="20.5" fill="url(#paint5_linear)"/>
<path d="M265.602 26V13.31H266.844L271.722 22.472L276.564 13.31H277.806V26H276.438V16.082L272.208 24.038H271.236L266.952 16.1V26H265.602ZM284.402 26.162C283.55 26.162 282.812 25.976 282.188 25.604C281.564 25.232 281.078 24.71 280.73 24.038C280.394 23.354 280.226 22.55 280.226 21.626C280.226 20.702 280.394 19.904 280.73 19.232C281.078 18.548 281.564 18.02 282.188 17.648C282.812 17.276 283.55 17.09 284.402 17.09C285.242 17.09 285.974 17.276 286.598 17.648C287.234 18.02 287.72 18.548 288.056 19.232C288.404 19.904 288.578 20.702 288.578 21.626C288.578 22.55 288.404 23.354 288.056 24.038C287.72 24.71 287.234 25.232 286.598 25.604C285.974 25.976 285.242 26.162 284.402 26.162ZM284.402 24.992C285.218 24.992 285.872 24.704 286.364 24.128C286.856 23.54 287.102 22.706 287.102 21.626C287.102 20.534 286.856 19.7 286.364 19.124C285.872 18.548 285.218 18.26 284.402 18.26C283.574 18.26 282.914 18.548 282.422 19.124C281.942 19.7 281.702 20.534 281.702 21.626C281.702 22.706 281.942 23.54 282.422 24.128C282.914 24.704 283.574 24.992 284.402 24.992ZM294.404 26.162C293.552 26.162 292.814 25.976 292.19 25.604C291.566 25.232 291.08 24.71 290.732 24.038C290.396 23.354 290.228 22.55 290.228 21.626C290.228 20.702 290.396 19.904 290.732 19.232C291.08 18.548 291.566 18.02 292.19 17.648C292.814 17.276 293.552 17.09 294.404 17.09C295.244 17.09 295.976 17.276 296.6 17.648C297.236 18.02 297.722 18.548 298.058 19.232C298.406 19.904 298.58 20.702 298.58 21.626C298.58 22.55 298.406 23.354 298.058 24.038C297.722 24.71 297.236 25.232 296.6 25.604C295.976 25.976 295.244 26.162 294.404 26.162ZM294.404 24.992C295.22 24.992 295.874 24.704 296.366 24.128C296.858 23.54 297.104 22.706 297.104 21.626C297.104 20.534 296.858 19.7 296.366 19.124C295.874 18.548 295.22 18.26 294.404 18.26C293.576 18.26 292.916 18.548 292.424 19.124C291.944 19.7 291.704 20.534 291.704 21.626C291.704 22.706 291.944 23.54 292.424 24.128C292.916 24.704 293.576 24.992 294.404 24.992ZM300.77 26V17.252H302.192V18.746C302.48 18.194 302.888 17.78 303.416 17.504C303.944 17.228 304.538 17.09 305.198 17.09C307.274 17.09 308.312 18.242 308.312 20.546V26H306.854V20.636C306.854 19.82 306.692 19.226 306.368 18.854C306.056 18.47 305.552 18.278 304.856 18.278C304.052 18.278 303.41 18.53 302.93 19.034C302.462 19.526 302.228 20.186 302.228 21.014V26H300.77ZM315.429 26.162C314.733 26.162 314.121 26.006 313.593 25.694C313.077 25.382 312.687 24.956 312.423 24.416V26H311.001V13.31H312.459V18.764C312.711 18.248 313.101 17.84 313.629 17.54C314.157 17.24 314.757 17.09 315.429 17.09C316.209 17.09 316.887 17.276 317.463 17.648C318.051 18.008 318.501 18.53 318.813 19.214C319.137 19.886 319.299 20.69 319.299 21.626C319.299 22.55 319.137 23.354 318.813 24.038C318.501 24.71 318.051 25.232 317.463 25.604C316.887 25.976 316.209 26.162 315.429 26.162ZM315.123 24.992C315.939 24.992 316.593 24.704 317.085 24.128C317.577 23.54 317.823 22.706 317.823 21.626C317.823 20.534 317.577 19.7 317.085 19.124C316.593 18.548 315.939 18.26 315.123 18.26C314.307 18.26 313.653 18.548 313.161 19.124C312.669 19.7 312.423 20.534 312.423 21.626C312.423 22.706 312.669 23.54 313.161 24.128C313.653 24.704 314.307 24.992 315.123 24.992ZM324.249 26.162C323.649 26.162 323.109 26.048 322.629 25.82C322.161 25.58 321.789 25.256 321.513 24.848C321.237 24.44 321.099 23.984 321.099 23.48C321.099 22.844 321.261 22.34 321.585 21.968C321.921 21.596 322.467 21.332 323.223 21.176C323.991 21.008 325.035 20.924 326.355 20.924H326.931V20.366C326.931 19.622 326.775 19.088 326.463 18.764C326.163 18.428 325.677 18.26 325.005 18.26C324.477 18.26 323.967 18.338 323.475 18.494C322.983 18.638 322.479 18.878 321.963 19.214L321.459 18.152C321.915 17.828 322.467 17.57 323.115 17.378C323.775 17.186 324.405 17.09 325.005 17.09C326.133 17.09 326.967 17.366 327.507 17.918C328.059 18.47 328.335 19.328 328.335 20.492V26H326.967V24.488C326.739 25.004 326.385 25.412 325.905 25.712C325.437 26.012 324.885 26.162 324.249 26.162ZM324.483 25.064C325.203 25.064 325.791 24.818 326.247 24.326C326.703 23.822 326.931 23.186 326.931 22.418V21.878H326.373C325.401 21.878 324.633 21.926 324.069 22.022C323.517 22.106 323.127 22.262 322.899 22.49C322.683 22.706 322.575 23.006 322.575 23.39C322.575 23.882 322.743 24.284 323.079 24.596C323.427 24.908 323.895 25.064 324.483 25.064ZM333.992 26.162C333.308 26.162 332.66 26.066 332.048 25.874C331.436 25.682 330.932 25.412 330.536 25.064L331.004 24.038C331.436 24.386 331.91 24.644 332.426 24.812C332.954 24.968 333.488 25.046 334.028 25.046C334.712 25.046 335.228 24.92 335.576 24.668C335.924 24.416 336.098 24.074 336.098 23.642C336.098 23.306 335.984 23.042 335.756 22.85C335.528 22.646 335.168 22.49 334.676 22.382L333.038 22.022C331.55 21.698 330.806 20.93 330.806 19.718C330.806 18.926 331.118 18.29 331.742 17.81C332.378 17.33 333.206 17.09 334.226 17.09C334.826 17.09 335.396 17.186 335.936 17.378C336.488 17.558 336.944 17.828 337.304 18.188L336.818 19.214C336.47 18.89 336.062 18.644 335.594 18.476C335.138 18.296 334.682 18.206 334.226 18.206C333.554 18.206 333.044 18.338 332.696 18.602C332.348 18.866 332.174 19.214 332.174 19.646C332.174 20.318 332.618 20.75 333.506 20.942L335.144 21.284C335.912 21.452 336.494 21.722 336.89 22.094C337.286 22.454 337.484 22.946 337.484 23.57C337.484 24.374 337.166 25.01 336.53 25.478C335.894 25.934 335.048 26.162 333.992 26.162ZM343.648 26.162C342.268 26.162 341.176 25.76 340.372 24.956C339.568 24.14 339.166 23.036 339.166 21.644C339.166 20.744 339.346 19.952 339.706 19.268C340.066 18.572 340.558 18.038 341.182 17.666C341.818 17.282 342.55 17.09 343.378 17.09C344.566 17.09 345.496 17.474 346.168 18.242C346.84 18.998 347.176 20.042 347.176 21.374V21.932H340.588C340.636 22.928 340.924 23.69 341.452 24.218C341.98 24.734 342.712 24.992 343.648 24.992C344.176 24.992 344.68 24.914 345.16 24.758C345.64 24.59 346.096 24.32 346.528 23.948L347.032 24.974C346.636 25.346 346.132 25.64 345.52 25.856C344.908 26.06 344.284 26.162 343.648 26.162ZM343.414 18.17C342.586 18.17 341.932 18.428 341.452 18.944C340.972 19.46 340.69 20.138 340.606 20.978H345.916C345.88 20.09 345.646 19.4 345.214 18.908C344.794 18.416 344.194 18.17 343.414 18.17Z" fill="white"/>
<rect x="456" width="142" height="41" rx="20.5" fill="url(#paint6_linear)"/>
<path d="M477.67 26.162C476.674 26.162 475.774 26.036 474.97 25.784C474.166 25.52 473.47 25.142 472.882 24.65L473.404 23.462C474.016 23.93 474.658 24.278 475.33 24.506C476.002 24.734 476.782 24.848 477.67 24.848C478.75 24.848 479.548 24.65 480.064 24.254C480.592 23.846 480.856 23.312 480.856 22.652C480.856 22.124 480.664 21.704 480.28 21.392C479.908 21.08 479.278 20.834 478.39 20.654L476.518 20.276C475.39 20.036 474.544 19.646 473.98 19.106C473.428 18.554 473.152 17.822 473.152 16.91C473.152 16.154 473.344 15.494 473.728 14.93C474.124 14.366 474.67 13.928 475.366 13.616C476.062 13.304 476.866 13.148 477.778 13.148C478.63 13.148 479.422 13.286 480.154 13.562C480.886 13.826 481.504 14.21 482.008 14.714L481.486 15.866C480.946 15.374 480.376 15.02 479.776 14.804C479.176 14.576 478.504 14.462 477.76 14.462C476.812 14.462 476.056 14.684 475.492 15.128C474.928 15.56 474.646 16.136 474.646 16.856C474.646 17.432 474.82 17.888 475.168 18.224C475.528 18.56 476.11 18.806 476.914 18.962L478.786 19.358C479.998 19.61 480.892 19.994 481.468 20.51C482.056 21.014 482.35 21.704 482.35 22.58C482.35 23.288 482.158 23.912 481.774 24.452C481.402 24.992 480.862 25.412 480.154 25.712C479.458 26.012 478.63 26.162 477.67 26.162ZM487.917 26.162C486.885 26.162 486.111 25.892 485.595 25.352C485.079 24.8 484.821 24.008 484.821 22.976V18.386H483.111V17.252H484.821V14.57H486.279V17.252H489.051V18.386H486.279V22.832C486.279 23.516 486.423 24.038 486.711 24.398C486.999 24.746 487.467 24.92 488.115 24.92C488.307 24.92 488.499 24.896 488.691 24.848C488.883 24.8 489.057 24.752 489.213 24.704L489.465 25.82C489.309 25.904 489.081 25.982 488.781 26.054C488.481 26.126 488.193 26.162 487.917 26.162ZM494.248 26.162C493.396 26.162 492.658 25.976 492.034 25.604C491.41 25.232 490.924 24.71 490.576 24.038C490.24 23.354 490.072 22.55 490.072 21.626C490.072 20.702 490.24 19.904 490.576 19.232C490.924 18.548 491.41 18.02 492.034 17.648C492.658 17.276 493.396 17.09 494.248 17.09C495.088 17.09 495.82 17.276 496.444 17.648C497.08 18.02 497.566 18.548 497.902 19.232C498.25 19.904 498.424 20.702 498.424 21.626C498.424 22.55 498.25 23.354 497.902 24.038C497.566 24.71 497.08 25.232 496.444 25.604C495.82 25.976 495.088 26.162 494.248 26.162ZM494.248 24.992C495.064 24.992 495.718 24.704 496.21 24.128C496.702 23.54 496.948 22.706 496.948 21.626C496.948 20.534 496.702 19.7 496.21 19.124C495.718 18.548 495.064 18.26 494.248 18.26C493.42 18.26 492.76 18.548 492.268 19.124C491.788 19.7 491.548 20.534 491.548 21.626C491.548 22.706 491.788 23.54 492.268 24.128C492.76 24.704 493.42 24.992 494.248 24.992ZM500.614 26V17.252H502.036V18.818C502.504 17.762 503.464 17.18 504.916 17.072L505.438 17.018L505.546 18.278L504.628 18.386C503.8 18.458 503.17 18.722 502.738 19.178C502.306 19.622 502.09 20.234 502.09 21.014V26H500.614ZM510.902 26.162C509.522 26.162 508.43 25.76 507.626 24.956C506.822 24.14 506.42 23.036 506.42 21.644C506.42 20.744 506.6 19.952 506.96 19.268C507.32 18.572 507.812 18.038 508.436 17.666C509.072 17.282 509.804 17.09 510.632 17.09C511.82 17.09 512.75 17.474 513.422 18.242C514.094 18.998 514.43 20.042 514.43 21.374V21.932H507.842C507.89 22.928 508.178 23.69 508.706 24.218C509.234 24.734 509.966 24.992 510.902 24.992C511.43 24.992 511.934 24.914 512.414 24.758C512.894 24.59 513.35 24.32 513.782 23.948L514.286 24.974C513.89 25.346 513.386 25.64 512.774 25.856C512.162 26.06 511.538 26.162 510.902 26.162ZM510.668 18.17C509.84 18.17 509.186 18.428 508.706 18.944C508.226 19.46 507.944 20.138 507.86 20.978H513.17C513.134 20.09 512.9 19.4 512.468 18.908C512.048 18.416 511.448 18.17 510.668 18.17ZM517.008 26V18.386H515.28V17.252H517.008V16.946C517.008 15.782 517.296 14.9 517.872 14.3C518.46 13.7 519.36 13.364 520.572 13.292L521.274 13.256L521.4 14.372L520.572 14.426C519.828 14.486 519.288 14.708 518.952 15.092C518.628 15.476 518.466 16.034 518.466 16.766V17.252H520.986V18.386H518.466V26H517.008ZM522.534 26V17.252H523.956V18.818C524.424 17.762 525.384 17.18 526.836 17.072L527.358 17.018L527.466 18.278L526.548 18.386C525.72 18.458 525.09 18.722 524.658 19.178C524.226 19.622 524.01 20.234 524.01 21.014V26H522.534ZM532.516 26.162C531.664 26.162 530.926 25.976 530.302 25.604C529.678 25.232 529.192 24.71 528.844 24.038C528.508 23.354 528.34 22.55 528.34 21.626C528.34 20.702 528.508 19.904 528.844 19.232C529.192 18.548 529.678 18.02 530.302 17.648C530.926 17.276 531.664 17.09 532.516 17.09C533.356 17.09 534.088 17.276 534.712 17.648C535.348 18.02 535.834 18.548 536.17 19.232C536.518 19.904 536.692 20.702 536.692 21.626C536.692 22.55 536.518 23.354 536.17 24.038C535.834 24.71 535.348 25.232 534.712 25.604C534.088 25.976 533.356 26.162 532.516 26.162ZM532.516 24.992C533.332 24.992 533.986 24.704 534.478 24.128C534.97 23.54 535.216 22.706 535.216 21.626C535.216 20.534 534.97 19.7 534.478 19.124C533.986 18.548 533.332 18.26 532.516 18.26C531.688 18.26 531.028 18.548 530.536 19.124C530.056 19.7 529.816 20.534 529.816 21.626C529.816 22.706 530.056 23.54 530.536 24.128C531.028 24.704 531.688 24.992 532.516 24.992ZM538.882 26V17.252H540.304V18.746C540.592 18.194 541 17.78 541.528 17.504C542.056 17.228 542.65 17.09 543.31 17.09C545.386 17.09 546.424 18.242 546.424 20.546V26H544.966V20.636C544.966 19.82 544.804 19.226 544.48 18.854C544.168 18.47 543.664 18.278 542.968 18.278C542.164 18.278 541.522 18.53 541.042 19.034C540.574 19.526 540.34 20.186 540.34 21.014V26H538.882ZM552.622 26.162C551.59 26.162 550.816 25.892 550.3 25.352C549.784 24.8 549.526 24.008 549.526 22.976V18.386H547.816V17.252H549.526V14.57H550.984V17.252H553.756V18.386H550.984V22.832C550.984 23.516 551.128 24.038 551.416 24.398C551.704 24.746 552.172 24.92 552.82 24.92C553.012 24.92 553.204 24.896 553.396 24.848C553.588 24.8 553.762 24.752 553.918 24.704L554.17 25.82C554.014 25.904 553.786 25.982 553.486 26.054C553.186 26.126 552.898 26.162 552.622 26.162ZM564.186 26L558.642 13.31H560.226L564.888 24.128L569.532 13.31H571.08L565.518 26H564.186ZM572.69 26V24.884L577.028 20.204C577.64 19.532 578.078 18.92 578.342 18.368C578.618 17.816 578.756 17.252 578.756 16.676C578.756 15.2 577.898 14.462 576.182 14.462C574.898 14.462 573.764 14.942 572.78 15.902L572.222 14.75C572.69 14.27 573.284 13.886 574.004 13.598C574.736 13.298 575.504 13.148 576.308 13.148C577.58 13.148 578.552 13.448 579.224 14.048C579.908 14.636 580.25 15.476 580.25 16.568C580.25 17.324 580.064 18.068 579.692 18.8C579.32 19.52 578.75 20.288 577.982 21.104L574.58 24.74H580.772V26H572.69Z" fill="white"/>
<rect x="655" y="60" width="211" height="41" rx="20.5" fill="url(#paint7_linear)"/>
<path d="M678.056 86.162C676.808 86.162 675.74 85.898 674.852 85.37C673.964 84.842 673.28 84.092 672.8 83.12C672.332 82.148 672.098 80.99 672.098 79.646C672.098 78.314 672.332 77.162 672.8 76.19C673.28 75.218 673.964 74.468 674.852 73.94C675.74 73.412 676.808 73.148 678.056 73.148C678.932 73.148 679.736 73.286 680.468 73.562C681.212 73.838 681.842 74.24 682.358 74.768L681.782 75.974C681.23 75.458 680.654 75.086 680.054 74.858C679.466 74.618 678.812 74.498 678.092 74.498C676.664 74.498 675.572 74.948 674.816 75.848C674.06 76.748 673.682 78.014 673.682 79.646C673.682 81.29 674.06 82.562 674.816 83.462C675.572 84.362 676.664 84.812 678.092 84.812C678.812 84.812 679.466 84.698 680.054 84.47C680.654 84.23 681.23 83.852 681.782 83.336L682.358 84.542C681.842 85.058 681.212 85.46 680.468 85.748C679.736 86.024 678.932 86.162 678.056 86.162ZM687.382 86.162C685.282 86.162 684.232 85.004 684.232 82.688V77.252H685.69V82.67C685.69 83.45 685.846 84.026 686.158 84.398C686.482 84.77 686.986 84.956 687.67 84.956C688.414 84.956 689.02 84.71 689.488 84.218C689.956 83.714 690.19 83.048 690.19 82.22V77.252H691.648V86H690.226V84.524C689.95 85.052 689.56 85.46 689.056 85.748C688.564 86.024 688.006 86.162 687.382 86.162ZM697.328 86.162C696.644 86.162 695.996 86.066 695.384 85.874C694.772 85.682 694.268 85.412 693.872 85.064L694.34 84.038C694.772 84.386 695.246 84.644 695.762 84.812C696.29 84.968 696.824 85.046 697.364 85.046C698.048 85.046 698.564 84.92 698.912 84.668C699.26 84.416 699.434 84.074 699.434 83.642C699.434 83.306 699.32 83.042 699.092 82.85C698.864 82.646 698.504 82.49 698.012 82.382L696.374 82.022C694.886 81.698 694.142 80.93 694.142 79.718C694.142 78.926 694.454 78.29 695.078 77.81C695.714 77.33 696.542 77.09 697.562 77.09C698.162 77.09 698.732 77.186 699.272 77.378C699.824 77.558 700.28 77.828 700.64 78.188L700.154 79.214C699.806 78.89 699.398 78.644 698.93 78.476C698.474 78.296 698.018 78.206 697.562 78.206C696.89 78.206 696.38 78.338 696.032 78.602C695.684 78.866 695.51 79.214 695.51 79.646C695.51 80.318 695.954 80.75 696.842 80.942L698.48 81.284C699.248 81.452 699.83 81.722 700.226 82.094C700.622 82.454 700.82 82.946 700.82 83.57C700.82 84.374 700.502 85.01 699.866 85.478C699.23 85.934 698.384 86.162 697.328 86.162ZM706.464 86.162C705.432 86.162 704.658 85.892 704.142 85.352C703.626 84.8 703.368 84.008 703.368 82.976V78.386H701.658V77.252H703.368V74.57H704.826V77.252H707.598V78.386H704.826V82.832C704.826 83.516 704.97 84.038 705.258 84.398C705.546 84.746 706.014 84.92 706.662 84.92C706.854 84.92 707.046 84.896 707.238 84.848C707.43 84.8 707.604 84.752 707.76 84.704L708.012 85.82C707.856 85.904 707.628 85.982 707.328 86.054C707.028 86.126 706.74 86.162 706.464 86.162ZM712.795 86.162C711.943 86.162 711.205 85.976 710.581 85.604C709.957 85.232 709.471 84.71 709.123 84.038C708.787 83.354 708.619 82.55 708.619 81.626C708.619 80.702 708.787 79.904 709.123 79.232C709.471 78.548 709.957 78.02 710.581 77.648C711.205 77.276 711.943 77.09 712.795 77.09C713.635 77.09 714.367 77.276 714.991 77.648C715.627 78.02 716.113 78.548 716.449 79.232C716.797 79.904 716.971 80.702 716.971 81.626C716.971 82.55 716.797 83.354 716.449 84.038C716.113 84.71 715.627 85.232 714.991 85.604C714.367 85.976 713.635 86.162 712.795 86.162ZM712.795 84.992C713.611 84.992 714.265 84.704 714.757 84.128C715.249 83.54 715.495 82.706 715.495 81.626C715.495 80.534 715.249 79.7 714.757 79.124C714.265 78.548 713.611 78.26 712.795 78.26C711.967 78.26 711.307 78.548 710.815 79.124C710.335 79.7 710.095 80.534 710.095 81.626C710.095 82.706 710.335 83.54 710.815 84.128C711.307 84.704 711.967 84.992 712.795 84.992ZM719.197 86V77.252H720.619V78.728C720.883 78.2 721.249 77.798 721.717 77.522C722.185 77.234 722.731 77.09 723.355 77.09C724.723 77.09 725.599 77.684 725.983 78.872C726.247 78.32 726.637 77.888 727.153 77.576C727.669 77.252 728.263 77.09 728.935 77.09C730.879 77.09 731.851 78.242 731.851 80.546V86H730.393V80.618C730.393 79.814 730.249 79.226 729.961 78.854C729.685 78.47 729.223 78.278 728.575 78.278C727.867 78.278 727.303 78.53 726.883 79.034C726.463 79.538 726.253 80.21 726.253 81.05V86H724.795V80.618C724.795 79.814 724.651 79.226 724.363 78.854C724.087 78.47 723.625 78.278 722.977 78.278C722.257 78.278 721.687 78.53 721.267 79.034C720.859 79.538 720.655 80.21 720.655 81.05V86H719.197ZM743.502 86.162C742.506 86.162 741.606 86.036 740.802 85.784C739.998 85.52 739.302 85.142 738.714 84.65L739.236 83.462C739.848 83.93 740.49 84.278 741.162 84.506C741.834 84.734 742.614 84.848 743.502 84.848C744.582 84.848 745.38 84.65 745.896 84.254C746.424 83.846 746.688 83.312 746.688 82.652C746.688 82.124 746.496 81.704 746.112 81.392C745.74 81.08 745.11 80.834 744.222 80.654L742.35 80.276C741.222 80.036 740.376 79.646 739.812 79.106C739.26 78.554 738.984 77.822 738.984 76.91C738.984 76.154 739.176 75.494 739.56 74.93C739.956 74.366 740.502 73.928 741.198 73.616C741.894 73.304 742.698 73.148 743.61 73.148C744.462 73.148 745.254 73.286 745.986 73.562C746.718 73.826 747.336 74.21 747.84 74.714L747.318 75.866C746.778 75.374 746.208 75.02 745.608 74.804C745.008 74.576 744.336 74.462 743.592 74.462C742.644 74.462 741.888 74.684 741.324 75.128C740.76 75.56 740.478 76.136 740.478 76.856C740.478 77.432 740.652 77.888 741 78.224C741.36 78.56 741.942 78.806 742.746 78.962L744.618 79.358C745.83 79.61 746.724 79.994 747.3 80.51C747.888 81.014 748.182 81.704 748.182 82.58C748.182 83.288 747.99 83.912 747.606 84.452C747.234 84.992 746.694 85.412 745.986 85.712C745.29 86.012 744.462 86.162 743.502 86.162ZM753.749 86.162C752.717 86.162 751.943 85.892 751.427 85.352C750.911 84.8 750.653 84.008 750.653 82.976V78.386H748.943V77.252H750.653V74.57H752.111V77.252H754.883V78.386H752.111V82.832C752.111 83.516 752.255 84.038 752.543 84.398C752.831 84.746 753.299 84.92 753.947 84.92C754.139 84.92 754.331 84.896 754.523 84.848C754.715 84.8 754.889 84.752 755.045 84.704L755.297 85.82C755.141 85.904 754.913 85.982 754.613 86.054C754.313 86.126 754.025 86.162 753.749 86.162ZM760.08 86.162C759.228 86.162 758.49 85.976 757.866 85.604C757.242 85.232 756.756 84.71 756.408 84.038C756.072 83.354 755.904 82.55 755.904 81.626C755.904 80.702 756.072 79.904 756.408 79.232C756.756 78.548 757.242 78.02 757.866 77.648C758.49 77.276 759.228 77.09 760.08 77.09C760.92 77.09 761.652 77.276 762.276 77.648C762.912 78.02 763.398 78.548 763.734 79.232C764.082 79.904 764.256 80.702 764.256 81.626C764.256 82.55 764.082 83.354 763.734 84.038C763.398 84.71 762.912 85.232 762.276 85.604C761.652 85.976 760.92 86.162 760.08 86.162ZM760.08 84.992C760.896 84.992 761.55 84.704 762.042 84.128C762.534 83.54 762.78 82.706 762.78 81.626C762.78 80.534 762.534 79.7 762.042 79.124C761.55 78.548 760.896 78.26 760.08 78.26C759.252 78.26 758.592 78.548 758.1 79.124C757.62 79.7 757.38 80.534 757.38 81.626C757.38 82.706 757.62 83.54 758.1 84.128C758.592 84.704 759.252 84.992 760.08 84.992ZM766.446 86V77.252H767.868V78.818C768.336 77.762 769.296 77.18 770.748 77.072L771.27 77.018L771.378 78.278L770.46 78.386C769.632 78.458 769.002 78.722 768.57 79.178C768.138 79.622 767.922 80.234 767.922 81.014V86H766.446ZM776.734 86.162C775.354 86.162 774.262 85.76 773.458 84.956C772.654 84.14 772.252 83.036 772.252 81.644C772.252 80.744 772.432 79.952 772.792 79.268C773.152 78.572 773.644 78.038 774.268 77.666C774.904 77.282 775.636 77.09 776.464 77.09C777.652 77.09 778.582 77.474 779.254 78.242C779.926 78.998 780.262 80.042 780.262 81.374V81.932H773.674C773.722 82.928 774.01 83.69 774.538 84.218C775.066 84.734 775.798 84.992 776.734 84.992C777.262 84.992 777.766 84.914 778.246 84.758C778.726 84.59 779.182 84.32 779.614 83.948L780.118 84.974C779.722 85.346 779.218 85.64 778.606 85.856C777.994 86.06 777.37 86.162 776.734 86.162ZM776.5 78.17C775.672 78.17 775.018 78.428 774.538 78.944C774.058 79.46 773.776 80.138 773.692 80.978H779.002C778.966 80.09 778.732 79.4 778.3 78.908C777.88 78.416 777.28 78.17 776.5 78.17ZM790.307 86V74.588H785.699V73.31H796.409V74.588H791.801V86H790.307ZM797.823 86V73.31H799.281V78.692C799.569 78.164 799.971 77.768 800.487 77.504C801.015 77.228 801.603 77.09 802.251 77.09C804.327 77.09 805.365 78.242 805.365 80.546V86H803.907V80.636C803.907 79.82 803.745 79.226 803.421 78.854C803.109 78.47 802.605 78.278 801.909 78.278C801.105 78.278 800.463 78.53 799.983 79.034C799.515 79.526 799.281 80.186 799.281 81.014V86H797.823ZM811.996 86.162C810.616 86.162 809.524 85.76 808.72 84.956C807.916 84.14 807.514 83.036 807.514 81.644C807.514 80.744 807.694 79.952 808.054 79.268C808.414 78.572 808.906 78.038 809.53 77.666C810.166 77.282 810.898 77.09 811.726 77.09C812.914 77.09 813.844 77.474 814.516 78.242C815.188 78.998 815.524 80.042 815.524 81.374V81.932H808.936C808.984 82.928 809.272 83.69 809.8 84.218C810.328 84.734 811.06 84.992 811.996 84.992C812.524 84.992 813.028 84.914 813.508 84.758C813.988 84.59 814.444 84.32 814.876 83.948L815.38 84.974C814.984 85.346 814.48 85.64 813.868 85.856C813.256 86.06 812.632 86.162 811.996 86.162ZM811.762 78.17C810.934 78.17 810.28 78.428 809.8 78.944C809.32 79.46 809.038 80.138 808.954 80.978H814.264C814.228 80.09 813.994 79.4 813.562 78.908C813.142 78.416 812.542 78.17 811.762 78.17ZM817.67 86V77.252H819.092V78.728C819.356 78.2 819.722 77.798 820.19 77.522C820.658 77.234 821.204 77.09 821.828 77.09C823.196 77.09 824.072 77.684 824.456 78.872C824.72 78.32 825.11 77.888 825.626 77.576C826.142 77.252 826.736 77.09 827.408 77.09C829.352 77.09 830.324 78.242 830.324 80.546V86H828.866V80.618C828.866 79.814 828.722 79.226 828.434 78.854C828.158 78.47 827.696 78.278 827.048 78.278C826.34 78.278 825.776 78.53 825.356 79.034C824.936 79.538 824.726 80.21 824.726 81.05V86H823.268V80.618C823.268 79.814 823.124 79.226 822.836 78.854C822.56 78.47 822.098 78.278 821.45 78.278C820.73 78.278 820.16 78.53 819.74 79.034C819.332 79.538 819.128 80.21 819.128 81.05V86H817.67ZM836.992 86.162C835.612 86.162 834.52 85.76 833.716 84.956C832.912 84.14 832.51 83.036 832.51 81.644C832.51 80.744 832.69 79.952 833.05 79.268C833.41 78.572 833.902 78.038 834.526 77.666C835.162 77.282 835.894 77.09 836.722 77.09C837.91 77.09 838.84 77.474 839.512 78.242C840.184 78.998 840.52 80.042 840.52 81.374V81.932H833.932C833.98 82.928 834.268 83.69 834.796 84.218C835.324 84.734 836.056 84.992 836.992 84.992C837.52 84.992 838.024 84.914 838.504 84.758C838.984 84.59 839.44 84.32 839.872 83.948L840.376 84.974C839.98 85.346 839.476 85.64 838.864 85.856C838.252 86.06 837.628 86.162 836.992 86.162ZM836.758 78.17C835.93 78.17 835.276 78.428 834.796 78.944C834.316 79.46 834.034 80.138 833.95 80.978H839.26C839.224 80.09 838.99 79.4 838.558 78.908C838.138 78.416 837.538 78.17 836.758 78.17ZM845.582 86.162C844.898 86.162 844.25 86.066 843.638 85.874C843.026 85.682 842.522 85.412 842.126 85.064L842.594 84.038C843.026 84.386 843.5 84.644 844.016 84.812C844.544 84.968 845.078 85.046 845.618 85.046C846.302 85.046 846.818 84.92 847.166 84.668C847.514 84.416 847.688 84.074 847.688 83.642C847.688 83.306 847.574 83.042 847.346 82.85C847.118 82.646 846.758 82.49 846.266 82.382L844.628 82.022C843.14 81.698 842.396 80.93 842.396 79.718C842.396 78.926 842.708 78.29 843.332 77.81C843.968 77.33 844.796 77.09 845.816 77.09C846.416 77.09 846.986 77.186 847.526 77.378C848.078 77.558 848.534 77.828 848.894 78.188L848.408 79.214C848.06 78.89 847.652 78.644 847.184 78.476C846.728 78.296 846.272 78.206 845.816 78.206C845.144 78.206 844.634 78.338 844.286 78.602C843.938 78.866 843.764 79.214 843.764 79.646C843.764 80.318 844.208 80.75 845.096 80.942L846.734 81.284C847.502 81.452 848.084 81.722 848.48 82.094C848.876 82.454 849.074 82.946 849.074 83.57C849.074 84.374 848.756 85.01 848.12 85.478C847.484 85.934 846.638 86.162 845.582 86.162Z" fill="white"/>
<rect x="957" y="60" width="155" height="41" rx="20.5" fill="white" fill-opacity="0.1"/>
<path d="M974.602 86V73.31H975.844L980.722 82.472L985.564 73.31H986.806V86H985.438V76.082L981.208 84.038H980.236L975.952 76.1V86H974.602ZM993.402 86.162C992.55 86.162 991.812 85.976 991.188 85.604C990.564 85.232 990.078 84.71 989.73 84.038C989.394 83.354 989.226 82.55 989.226 81.626C989.226 80.702 989.394 79.904 989.73 79.232C990.078 78.548 990.564 78.02 991.188 77.648C991.812 77.276 992.55 77.09 993.402 77.09C994.242 77.09 994.974 77.276 995.598 77.648C996.234 78.02 996.72 78.548 997.056 79.232C997.404 79.904 997.578 80.702 997.578 81.626C997.578 82.55 997.404 83.354 997.056 84.038C996.72 84.71 996.234 85.232 995.598 85.604C994.974 85.976 994.242 86.162 993.402 86.162ZM993.402 84.992C994.218 84.992 994.872 84.704 995.364 84.128C995.856 83.54 996.102 82.706 996.102 81.626C996.102 80.534 995.856 79.7 995.364 79.124C994.872 78.548 994.218 78.26 993.402 78.26C992.574 78.26 991.914 78.548 991.422 79.124C990.942 79.7 990.702 80.534 990.702 81.626C990.702 82.706 990.942 83.54 991.422 84.128C991.914 84.704 992.574 84.992 993.402 84.992ZM999.768 86V77.252H1001.19V78.818C1001.66 77.762 1002.62 77.18 1004.07 77.072L1004.59 77.018L1004.7 78.278L1003.78 78.386C1002.95 78.458 1002.32 78.722 1001.89 79.178C1001.46 79.622 1001.24 80.234 1001.24 81.014V86H999.768ZM1010.06 86.162C1008.68 86.162 1007.58 85.76 1006.78 84.956C1005.98 84.14 1005.57 83.036 1005.57 81.644C1005.57 80.744 1005.75 79.952 1006.11 79.268C1006.47 78.572 1006.97 78.038 1007.59 77.666C1008.23 77.282 1008.96 77.09 1009.79 77.09C1010.97 77.09 1011.9 77.474 1012.58 78.242C1013.25 78.998 1013.58 80.042 1013.58 81.374V81.932H1007C1007.04 82.928 1007.33 83.69 1007.86 84.218C1008.39 84.734 1009.12 84.992 1010.06 84.992C1010.58 84.992 1011.09 84.914 1011.57 84.758C1012.05 84.59 1012.5 84.32 1012.94 83.948L1013.44 84.974C1013.04 85.346 1012.54 85.64 1011.93 85.856C1011.32 86.06 1010.69 86.162 1010.06 86.162ZM1009.82 78.17C1008.99 78.17 1008.34 78.428 1007.86 78.944C1007.38 79.46 1007.1 80.138 1007.01 80.978H1012.32C1012.29 80.09 1012.05 79.4 1011.62 78.908C1011.2 78.416 1010.6 78.17 1009.82 78.17ZM1023.83 86.162C1022.8 86.162 1022.02 85.892 1021.51 85.352C1020.99 84.8 1020.73 84.008 1020.73 82.976V78.386H1019.02V77.252H1020.73V74.57H1022.19V77.252H1024.96V78.386H1022.19V82.832C1022.19 83.516 1022.33 84.038 1022.62 84.398C1022.91 84.746 1023.38 84.92 1024.03 84.92C1024.22 84.92 1024.41 84.896 1024.6 84.848C1024.79 84.8 1024.97 84.752 1025.12 84.704L1025.38 85.82C1025.22 85.904 1024.99 85.982 1024.69 86.054C1024.39 86.126 1024.1 86.162 1023.83 86.162ZM1030.16 86.162C1029.31 86.162 1028.57 85.976 1027.94 85.604C1027.32 85.232 1026.83 84.71 1026.49 84.038C1026.15 83.354 1025.98 82.55 1025.98 81.626C1025.98 80.702 1026.15 79.904 1026.49 79.232C1026.83 78.548 1027.32 78.02 1027.94 77.648C1028.57 77.276 1029.31 77.09 1030.16 77.09C1031 77.09 1031.73 77.276 1032.35 77.648C1032.99 78.02 1033.48 78.548 1033.81 79.232C1034.16 79.904 1034.33 80.702 1034.33 81.626C1034.33 82.55 1034.16 83.354 1033.81 84.038C1033.48 84.71 1032.99 85.232 1032.35 85.604C1031.73 85.976 1031 86.162 1030.16 86.162ZM1030.16 84.992C1030.97 84.992 1031.63 84.704 1032.12 84.128C1032.61 83.54 1032.86 82.706 1032.86 81.626C1032.86 80.534 1032.61 79.7 1032.12 79.124C1031.63 78.548 1030.97 78.26 1030.16 78.26C1029.33 78.26 1028.67 78.548 1028.18 79.124C1027.7 79.7 1027.46 80.534 1027.46 81.626C1027.46 82.706 1027.7 83.54 1028.18 84.128C1028.67 84.704 1029.33 84.992 1030.16 84.992ZM1044.86 86.162C1043.98 86.162 1043.22 85.976 1042.59 85.604C1041.95 85.22 1041.46 84.686 1041.11 84.002C1040.78 83.306 1040.61 82.496 1040.61 81.572C1040.61 80.18 1040.99 79.088 1041.74 78.296C1042.5 77.492 1043.54 77.09 1044.86 77.09C1045.4 77.09 1045.93 77.186 1046.46 77.378C1046.99 77.57 1047.42 77.84 1047.77 78.188L1047.27 79.25C1046.92 78.914 1046.54 78.668 1046.12 78.512C1045.71 78.356 1045.32 78.278 1044.95 78.278C1044.03 78.278 1043.33 78.566 1042.84 79.142C1042.35 79.706 1042.1 80.522 1042.1 81.59C1042.1 82.634 1042.35 83.462 1042.84 84.074C1043.33 84.674 1044.03 84.974 1044.95 84.974C1045.32 84.974 1045.71 84.896 1046.12 84.74C1046.54 84.584 1046.92 84.332 1047.27 83.984L1047.77 85.046C1047.42 85.394 1046.98 85.67 1046.44 85.874C1045.91 86.066 1045.38 86.162 1044.86 86.162ZM1052.94 86.162C1052.09 86.162 1051.35 85.976 1050.73 85.604C1050.1 85.232 1049.62 84.71 1049.27 84.038C1048.93 83.354 1048.76 82.55 1048.76 81.626C1048.76 80.702 1048.93 79.904 1049.27 79.232C1049.62 78.548 1050.1 78.02 1050.73 77.648C1051.35 77.276 1052.09 77.09 1052.94 77.09C1053.78 77.09 1054.51 77.276 1055.14 77.648C1055.77 78.02 1056.26 78.548 1056.59 79.232C1056.94 79.904 1057.12 80.702 1057.12 81.626C1057.12 82.55 1056.94 83.354 1056.59 84.038C1056.26 84.71 1055.77 85.232 1055.14 85.604C1054.51 85.976 1053.78 86.162 1052.94 86.162ZM1052.94 84.992C1053.76 84.992 1054.41 84.704 1054.9 84.128C1055.39 83.54 1055.64 82.706 1055.64 81.626C1055.64 80.534 1055.39 79.7 1054.9 79.124C1054.41 78.548 1053.76 78.26 1052.94 78.26C1052.11 78.26 1051.45 78.548 1050.96 79.124C1050.48 79.7 1050.24 80.534 1050.24 81.626C1050.24 82.706 1050.48 83.54 1050.96 84.128C1051.45 84.704 1052.11 84.992 1052.94 84.992ZM1059.34 86V77.252H1060.76V78.728C1061.03 78.2 1061.39 77.798 1061.86 77.522C1062.33 77.234 1062.88 77.09 1063.5 77.09C1064.87 77.09 1065.74 77.684 1066.13 78.872C1066.39 78.32 1066.78 77.888 1067.3 77.576C1067.81 77.252 1068.41 77.09 1069.08 77.09C1071.02 77.09 1072 78.242 1072 80.546V86H1070.54V80.618C1070.54 79.814 1070.39 79.226 1070.11 78.854C1069.83 78.47 1069.37 78.278 1068.72 78.278C1068.01 78.278 1067.45 78.53 1067.03 79.034C1066.61 79.538 1066.4 80.21 1066.4 81.05V86H1064.94V80.618C1064.94 79.814 1064.8 79.226 1064.51 78.854C1064.23 78.47 1063.77 78.278 1063.12 78.278C1062.4 78.278 1061.83 78.53 1061.41 79.034C1061 79.538 1060.8 80.21 1060.8 81.05V86H1059.34ZM1078.66 86.162C1077.28 86.162 1076.19 85.76 1075.39 84.956C1074.58 84.14 1074.18 83.036 1074.18 81.644C1074.18 80.744 1074.36 79.952 1074.72 79.268C1075.08 78.572 1075.57 78.038 1076.2 77.666C1076.83 77.282 1077.57 77.09 1078.39 77.09C1079.58 77.09 1080.51 77.474 1081.18 78.242C1081.86 78.998 1082.19 80.042 1082.19 81.374V81.932H1075.6C1075.65 82.928 1075.94 83.69 1076.47 84.218C1077 84.734 1077.73 84.992 1078.66 84.992C1079.19 84.992 1079.7 84.914 1080.18 84.758C1080.66 84.59 1081.11 84.32 1081.54 83.948L1082.05 84.974C1081.65 85.346 1081.15 85.64 1080.54 85.856C1079.92 86.06 1079.3 86.162 1078.66 86.162ZM1078.43 78.17C1077.6 78.17 1076.95 78.428 1076.47 78.944C1075.99 79.46 1075.71 80.138 1075.62 80.978H1080.93C1080.9 80.09 1080.66 79.4 1080.23 78.908C1079.81 78.416 1079.21 78.17 1078.43 78.17ZM1084.07 86V84.164H1085.9V86H1084.07ZM1088.16 86V84.164H1090V86H1088.16ZM1092.26 86V84.164H1094.1V86H1092.26Z" fill="white"/>
<path d="M8.092 182.814L6.916 180.924C6.59867 180.392 6.08067 180.126 5.362 180.126C4.44733 180.126 3.64933 179.921 2.968 179.51C2.296 179.09 1.77333 178.502 1.4 177.746C1.036 176.99 0.854 176.094 0.854 175.058C0.854 174.022 1.036 173.126 1.4 172.37C1.764 171.614 2.282 171.031 2.954 170.62C3.63533 170.209 4.438 170.004 5.362 170.004C6.29533 170.004 7.098 170.209 7.77 170.62C8.45133 171.031 8.974 171.614 9.338 172.37C9.71133 173.117 9.898 174.008 9.898 175.044C9.898 176.248 9.65067 177.265 9.156 178.096C8.66133 178.917 7.97533 179.496 7.098 179.832C7.47133 179.953 7.812 180.275 8.12 180.798L9.058 182.31L8.092 182.814ZM5.362 179.104C6.41667 179.104 7.23333 178.749 7.812 178.04C8.39067 177.331 8.68 176.337 8.68 175.058C8.68 173.779 8.39067 172.79 7.812 172.09C7.23333 171.381 6.41667 171.026 5.362 171.026C4.326 171.026 3.51867 171.381 2.94 172.09C2.36133 172.79 2.072 173.779 2.072 175.058C2.072 176.327 2.36133 177.321 2.94 178.04C3.51867 178.749 4.326 179.104 5.362 179.104ZM14.8204 180.126C14.1671 180.126 13.5464 180.028 12.9584 179.832C12.3704 179.627 11.8758 179.333 11.4744 178.95L11.8944 178.04C12.3518 178.413 12.8138 178.684 13.2804 178.852C13.7471 179.02 14.2511 179.104 14.7924 179.104C15.5018 179.104 16.0431 178.95 16.4164 178.642C16.7991 178.325 16.9904 177.863 16.9904 177.256C16.9904 176.677 16.7991 176.239 16.4164 175.94C16.0338 175.641 15.4784 175.492 14.7504 175.492H13.2944V174.498H14.6524C15.2871 174.498 15.7864 174.335 16.1504 174.008C16.5238 173.672 16.7104 173.215 16.7104 172.636C16.7104 172.123 16.5378 171.726 16.1924 171.446C15.8564 171.166 15.3758 171.026 14.7504 171.026C13.7238 171.026 12.8278 171.399 12.0624 172.146L11.6424 171.25C12.0064 170.858 12.4684 170.555 13.0284 170.34C13.5978 170.116 14.1951 170.004 14.8204 170.004C15.7724 170.004 16.5144 170.228 17.0464 170.676C17.5878 171.124 17.8584 171.745 17.8584 172.538C17.8584 173.089 17.7184 173.574 17.4384 173.994C17.1584 174.405 16.7711 174.703 16.2764 174.89C16.8644 175.049 17.3218 175.343 17.6484 175.772C17.9751 176.192 18.1384 176.715 18.1384 177.34C18.1384 178.189 17.8398 178.866 17.2424 179.37C16.6544 179.874 15.8471 180.126 14.8204 180.126Z" fill="white" fill-opacity="0.6"/>
<path d="M557.092 182.814L555.916 180.924C555.599 180.392 555.081 180.126 554.362 180.126C553.447 180.126 552.649 179.921 551.968 179.51C551.296 179.09 550.773 178.502 550.4 177.746C550.036 176.99 549.854 176.094 549.854 175.058C549.854 174.022 550.036 173.126 550.4 172.37C550.764 171.614 551.282 171.031 551.954 170.62C552.635 170.209 553.438 170.004 554.362 170.004C555.295 170.004 556.098 170.209 556.77 170.62C557.451 171.031 557.974 171.614 558.338 172.37C558.711 173.117 558.898 174.008 558.898 175.044C558.898 176.248 558.651 177.265 558.156 178.096C557.661 178.917 556.975 179.496 556.098 179.832C556.471 179.953 556.812 180.275 557.12 180.798L558.058 182.31L557.092 182.814ZM554.362 179.104C555.417 179.104 556.233 178.749 556.812 178.04C557.391 177.331 557.68 176.337 557.68 175.058C557.68 173.779 557.391 172.79 556.812 172.09C556.233 171.381 555.417 171.026 554.362 171.026C553.326 171.026 552.519 171.381 551.94 172.09C551.361 172.79 551.072 173.779 551.072 175.058C551.072 176.327 551.361 177.321 551.94 178.04C552.519 178.749 553.326 179.104 554.362 179.104ZM565.01 180V177.886H560.46V177.018L565.206 170.13H566.172V176.906H567.642V177.886H566.172V180H565.01ZM565.01 176.906V172.02L561.65 176.906H565.01Z" fill="white" fill-opacity="0.6"/>
<path d="M1114.26 180V179.132L1117.63 175.492C1118.11 174.969 1118.45 174.493 1118.66 174.064C1118.87 173.635 1118.98 173.196 1118.98 172.748C1118.98 171.6 1118.31 171.026 1116.98 171.026C1115.98 171.026 1115.1 171.399 1114.33 172.146L1113.9 171.25C1114.26 170.877 1114.72 170.578 1115.28 170.354C1115.85 170.121 1116.45 170.004 1117.07 170.004C1118.06 170.004 1118.82 170.237 1119.34 170.704C1119.87 171.161 1120.14 171.815 1120.14 172.664C1120.14 173.252 1120 173.831 1119.71 174.4C1119.42 174.96 1118.97 175.557 1118.38 176.192L1115.73 179.02H1120.55V180H1114.26ZM1125.59 180.126C1124.47 180.126 1123.61 179.692 1123.02 178.824C1122.43 177.956 1122.14 176.701 1122.14 175.058C1122.14 173.406 1122.43 172.151 1123.02 171.292C1123.61 170.433 1124.47 170.004 1125.59 170.004C1126.73 170.004 1127.59 170.433 1128.17 171.292C1128.76 172.141 1129.05 173.392 1129.05 175.044C1129.05 176.696 1128.75 177.956 1128.16 178.824C1127.57 179.692 1126.71 180.126 1125.59 180.126ZM1125.59 179.132C1126.38 179.132 1126.96 178.801 1127.33 178.138C1127.71 177.475 1127.9 176.444 1127.9 175.044C1127.9 173.644 1127.72 172.622 1127.34 171.978C1126.97 171.325 1126.39 170.998 1125.59 170.998C1124.81 170.998 1124.23 171.325 1123.84 171.978C1123.47 172.631 1123.28 173.653 1123.28 175.044C1123.28 176.444 1123.47 177.475 1123.84 178.138C1124.23 178.801 1124.81 179.132 1125.59 179.132ZM1131.05 180V179.132L1134.42 175.492C1134.9 174.969 1135.24 174.493 1135.45 174.064C1135.66 173.635 1135.77 173.196 1135.77 172.748C1135.77 171.6 1135.1 171.026 1133.77 171.026C1132.77 171.026 1131.88 171.399 1131.12 172.146L1130.69 171.25C1131.05 170.877 1131.51 170.578 1132.07 170.354C1132.64 170.121 1133.24 170.004 1133.86 170.004C1134.85 170.004 1135.61 170.237 1136.13 170.704C1136.66 171.161 1136.93 171.815 1136.93 172.664C1136.93 173.252 1136.78 173.831 1136.5 174.4C1136.21 174.96 1135.76 175.557 1135.17 176.192L1132.52 179.02H1137.34V180H1131.05ZM1139.44 180V179.132L1142.82 175.492C1143.29 174.969 1143.63 174.493 1143.84 174.064C1144.05 173.635 1144.16 173.196 1144.16 172.748C1144.16 171.6 1143.49 171.026 1142.16 171.026C1141.16 171.026 1140.28 171.399 1139.51 172.146L1139.08 171.25C1139.44 170.877 1139.91 170.578 1140.47 170.354C1141.03 170.121 1141.63 170.004 1142.26 170.004C1143.25 170.004 1144 170.237 1144.53 170.704C1145.06 171.161 1145.32 171.815 1145.32 172.664C1145.32 173.252 1145.18 173.831 1144.89 174.4C1144.6 174.96 1144.16 175.557 1143.56 176.192L1140.91 179.02H1145.73V180H1139.44Z" fill="white" fill-opacity="0.6"/>
<defs>
<linearGradient id="paint0_linear" x1="29.2881" y1="0.694916" x2="38.9562" y2="52.8338" gradientUnits="userSpaceOnUse">
<stop stop-color="#D24089"/>
<stop offset="1" stop-color="#B92D44"/>
</linearGradient>
<linearGradient id="paint1_linear" x1="403.966" y1="60.6949" x2="411.526" y2="113.545" gradientUnits="userSpaceOnUse">
<stop stop-color="#D9B351"/>
<stop offset="1" stop-color="#CA6128"/>
</linearGradient>
<linearGradient id="paint2_linear" x1="148.362" y1="60.6949" x2="157.164" y2="113.149" gradientUnits="userSpaceOnUse">
<stop stop-color="#84DBC8"/>
<stop offset="1" stop-color="#55AB86"/>
</linearGradient>
<linearGradient id="paint3_linear" x1="894.746" y1="0.694916" x2="904.584" y2="52.7678" gradientUnits="userSpaceOnUse">
<stop stop-color="#D9B351"/>
<stop offset="1" stop-color="#CA6128"/>
</linearGradient>
<linearGradient id="paint4_linear" x1="693.023" y1="0.694916" x2="703.096" y2="52.6742" gradientUnits="userSpaceOnUse">
<stop stop-color="#84DBC8"/>
<stop offset="1" stop-color="#55AB86"/>
</linearGradient>
<linearGradient id="paint5_linear" x1="268.972" y1="0.694916" x2="282.06" y2="51.2371" gradientUnits="userSpaceOnUse">
<stop stop-color="#84DBC8"/>
<stop offset="1" stop-color="#55AB86"/>
</linearGradient>
<linearGradient id="paint6_linear" x1="481.672" y1="0.694916" x2="492.593" y2="52.3164" gradientUnits="userSpaceOnUse">
<stop stop-color="#D24089"/>
<stop offset="1" stop-color="#B92D44"/>
</linearGradient>
<linearGradient id="paint7_linear" x1="693.147" y1="60.6949" x2="700.672" y2="113.555" gradientUnits="userSpaceOnUse">
<stop stop-color="#D24089"/>
<stop offset="1" stop-color="#B92D44"/>
</linearGradient>
</defs>
</svg>
