<svg width="100%" height="100%" viewBox="0 0 1152 793" preserveAspectRatio="none" fill="none" xmlns="http://www.w3.org/2000/svg">
  <path
    opacity="0.9"
    d="M140.389 80.4529C122.033 86.5208 105.559 94.5885 87.3333 100.881C60.0527 110.3 30.3467 114.33 0 115.626L1 793C9.32336 792.522 18.2408 791.523 19.6111 791.491C37.1418 791.078 52.9977 790.251 70.1111 787.859C82.9923 786.058 94.5482 781.722 106.444 778.184C118.042 774.734 129.195 772.643 141.444 770.451C156.227 767.806 171.3 765.926 186.222 763.618C201.123 761.313 216.033 758.366 231.222 757C240.715 756.147 250.109 756.213 259.611 755.166C278.043 753.135 296.951 752.532 315.556 751.462C350.498 749.451 385.4 749.376 420.444 749.376C448.887 749.376 477.089 749.466 505.333 752.037C535.849 754.815 563.757 763.876 594.333 765.92C612.936 767.163 632.462 766.042 651.013 764.976L652.111 764.913C678.834 763.379 705.856 761.538 732.333 758.727C784.073 753.233 835.818 746.924 887.222 740.241C913.238 736.858 939.707 733.043 964.556 726.861C980.657 722.856 996.258 717.623 1011.61 712.547C1029.97 706.479 1046.44 698.412 1064.67 692.119C1091.95 682.7 1121.65 678.67 1152 677.374L1151 0C1142.68 0.477719 1133.76 1.47661 1132.39 1.50887C1114.86 1.92156 1099 2.74935 1081.89 5.14137C1069.01 6.94184 1057.45 11.2776 1045.56 14.8161C1033.96 18.2657 1022.81 20.3565 1010.56 22.5486C995.773 25.1939 980.7 27.0739 965.778 29.382C950.877 31.687 935.967 34.634 920.778 35.9997C911.285 36.8532 901.891 36.7868 892.389 37.8339C873.957 39.8649 855.049 40.4678 836.444 41.5383C801.502 43.5491 766.6 43.6243 731.556 43.6243C703.113 43.6243 674.911 43.5342 646.667 40.9629C616.151 38.1848 588.243 29.1243 557.667 27.0803C539.064 25.8367 519.538 26.9585 500.987 28.0242L499.889 28.0873C473.166 29.6212 446.144 31.4619 419.667 34.2733C367.927 39.7673 316.182 46.0761 264.778 52.7595C238.762 56.1421 212.293 59.9568 187.444 66.1387C171.343 70.1445 155.742 75.3775 140.389 80.4529Z"
    fill="url(#paint0_linear)"/>
  <path
    opacity="0.9"
    d="M192 40.1717C140.881 42.6508 89.6918 43.3276 38.6111 46.1419C25.7515 46.8504 12.882 47.5214 0 48.0124L1.13171e-05 652.271C2.42298 652.556 4.84828 652.831 7.27784 653.09C22.6762 654.726 38.2721 655.443 53.8334 656.039C68.2466 656.591 81.867 657.324 95.8889 659.635C107.552 661.558 119.272 663.256 131.111 664.671C167.564 669.025 204.846 668.897 241.778 668.986L243.191 668.99H243.195C287.594 669.097 332.21 669.205 376.556 670.641C420.219 672.054 462.5 679.197 503.5 688.731C522.646 693.184 540.871 698.932 559.889 703.549C580.84 708.635 602.148 712.922 623.556 717.108C669.209 726.035 716.189 731.883 762.889 738.004C793.459 742.011 823.385 744.413 854.611 744.694C889.734 745.009 924.998 743.406 960 741.708C1011.12 739.229 1062.31 738.553 1113.39 735.738C1126.25 735.03 1139.12 734.359 1152 733.868L1152 129.609C1149.58 129.324 1147.15 129.049 1144.72 128.79C1129.32 127.154 1113.73 126.437 1098.17 125.841C1083.75 125.289 1070.13 124.556 1056.11 122.245C1044.45 120.322 1032.73 118.624 1020.89 117.21C984.436 112.855 947.154 112.983 910.222 112.894L908.81 112.89C864.41 112.783 819.792 112.675 775.445 111.239C731.781 109.826 689.5 102.683 648.5 93.1487C629.354 88.6963 611.129 82.9477 592.111 78.3309C571.16 73.2447 549.852 68.958 528.445 64.772C482.791 55.8451 435.811 49.9968 389.111 43.8761C358.541 39.8694 328.615 37.4673 297.389 37.1865C262.266 36.8707 227.002 38.4742 192 40.1717Z"
    fill="url(#paint1_linear)"/>
  <path
    opacity="0.9"
    d="M956.111 87.6429C998.245 78.5214 1040.89 70.5234 1082.78 60.8847C1105.87 55.5702 1129.39 50.5207 1152 44.2843V661.455C1109.41 668.121 1066.9 627.811 1024.22 634.266C982.891 640.517 940.418 633.672 901.611 645.091C895.283 646.953 887.167 651.493 887.167 651.493C852.37 669.924 811.78 659.223 772.056 672.641C748.176 680.706 724.004 686.567 698.556 692.242C673.93 697.734 648.759 703.922 622.889 706.484C586.742 710.064 548.57 708.067 512.111 708.067C465.121 708.067 417.889 708.136 371.333 712.742C311.277 718.684 254.446 679.805 197 692.242C154.866 701.363 109.884 682.603 68 692.242C44.9065 697.556 22.6079 693.741 0 699.978V169.212C42.5919 162.547 85.1028 202.857 127.778 196.402C169.109 190.151 211.582 196.996 250.389 185.577C256.717 183.715 264.833 179.175 264.833 179.175C299.63 160.744 340.22 171.445 379.944 158.027C403.824 149.962 427.996 144.101 453.444 138.426C478.07 132.934 503.241 126.746 529.111 124.184C565.258 120.604 603.43 122.601 639.889 122.601C686.879 122.601 734.111 122.532 780.667 117.926C840.723 111.984 898.665 100.079 956.111 87.6429Z"
    fill="url(#paint2_linear)"/>
  <defs>
    <linearGradient id="paint0_linear" x1="208.271" y1="13.4407" x2="627.681" y2="845.028" gradientUnits="userSpaceOnUse">
      <stop stop-color="#84DBC8"/>
      <stop offset="1" stop-color="#55AB86"/>
    </linearGradient>
    <linearGradient id="paint1_linear" x1="208.271" y1="49.1395" x2="556.595" y2="823.148" gradientUnits="userSpaceOnUse">
      <stop stop-color="#D9B351"/>
      <stop offset="1" stop-color="#CA6128"/>
    </linearGradient>
    <linearGradient id="paint2_linear" x1="208.271" y1="55.6246" x2="525.37" y2="800.799" gradientUnits="userSpaceOnUse">
      <stop stop-color="#D24089"/>
      <stop offset="1" stop-color="#B92D44"/>
    </linearGradient>
  </defs>
</svg>
