<svg width="100%" height="100%" viewBox="0 0 1110 621" fill="none" preserveAspectRatio="none" xmlns="http://www.w3.org/2000/svg">
  <path
    opacity="0.9"
    d="M974.72 80.4529C992.407 86.5208 1008.28 94.5885 1025.84 100.881C1052.13 110.3 1080.76 114.33 1110 115.626L1109.28 621H0L0.883423 0C8.90393 0.477719 17.4968 1.47661 18.8173 1.50887C35.7101 1.92156 50.9889 2.74935 67.4796 5.14137C79.8921 6.94184 91.0275 11.2776 102.491 14.8161C113.667 18.2657 124.413 20.3565 136.217 22.5486C150.462 25.1939 164.987 27.0739 179.366 29.382C193.724 31.687 208.092 34.634 222.728 35.9997C231.876 36.8532 240.927 36.7868 250.084 37.8339C267.845 39.865 286.065 40.4678 303.993 41.5383C337.664 43.5491 371.296 43.6243 405.065 43.6243C432.472 43.6243 459.648 43.5342 486.865 40.9629C516.27 38.1848 543.162 29.1243 572.626 27.0803C590.552 25.8367 609.368 26.9585 627.243 28.0242L628.301 28.0873C654.052 29.6212 680.091 31.4619 705.604 34.2733C755.462 39.7673 805.323 46.0761 854.857 52.7595C879.927 56.1421 905.432 59.9568 929.376 66.1387C944.892 70.1445 959.925 75.3775 974.72 80.4529Z"
    fill="url(#paint0_linear)"/>
  <path
    opacity="0.9"
    d="M925 40.1717C974.255 42.6508 1023.58 43.3276 1072.8 46.1419C1085.19 46.8504 1097.59 47.5214 1110 48.0124L1110 620H0L-0.00012207 129.609C2.33447 129.324 4.67139 129.049 7.01233 128.79C21.8494 127.154 36.8767 126.437 51.8706 125.841C65.7583 125.289 78.8821 124.556 92.3928 122.245C103.631 120.322 114.923 118.624 126.331 117.21C161.455 112.855 197.377 112.983 232.963 112.894L234.325 112.89C277.106 112.783 320.097 112.675 362.827 111.239C404.898 109.826 445.638 102.683 485.143 93.1487C503.591 88.6963 521.152 82.9477 539.476 78.3309C559.664 73.2447 580.194 68.958 600.822 64.772C644.811 55.8451 690.078 49.9968 735.075 43.8761C764.531 39.8694 793.366 37.4673 823.453 37.1865C857.296 36.8707 891.274 38.4742 925 40.1717Z"
    fill="url(#paint1_linear)"/>
  <path
    opacity="0.9"
    d="M188.747 87.6429C148.149 78.5214 107.055 70.5234 66.6984 60.8847C44.4469 55.5702 21.7837 50.5207 0 44.2843V621H1110V169.212C1068.96 162.547 1028 202.857 986.881 196.402C947.056 190.151 906.132 196.996 868.74 185.577C862.643 183.715 854.822 179.175 854.822 179.175C821.294 160.744 782.184 171.445 743.908 158.027C720.899 149.962 697.608 144.101 673.087 138.426C649.36 132.934 625.107 126.746 600.179 124.184C565.351 120.604 528.57 122.601 493.44 122.601C448.163 122.601 402.653 122.532 357.795 117.926C299.929 111.984 244.099 100.079 188.747 87.6429Z"
    fill="url(#paint2_linear)"/>
  <defs>
    <linearGradient id="paint0_linear" x1="909.322" y1="10.5254" x2="622.653" y2="709.886" gradientUnits="userSpaceOnUse">
      <stop stop-color="#84DBC8"/>
      <stop offset="1" stop-color="#55AB86"/>
    </linearGradient>
    <linearGradient id="paint1_linear" x1="909.322" y1="47.0254" x2="652.389" y2="714.866" gradientUnits="userSpaceOnUse">
      <stop stop-color="#D9B351"/>
      <stop offset="1" stop-color="#CA6128"/>
    </linearGradient>
    <linearGradient id="paint2_linear" x1="909.322" y1="54.0591" x2="657.091" y2="716.657" gradientUnits="userSpaceOnUse">
      <stop stop-color="#D24089"/>
      <stop offset="1" stop-color="#B92D44"/>
    </linearGradient>
  </defs>
</svg>
